<?xml version="1.0" encoding="UTF-8"?>
<svg width="28px" height="28px" viewBox="0 0 28 28" version="1.1" xmlns="http://www.w3.org/2000/svg" xmlns:xlink="http://www.w3.org/1999/xlink">
    <!-- Generator: Sketch 49 (51002) - http://www.bohemiancoding.com/sketch -->
    <title>add_folder</title>
    <desc>Created with Sketch.</desc>
    <defs>
        <path d="M21,16 L18,16 L18,19 L16,19 L16,16 L13,16 L13,14 L16,14 L16,11 L18,11 L18,14 L21,14 L21,16 Z M22,8 L14,8 L12,6 L6,6 C4.895,6 4.0105,6.895 4.0105,8 L4,20 C4,21.105 4.895,22 6,22 L22,22 C23.105,22 24,21.105 24,20 L24,10 C24,8.895 23.105,8 22,8 Z" id="path-1"></path>
    </defs>
    <g id="add_folder" stroke="none" stroke-width="1" fill="none" fill-rule="evenodd">
        <rect id="container" fill-opacity="0" fill="#FFFFFF" x="0" y="0" width="28" height="28"></rect>
        <mask id="mask-2" fill="white">
            <use xlink:href="#path-1"></use>
        </mask>
        <use id="Page-1" fill-opacity="0.870000005" fill="#000000" xlink:href="#path-1"></use>
    </g>
</svg>