<?xml version="1.0" encoding="UTF-8"?>
<svg width="28px" height="28px" viewBox="0 0 28 28" version="1.1" xmlns="http://www.w3.org/2000/svg" xmlns:xlink="http://www.w3.org/1999/xlink">
    <!-- Generator: Sketch 49 (51002) - http://www.bohemiancoding.com/sketch -->
    <title>camera</title>
    <desc>Created with Sketch.</desc>
    <defs>
        <path d="M14,11.8 C15.767,11.8 17.2,13.233 17.2,15 C17.2,16.767 15.767,18.2 14,18.2 C12.233,18.2 10.8,16.767 10.8,15 C10.8,13.233 12.233,11.8 14,11.8 M14,20 C11.24,20 9,17.76 9,15 C9,12.24 11.24,10 14,10 C16.76,10 19,12.24 19,15 C19,17.76 16.76,20 14,20 Z M11,5 L9.17,7 L6,7 C4.895,7 4,7.895 4,9 L4,21 C4,22.105 4.895,23 6,23 L22,23 C23.105,23 24,22.105 24,21 L24,9 C24,7.895 23.105,7 22,7 L18.83,7 L17,5 L11,5 Z" id="path-1"></path>
    </defs>
    <g id="camera" stroke="none" stroke-width="1" fill="none" fill-rule="evenodd">
        <rect id="container" fill-opacity="0" fill="#FFFFFF" x="0" y="0" width="28" height="28"></rect>
        <mask id="mask-2" fill="white">
            <use xlink:href="#path-1"></use>
        </mask>
        <use id="Fill-3" fill-opacity="0.870000005" fill="#000000" xlink:href="#path-1"></use>
    </g>
</svg>