<?xml version="1.0" encoding="UTF-8"?>
<svg width="28px" height="28px" viewBox="0 0 28 28" version="1.1" xmlns="http://www.w3.org/2000/svg" xmlns:xlink="http://www.w3.org/1999/xlink">
    <!-- Generator: Sketch 49 (51002) - http://www.bohemiancoding.com/sketch -->
    <title>export</title>
    <desc>Created with Sketch.</desc>
    <defs>
        <path d="M16.9998,14.0001 L16.9998,11.0001 L21.9998,15.5001 L16.9998,20.0001 L16.9998,17.0001 L11.0008,17.0001 L11.0008,14.0001 L16.9998,14.0001 Z M20,18.6455 L22,16.8455 L22,21.9995 C22,23.1055 21.105,23.9995 20,23.9995 L7.989,23.9995 C6.885,23.9995 6,23.1055 6,21.9995 L6.01,5.9995 C6.01,4.8945 6.895,3.9995 8,3.9995 L16,3.9995 L22,9.9995 L22,14.1545 L20,12.3545 L20,9.9995 L16,9.9995 L16,5.9995 L8,5.9995 L8,21.9995 L20,21.9995 L20,18.6455 Z" id="path-1"></path>
    </defs>
    <g id="export" stroke="none" stroke-width="1" fill="none" fill-rule="evenodd">
        <mask id="mask-2" fill="white">
            <use xlink:href="#path-1"></use>
        </mask>
        <use id="Combined-Shape" fill-opacity="0.87" fill="#000000" xlink:href="#path-1"></use>
    </g>
</svg>