<?xml version="1.0" encoding="UTF-8"?>
<svg width="28px" height="28px" viewBox="0 0 28 28" version="1.1" xmlns="http://www.w3.org/2000/svg" xmlns:xlink="http://www.w3.org/1999/xlink">
    <!-- Generator: Sketch 49 (51002) - http://www.bohemiancoding.com/sketch -->
    <title>find-in-page</title>
    <desc>Created with Sketch.</desc>
    <defs>
        <path d="M11.0000104,15 C11.0000104,16.655 12.3450132,18 14.0000167,18 C15.6550201,18 17.0000229,16.655 17.0000229,15 C17.0000229,13.3445 15.6550201,12 14.0000167,12 C12.3450132,12 11.0000104,13.3445 11.0000104,15 Z M22.0000333,21.585 L22.0000333,10 L16.0000208,4 L8.00000417,4 C6.89500186,4 6.01050002,4.895 6.01050002,6 L6,22 C6,23.105 6.88550184,24 7.99000415,24 L20.0000292,24 C20.4450301,24 20.8550309,23.8495 21.1850316,23.5995 L16.7500224,19.1645 C15.9650208,19.69 15.0200188,20 14.0000167,20 C11.2400109,20 9.00000625,17.76 9.00000625,15 C9.00000625,12.2395 11.2400109,10 14.0000167,10 C16.7605224,10 19.0000271,12.2395 19.0000271,15 C19.0000271,16.02 18.6900264,16.965 18.1700254,17.755 L22.0000333,21.585 Z" id="path-1"></path>
    </defs>
    <g id="find-in-page" stroke="none" stroke-width="1" fill="none" fill-rule="evenodd">
        <mask id="mask-2" fill="white">
            <use xlink:href="#path-1"></use>
        </mask>
        <use id="Page-1" fill-opacity="0.87" fill="#000000" xlink:href="#path-1"></use>
    </g>
</svg>