<?xml version="1.0" encoding="UTF-8"?>
<svg width="28px" height="28px" viewBox="0 0 28 28" version="1.1" xmlns="http://www.w3.org/2000/svg" xmlns:xlink="http://www.w3.org/1999/xlink">
    <!-- Generator: Sketch 49 (51002) - http://www.bohemiancoding.com/sketch -->
    <title>gallery</title>
    <desc>Created with Sketch.</desc>
    <defs>
        <path d="M4,8 L4,22 C4,23.105 4.895,24 6,24 L20,24 L20,22 L6,22 L6,8 L4,8 Z M13,14 L15.03,16.71 L18,13 L22,18 L10,18 L13,14 Z M24,18 L24,6 C24,4.895 23.105,4 22,4 L10,4 C8.895,4 8,4.895 8,6 L8,18 C8,19.105 8.895,20 10,20 L22,20 C23.105,20 24,19.105 24,18 Z" id="path-1"></path>
    </defs>
    <g id="gallery" stroke="none" stroke-width="1" fill="none" fill-rule="evenodd">
        <rect id="container" fill-opacity="0" fill="#FFFFFF" x="0" y="0" width="28" height="28"></rect>
        <mask id="mask-2" fill="white">
            <use xlink:href="#path-1"></use>
        </mask>
        <use id="Page-1" fill-opacity="0.870000005" fill="#000000" xlink:href="#path-1"></use>
    </g>
</svg>