<?xml version="1.0" encoding="UTF-8"?>
<svg width="28px" height="28px" viewBox="0 0 28 28" version="1.1" xmlns="http://www.w3.org/2000/svg" xmlns:xlink="http://www.w3.org/1999/xlink">
    <!-- Generator: Sketch 49 (51002) - http://www.bohemiancoding.com/sketch -->
    <title>modal</title>
    <desc>Created with Sketch.</desc>
    <defs>
        <path d="M11,9 L21,9 L21,7 L11,7 L11,9 Z M11,17 L17,17 L17,15 L11,15 L11,17 Z M11,13 L21,13 L21,11 L11,11 L11,13 Z M22,4 L10,4 C8.895,4 8,4.895 8,6 L8,18 C8,19.105 8.895,20 10,20 L22,20 C23.105,20 24,19.105 24,18 L24,6 C24,4.895 23.105,4 22,4 Z M6,8 L4,8 L4,22 C4,23.105 4.895,24 6,24 L20,24 L20,22 L6,22 L6,8 Z" id="path-1"></path>
    </defs>
    <g id="modal" stroke="none" stroke-width="1" fill="none" fill-rule="evenodd">
        <mask id="mask-2" fill="white">
            <use xlink:href="#path-1"></use>
        </mask>
        <use id="Page-1" fill-opacity="0.87" fill="#000000" xlink:href="#path-1"></use>
    </g>
</svg>