<?xml version="1.0" encoding="UTF-8"?>
<svg width="28px" height="28px" viewBox="0 0 28 28" version="1.1" xmlns="http://www.w3.org/2000/svg" xmlns:xlink="http://www.w3.org/1999/xlink">
    <!-- Generator: Sketch 49 (51002) - http://www.bohemiancoding.com/sketch -->
    <title>move</title>
    <desc>Created with Sketch.</desc>
    <defs>
        <path d="M25,14 L21.01,18 L21.01,15 L17,15 L17,13 L21.01,13 L21.01,10 L25,14 Z M14,25 L10,21.01 L13,21.01 L13,17 L15,17 L15,21.01 L18,21.01 L14,25 Z M6.99,10 L6.99,13 L11,13 L11,15 L6.99,15 L6.99,18 L3,14 L6.99,10 Z M18,6.99 L15,6.99 L15,11 L13,11 L13,6.99 L10,6.99 L14,3 L18,6.99 Z" id="path-1"></path>
    </defs>
    <g id="move" stroke="none" stroke-width="1" fill="none" fill-rule="evenodd">
        <rect id="container" fill-opacity="0" fill="#FFFFFF" x="0" y="0" width="28" height="28"></rect>
        <mask id="mask-2" fill="white">
            <use xlink:href="#path-1"></use>
        </mask>
        <use id="Combined-Shape" fill-opacity="0.870000005" fill="#000000" xlink:href="#path-1"></use>
    </g>
</svg>