<svg width="1280" height="248" viewBox="0 0 1280 248" fill="none" xmlns="http://www.w3.org/2000/svg">
<path d="M177.043 149.493L186.275 142.391L198.348 150.913L201.899 168.667L209 170.797L198.348 183.58L199.768 213.406L160 209.855L173.493 182.159L169.942 179.319L177.043 149.493Z" fill="black" fill-opacity="0.05"/>
<path d="M193.5 142.391C193.5 145.921 192.646 148.783 189.116 148.783C185.586 148.783 182.725 145.921 182.725 142.391C182.725 138.861 185 127.5 185 127.5C185 127.5 193.5 138.861 193.5 142.391Z" fill="black" fill-opacity="0.05"/>
<rect x="204.029" y="141.681" width="1.42029" height="72.4348" fill="black" fill-opacity="0.05"/>
<path d="M177.279 146.611H195.136L202.279 168.389L175.85 188.611L172.279 171.5L177.279 146.611Z" fill="black" fill-opacity="0.05"/>
<path d="M26.1739 126.507L37.1015 118.101L51.3913 128.188L55.5942 149.203H63L51.3913 166.855V186.5L20 176.5L22 155L17.7681 161.812L26.1739 126.507Z" fill="black" fill-opacity="0.05"/>
<path d="M58.1159 150.5L61.5 146.5L58.1159 198H56L58.1159 150.5Z" fill="black" fill-opacity="0.05"/>
<path fill-rule="evenodd" clip-rule="evenodd" d="M35.9129 131.952L30.5 134L30.1476 133.552L24.5 163V170.5L20 163L26.1503 128.464L25 127C25 127 34.074 120.574 35 116.5C36.25 111 46 109.5 46 109.5L49 127L41.2236 129.942L34.8838 163V170.5L30.3838 163L35.9129 131.952Z" fill="black" fill-opacity="0.05"/>
<path d="M19 193.66L22.5 166L46.5 175L46.5 196L36.5 198L19 193.66Z" fill="black" fill-opacity="0.05"/>
<path d="M0 190C0 190 83.9436 200.51 138 204C354.644 217.987 340 203 620 190C900 177 1280 204 1280 204V248H0V190Z" fill="black" fill-opacity="0.05"/>
<path d="M103.652 159L112.13 154L123.217 160L126.478 172.5L128 182L123.217 183V200L103.652 196V183L97.1304 180L103.652 159Z" fill="black" fill-opacity="0.05"/>
<path d="M233.222 181.987L242.686 176V182.565L244.264 189.791L245 195.283L242.686 195.861L243.317 208L233.222 201.5V195.861L229 184.258L233.222 181.987Z" fill="black" fill-opacity="0.05"/>
<circle cx="178.5" cy="180.5" r="4.5" fill="black" fill-opacity="0.1"/>
<circle cx="115" cy="182" r="3" fill="black" fill-opacity="0.1"/>
<circle cx="110.5" cy="156.5" r="4.5" fill="black" fill-opacity="0.05"/>
<path d="M107.5 157L116.5 148L125 164L106.5 170.5L104 165L107.5 157Z" fill="black" fill-opacity="0.05"/>
<path d="M1269.5 194C600.5 203.136 1312.06 221 1150.8 221C989.53 221 459.798 199 594.797 199C676.798 199 829.53 177 990.797 177C1152.06 177 1269.5 184.611 1269.5 194Z" fill="white"/>
<path fill-rule="evenodd" clip-rule="evenodd" d="M1180.73 62H1075.26L1067.21 77H1058L981.5 173.5H964V151.5L943 173.5L882.5 181L973 178H1013H1232H1272L1202 77H1187.36L1180.73 62Z" fill="black" fill-opacity="0.05"/>
<path d="M1099.8 110.353H1138.43L1173.96 78H1188.94L1248 178H1077L1099.8 110.353Z" fill="black" fill-opacity="0.05"/>
<path d="M1113.22 134H1118L1122 130H1124L1128 134H1133.93L1144 178H1101L1113.22 134Z" fill="black" fill-opacity="0.05"/>
<rect x="102" y="160" width="13" height="24" fill="black" fill-opacity="0.05"/>
<rect x="96" y="160" width="13" height="24" fill="#DEDEDE"/>
<path d="M166 142H182V176H163V152.462L166 142Z" fill="#EFEFEF"/>
<path d="M1129 0L1085 48L1178 62L1129 0Z" fill="black" fill-opacity="0.05"/>
<path d="M136 35L147 43.5L157.5 37L148 39L136 35Z" fill="black" fill-opacity="0.1"/>
<path d="M191 18L196.116 22L201 18.9412L196.581 19.8824L191 18Z" fill="black" fill-opacity="0.1"/>
<path d="M1160 163H1175V176.5L1190.5 178H1175H1158.5L1160 163Z" fill="white"/>
<path d="M1163 139H1172L1165 163.5L1163.67 163L1162.5 143L1163 139Z" fill="white"/>
<path d="M1162 133H1173L1163.05 141L1162 133Z" fill="white"/>
<path d="M1160 125L1168 126L1175 125L1167.5 132L1162.5 134.5L1160 125Z" fill="white"/>
<path d="M1165 120L1167.5 119L1170 120C1170 120 1170 126.5 1167.5 126.5C1165 126.5 1165 120 1165 120Z" fill="white"/>
<path d="M1167.5 107.5L1170.5 112L1169 114L1167.5 112.5L1166 114L1164.5 112L1167.5 107.5Z" fill="white"/>
<path d="M1167.5 113L1169 115L1167.5 114.5L1166 115L1167.5 113Z" fill="white"/>
<path d="M1163.49 125.078L1160.2 127.888L1155.23 121.61L1157.97 119.268L1163.49 125.078Z" fill="white"/>
<path d="M1156.43 122.542L1154.27 120.217L1162.13 113.215L1163.93 115.152L1156.43 122.542Z" fill="white"/>
<path d="M1170.65 125.029L1173.94 127.839L1178.91 121.561L1176.17 119.219L1170.65 125.029Z" fill="white"/>
<path d="M1177.71 122.494L1179.87 120.169L1172.01 113.166L1170.21 115.103L1177.71 122.494Z" fill="white"/>
<path d="M1066.73 163H1081.73V176.5L1097.23 178H1081.73H1065.23L1066.73 163Z" fill="white"/>
<path d="M1069.73 139H1078.73L1071.73 163.5L1070.4 163L1069.23 143L1069.73 139Z" fill="white"/>
<path d="M1068.73 133H1079.73L1069.78 141L1068.73 133Z" fill="white"/>
<path d="M1066.73 125L1074.73 126L1081.73 125L1074.23 132L1069.23 134.5L1066.73 125Z" fill="white"/>
<path d="M1071.73 120L1074.23 119L1076.73 120C1076.73 120 1076.73 126.5 1074.23 126.5C1071.73 126.5 1071.73 120 1071.73 120Z" fill="white"/>
<path d="M1074.23 107.5L1077.23 112L1075.73 114L1074.23 112.5L1072.73 114L1071.23 112L1074.23 107.5Z" fill="white"/>
<path d="M1074.23 113L1075.73 115L1074.23 114.5L1072.73 115L1074.23 113Z" fill="white"/>
<path d="M1070.22 125.078L1066.93 127.888L1061.97 121.61L1064.7 119.268L1070.22 125.078Z" fill="white"/>
<path d="M1063.16 122.542L1061 120.217L1068.87 113.215L1070.67 115.152L1063.16 122.542Z" fill="white"/>
<path d="M1077.39 125.029L1080.67 127.839L1085.64 121.561L1082.9 119.219L1077.39 125.029Z" fill="white"/>
<path d="M1084.44 122.494L1086.6 120.169L1078.74 113.166L1076.94 115.103L1084.44 122.494Z" fill="white"/>
<path d="M1037.32 162.351H1056.47V179.585L1076.25 181.5H1056.47H1035.4L1037.32 162.351Z" fill="white"/>
<path d="M1041.15 131.713H1052.64L1043.7 162.989L1042 162.351L1040.51 136.819L1041.15 131.713Z" fill="white"/>
<path d="M1039.87 124.053H1053.91L1041.21 134.266L1039.87 124.053Z" fill="white"/>
<path d="M1037.32 113.84L1047.53 115.117L1056.47 113.84L1046.89 122.777L1040.51 125.968L1037.32 113.84Z" fill="white"/>
<path d="M1043.7 107.458L1046.89 106.181L1050.08 107.458C1050.08 107.458 1050.08 115.755 1046.89 115.755C1043.7 115.755 1043.7 107.458 1043.7 107.458Z" fill="white"/>
<path d="M1046.89 91.5L1050.72 97.2447L1048.81 99.7979L1046.89 97.883L1044.98 99.7979L1043.06 97.2447L1046.89 91.5Z" fill="white"/>
<path d="M1046.89 98.5212L1048.81 101.074L1046.89 100.436L1044.98 101.074L1046.89 98.5212Z" fill="white"/>
<path d="M1041.77 113.939L1037.58 117.527L1031.23 109.512L1034.73 106.523L1041.77 113.939Z" fill="white"/>
<path d="M1032.76 110.703L1030 107.735L1040.04 98.7952L1042.34 101.268L1032.76 110.703Z" fill="white"/>
<path d="M1050.92 113.877L1055.11 117.465L1061.45 109.45L1057.96 106.461L1050.92 113.877Z" fill="white"/>
<path d="M1059.93 110.641L1062.69 107.673L1052.65 98.7331L1050.35 101.206L1059.93 110.641Z" fill="white"/>
<path d="M1182.32 162.351H1201.47V179.585L1221.25 181.5H1201.47H1180.4L1182.32 162.351Z" fill="white"/>
<path d="M1186.15 131.713H1197.64L1188.7 162.989L1187 162.351L1185.51 136.819L1186.15 131.713Z" fill="white"/>
<path d="M1184.87 124.053H1198.91L1186.21 134.266L1184.87 124.053Z" fill="white"/>
<path d="M1182.32 113.84L1192.53 115.117L1201.47 113.84L1191.89 122.777L1185.51 125.968L1182.32 113.84Z" fill="white"/>
<path d="M1188.7 107.458L1191.89 106.181L1195.08 107.458C1195.08 107.458 1195.08 115.755 1191.89 115.755C1188.7 115.755 1188.7 107.458 1188.7 107.458Z" fill="white"/>
<path d="M1191.89 91.5L1195.72 97.2447L1193.81 99.7979L1191.89 97.883L1189.98 99.7979L1188.06 97.2447L1191.89 91.5Z" fill="white"/>
<path d="M1191.89 98.5212L1193.81 101.074L1191.89 100.436L1189.98 101.074L1191.89 98.5212Z" fill="white"/>
<path d="M1186.77 113.939L1182.58 117.527L1176.23 109.512L1179.73 106.523L1186.77 113.939Z" fill="white"/>
<path d="M1177.76 110.703L1175 107.735L1185.04 98.7952L1187.34 101.268L1177.76 110.703Z" fill="white"/>
<path d="M1195.92 113.877L1200.11 117.465L1206.45 109.45L1202.96 106.461L1195.92 113.877Z" fill="white"/>
<path d="M1204.93 110.641L1207.69 107.673L1197.65 98.7331L1195.35 101.206L1204.93 110.641Z" fill="white"/>
</svg>
