<svg width="1043" height="121" viewBox="0 0 1043 121" fill="none" xmlns="http://www.w3.org/2000/svg">
<path d="M204.22 116.785C203.02 116.785 201.46 116.705 199.54 116.545L199.708 112.153H201.052L201.436 114.841C202.06 114.937 202.7 115.025 203.356 115.105C204.028 115.169 204.58 115.201 205.012 115.201C205.108 115.201 205.236 115.097 205.396 114.889C205.556 114.681 205.7 114.433 205.828 114.145C205.956 113.841 206.02 113.553 206.02 113.281C206.02 112.657 205.788 112.137 205.324 111.721C204.876 111.305 204.18 110.833 203.236 110.305C202.484 109.873 201.876 109.489 201.412 109.153C200.948 108.817 200.548 108.393 200.212 107.881C199.892 107.369 199.732 106.777 199.732 106.105C199.732 105.657 199.772 105.241 199.852 104.857C200.044 104.505 200.404 104.097 200.932 103.633C201.46 103.169 202.004 102.769 202.564 102.433C203.124 102.081 203.54 101.905 203.812 101.905C203.94 101.905 204.884 101.993 206.644 102.169C206.836 102.185 207.036 102.201 207.244 102.217C207.452 102.233 207.66 102.257 207.868 102.289L207.7 106.441H206.356L205.996 103.993C205.484 103.897 204.876 103.809 204.172 103.729C203.484 103.633 202.964 103.585 202.612 103.585C202.404 103.585 202.228 103.729 202.084 104.017C201.94 104.289 201.868 104.721 201.868 105.313C201.868 105.953 202.092 106.489 202.54 106.921C202.988 107.353 203.652 107.817 204.532 108.313C205.396 108.809 206.06 109.225 206.524 109.561C207.004 109.881 207.42 110.297 207.772 110.809C208.124 111.321 208.3 111.937 208.3 112.657C208.3 113.057 208.252 113.449 208.156 113.833C207.964 114.233 207.612 114.665 207.1 115.129C206.588 115.593 206.052 115.985 205.492 116.305C204.948 116.625 204.524 116.785 204.22 116.785Z" fill="#015FC8"/>
<path d="M213.422 116.785C212.846 116.785 212.294 116.601 211.766 116.233C211.238 115.849 210.806 115.281 210.47 114.529C210.15 113.761 209.99 112.817 209.99 111.697C209.99 110.913 210.038 110.177 210.134 109.489C210.246 108.801 210.39 108.297 210.566 107.977C210.726 107.737 211.046 107.425 211.526 107.041C212.022 106.657 212.518 106.321 213.014 106.033C213.51 105.745 213.854 105.601 214.046 105.601C214.814 105.601 215.694 105.753 216.686 106.057L216.614 109.129H215.15L214.814 107.473C214.622 107.377 214.382 107.289 214.094 107.209C213.806 107.129 213.55 107.089 213.326 107.089C213.182 107.089 213.07 107.121 212.99 107.185C212.766 107.361 212.59 107.833 212.462 108.601C212.35 109.369 212.294 110.297 212.294 111.385C212.294 112.217 212.382 112.905 212.558 113.449C212.75 113.993 212.974 114.393 213.23 114.649C213.486 114.905 213.734 115.033 213.974 115.033H216.686V116.041C216.126 116.217 215.486 116.385 214.766 116.545C214.062 116.705 213.614 116.785 213.422 116.785Z" fill="#015FC8"/>
<path d="M219.944 116.785C219.864 116.785 219.68 116.657 219.392 116.401C219.12 116.145 218.984 115.977 218.984 115.897V107.137L218.144 106.873V105.985C219.36 105.745 220.04 105.625 220.184 105.625C220.28 105.625 220.464 105.745 220.736 105.985C221.008 106.225 221.144 106.401 221.144 106.513V115.273L221.984 115.513V116.401C220.768 116.657 220.088 116.785 219.944 116.785ZM218.84 101.185L220.688 101.065L221.048 101.593L220.928 103.681H219.008L218.84 101.185Z" fill="#015FC8"/>
<path d="M227.685 116.785C226.997 116.785 226.349 116.601 225.741 116.233C225.133 115.865 224.637 115.297 224.253 114.529C223.885 113.761 223.701 112.817 223.701 111.697C223.701 110.897 223.749 110.161 223.845 109.489C223.957 108.801 224.101 108.297 224.277 107.977C224.437 107.737 224.765 107.417 225.261 107.017C225.773 106.617 226.285 106.265 226.797 105.961C227.325 105.657 227.685 105.505 227.877 105.505C228.741 105.505 229.437 105.641 229.965 105.913C230.509 106.185 230.925 106.705 231.213 107.473C231.517 108.241 231.669 109.345 231.669 110.785L226.005 111.265C226.005 112.225 226.133 112.993 226.389 113.569C226.645 114.129 226.941 114.521 227.277 114.745C227.629 114.969 227.949 115.081 228.237 115.081L229.365 115.033L231.333 114.961V115.945C230.741 116.137 230.037 116.329 229.221 116.521C228.421 116.697 227.909 116.785 227.685 116.785ZM229.341 109.849C229.341 108.889 229.213 108.169 228.957 107.689C228.701 107.193 228.277 106.945 227.685 106.945C227.333 106.945 227.029 107.001 226.773 107.113C226.565 107.209 226.389 107.577 226.245 108.217C226.117 108.857 226.053 109.545 226.053 110.281L229.341 109.849Z" fill="#015FC8"/>
<path d="M234.988 116.785C234.908 116.785 234.748 116.673 234.508 116.449C234.284 116.225 234.172 116.073 234.172 115.993V107.233L233.332 106.873V105.985C234.644 105.745 235.372 105.625 235.516 105.625C235.596 105.625 235.74 105.737 235.948 105.961C236.172 106.169 236.284 106.313 236.284 106.393V107.305C236.764 106.953 237.276 106.585 237.82 106.201C238.38 105.817 238.692 105.625 238.756 105.625C239.908 105.625 240.772 105.929 241.348 106.537C241.924 107.129 242.212 108.169 242.212 109.657V115.153L243.052 115.513V116.401C241.724 116.657 240.996 116.785 240.868 116.785C240.788 116.785 240.628 116.673 240.388 116.449C240.148 116.225 240.028 116.073 240.028 115.993V109.657C240.028 108.665 239.884 108.041 239.596 107.785C239.308 107.529 238.988 107.401 238.636 107.401C238.46 107.401 238.06 107.545 237.436 107.833C236.828 108.105 236.468 108.265 236.356 108.313V115.153L237.172 115.513V116.401C235.86 116.657 235.132 116.785 234.988 116.785Z" fill="#015FC8"/>
<path d="M247.315 116.785C247.139 116.785 246.907 116.673 246.619 116.449C246.331 116.209 246.075 115.937 245.851 115.633C245.643 115.329 245.539 115.089 245.539 114.913V107.089H244.003V106.369L245.539 105.601L246.883 103.969C247.027 103.969 247.307 104.081 247.723 104.305V105.817H250.051V107.209H247.723V113.857C247.723 114.353 247.763 114.689 247.843 114.865C247.923 115.041 248.075 115.129 248.299 115.129L250.267 115.177V116.329C249.803 116.425 249.235 116.521 248.563 116.617C247.891 116.729 247.475 116.785 247.315 116.785Z" fill="#015FC8"/>
<path d="M253.225 116.785C253.145 116.785 252.961 116.657 252.673 116.401C252.401 116.145 252.265 115.977 252.265 115.897V107.137L251.425 106.873V105.985C252.641 105.745 253.321 105.625 253.465 105.625C253.561 105.625 253.745 105.745 254.017 105.985C254.289 106.225 254.425 106.401 254.425 106.513V115.273L255.265 115.513V116.401C254.049 116.657 253.369 116.785 253.225 116.785ZM252.121 101.185L253.969 101.065L254.329 101.593L254.209 103.681H252.289L252.121 101.185Z" fill="#015FC8"/>
<path d="M261.35 116.785C261.014 116.785 260.342 116.745 259.334 116.665C258.326 116.601 257.558 116.537 257.03 116.473L257.078 113.017L258.278 112.993L258.782 114.817C259.15 114.945 259.582 115.065 260.078 115.177C260.59 115.273 260.966 115.321 261.206 115.321C261.334 115.321 261.486 115.145 261.662 114.793C261.854 114.441 261.95 114.129 261.95 113.857C261.95 113.569 261.878 113.329 261.734 113.137C261.606 112.929 261.398 112.737 261.11 112.561C260.822 112.369 260.334 112.089 259.646 111.721C258.67 111.193 257.998 110.729 257.63 110.329C257.262 109.929 257.078 109.449 257.078 108.889C257.078 108.345 257.118 107.953 257.198 107.713C257.454 107.313 257.878 106.865 258.47 106.369C259.078 105.873 259.51 105.625 259.766 105.625C260.294 105.625 260.974 105.649 261.806 105.697C262.654 105.729 263.302 105.769 263.75 105.817L263.678 108.745H262.334L262.166 107.473C262.038 107.425 261.622 107.353 260.918 107.257C260.214 107.145 259.774 107.089 259.598 107.089C259.246 107.089 259.07 107.425 259.07 108.097C259.07 108.401 259.182 108.665 259.406 108.889C259.646 109.097 259.91 109.289 260.198 109.465C260.502 109.641 260.702 109.761 260.798 109.825L261.446 110.209C262.31 110.689 262.99 111.145 263.486 111.577C263.998 111.993 264.254 112.473 264.254 113.017C264.254 113.385 264.198 113.793 264.086 114.241C263.83 114.705 263.39 115.249 262.766 115.873C262.158 116.481 261.686 116.785 261.35 116.785Z" fill="#015FC8"/>
<path d="M268.221 116.785C268.045 116.785 267.813 116.673 267.525 116.449C267.237 116.209 266.981 115.937 266.757 115.633C266.549 115.329 266.445 115.089 266.445 114.913V107.089H264.909V106.369L266.445 105.601L267.789 103.969C267.933 103.969 268.213 104.081 268.629 104.305V105.817H270.957V107.209H268.629V113.857C268.629 114.353 268.669 114.689 268.749 114.865C268.829 115.041 268.981 115.129 269.205 115.129L271.173 115.177V116.329C270.709 116.425 270.141 116.521 269.469 116.617C268.797 116.729 268.381 116.785 268.221 116.785Z" fill="#015FC8"/>
<path fill-rule="evenodd" clip-rule="evenodd" d="M246.716 11.7158L235 0L223.284 11.7158H206.716V28.2843L195 40L206.716 51.7157V68.2843H223.284L235 80L246.716 68.2843H263.284V51.7157L275 40L263.284 28.2843V11.7158H246.716Z" fill="url(#paint0_linear)"/>
<path d="M220.559 16.337C227.639 19.4613 233.421 24.9002 235.723 31.8243C238.026 24.9002 243.574 19.4613 250.642 16.337H247.047C241.697 17.87 238.114 20.8574 236.382 25.4852C236.605 20.3072 238.199 17.6953 240.384 16.337H230.307C232.493 17.6953 234.09 20.3072 234.313 25.4852C232.581 20.8574 228.998 17.87 223.648 16.337H220.559H220.559ZM259.038 16.7504C257.383 39.4644 250.897 57.566 238.25 56.4165C242.381 60.3381 246.581 62.6198 250.415 63.5978L259.038 63.5976V60.3194C256.323 61.6834 253.779 61.7657 246.018 58.9831C252.842 59.0442 256.066 57.5542 259.038 53.8466V49.2663C256.973 52.539 253.172 55.2738 246.018 56.7676C252.453 53.2926 256.716 47.8298 259.038 38.785V16.7505L259.038 16.7504ZM211.971 21.6384V39.9473C214.353 48.3017 218.52 53.4441 224.674 56.7676C217.867 55.3464 214.099 52.801 211.971 49.7386V54.2257C214.86 57.6547 218.088 59.0421 224.674 58.9831C217.213 61.6583 214.575 61.6855 211.971 60.4717V63.5977H220.152C223.987 62.6198 228.186 60.3382 232.318 56.4164C220.593 57.4821 214.165 42.001 211.971 21.6383L211.971 21.6384ZM223.275 29.8326V47.3613L223.76 47.6256L234.903 53.6789L235.348 53.9181L235.789 53.6787L246.932 47.6255L247.42 47.3613V29.8326H245.561V46.2584L235.344 51.805L225.133 46.2584V29.8326H223.275H223.275ZM227.007 29.8513V44.9066L234.319 49.027V34.2824L227.007 29.8512L227.007 29.8513ZM243.685 29.8513L236.177 34.4035V49.1389L243.685 44.9066V29.8513Z" fill="white"/>
<path d="M0.601013 115.657L2.08901 115.177L5.92901 102.265C6.44101 102.185 6.95301 102.113 7.46501 102.049C7.99301 101.985 8.36101 101.945 8.56901 101.929C8.63301 101.929 8.76101 101.993 8.95301 102.121L12.865 115.177L14.353 115.657V116.569H8.85701V115.537L10.489 115.057L9.55301 111.721H5.08901L4.20101 115.057L5.90501 115.537V116.569H0.601013V115.657ZM9.19301 110.449L7.46501 104.017H7.17701L5.44901 110.449H9.19301Z" fill="#3F9401"/>
<path d="M16.7337 116.785C16.6537 116.785 16.5017 116.673 16.2777 116.449C16.0537 116.225 15.9417 116.073 15.9417 115.993V102.673L15.0777 102.337V101.449C16.4217 101.193 17.1657 101.065 17.3097 101.065C17.3897 101.065 17.5417 101.177 17.7657 101.401C17.9897 101.625 18.1017 101.777 18.1017 101.857V115.153L18.9177 115.513V116.401C17.6057 116.657 16.8777 116.785 16.7337 116.785Z" fill="#3F9401"/>
<path d="M24.0901 116.785C23.5141 116.785 22.9621 116.601 22.4341 116.233C21.9061 115.849 21.4741 115.281 21.1381 114.529C20.8181 113.761 20.6581 112.817 20.6581 111.697C20.6581 110.913 20.7061 110.177 20.8021 109.489C20.9141 108.801 21.0581 108.297 21.2341 107.977C21.3941 107.737 21.7141 107.425 22.1941 107.041C22.6901 106.657 23.1861 106.321 23.6821 106.033C24.1781 105.745 24.5221 105.601 24.7141 105.601C25.4821 105.601 26.3621 105.753 27.3541 106.057L27.2821 109.129H25.8181L25.4821 107.473C25.2901 107.377 25.0501 107.289 24.7621 107.209C24.4741 107.129 24.2181 107.089 23.9941 107.089C23.8501 107.089 23.7381 107.121 23.6581 107.185C23.4341 107.361 23.2581 107.833 23.1301 108.601C23.0181 109.369 22.9621 110.297 22.9621 111.385C22.9621 112.217 23.0501 112.905 23.2261 113.449C23.4181 113.993 23.6421 114.393 23.8981 114.649C24.1541 114.905 24.4021 115.033 24.6421 115.033H27.3541V116.041C26.7941 116.217 26.1541 116.385 25.4341 116.545C24.7301 116.705 24.2821 116.785 24.0901 116.785Z" fill="#3F9401"/>
<path d="M30.4441 116.785C30.3641 116.785 30.2121 116.673 29.9881 116.449C29.7641 116.225 29.6521 116.073 29.6521 115.993V102.673L28.8121 102.337V101.449C30.1241 101.193 30.8521 101.065 30.9961 101.065C31.0761 101.065 31.2361 101.177 31.4761 101.401C31.7161 101.625 31.8361 101.777 31.8361 101.857L31.7161 107.281L31.8361 107.305C33.3401 106.185 34.1401 105.625 34.2361 105.625C35.3881 105.625 36.2521 105.929 36.8281 106.537C37.4041 107.129 37.6921 108.169 37.6921 109.657V115.153L38.5321 115.513V116.401C37.2041 116.657 36.4681 116.785 36.3241 116.785C36.2441 116.785 36.0841 116.673 35.8441 116.449C35.6201 116.225 35.5081 116.073 35.5081 115.993V109.657C35.5081 108.665 35.3641 108.041 35.0761 107.785C34.8041 107.529 34.4841 107.401 34.1161 107.401C33.9561 107.401 33.1961 107.705 31.8361 108.313V115.153L32.6521 115.513V116.401C31.3241 116.657 30.5881 116.785 30.4441 116.785Z" fill="#3F9401"/>
<path d="M44.2593 116.785C43.5713 116.785 42.9233 116.601 42.3153 116.233C41.7073 115.865 41.2113 115.297 40.8273 114.529C40.4593 113.761 40.2753 112.817 40.2753 111.697C40.2753 110.897 40.3233 110.161 40.4193 109.489C40.5313 108.801 40.6753 108.297 40.8513 107.977C41.0113 107.737 41.3393 107.417 41.8353 107.017C42.3473 106.617 42.8593 106.265 43.3713 105.961C43.8993 105.657 44.2593 105.505 44.4513 105.505C45.3153 105.505 46.0113 105.641 46.5393 105.913C47.0833 106.185 47.4993 106.705 47.7873 107.473C48.0913 108.241 48.2433 109.345 48.2433 110.785L42.5793 111.265C42.5793 112.225 42.7073 112.993 42.9633 113.569C43.2193 114.129 43.5153 114.521 43.8513 114.745C44.2033 114.969 44.5233 115.081 44.8113 115.081L45.9393 115.033L47.9073 114.961V115.945C47.3153 116.137 46.6113 116.329 45.7953 116.521C44.9953 116.697 44.4833 116.785 44.2593 116.785ZM45.9153 109.849C45.9153 108.889 45.7873 108.169 45.5313 107.689C45.2753 107.193 44.8513 106.945 44.2593 106.945C43.9073 106.945 43.6033 107.001 43.3473 107.113C43.1393 107.209 42.9633 107.577 42.8193 108.217C42.6913 108.857 42.6273 109.545 42.6273 110.281L45.9153 109.849Z" fill="#3F9401"/>
<path d="M51.5618 116.785C51.4818 116.785 51.3218 116.673 51.0818 116.449C50.8578 116.225 50.7458 116.073 50.7458 115.993V107.233L49.9058 106.873V105.985C51.2178 105.745 51.9458 105.625 52.0898 105.625C52.1698 105.625 52.3138 105.737 52.5218 105.961C52.7458 106.169 52.8578 106.313 52.8578 106.393V107.305C53.2738 106.953 53.7218 106.585 54.2018 106.201C54.6818 105.817 54.9458 105.625 54.9938 105.625C55.7938 105.625 56.4578 105.753 56.9858 106.009C57.5298 106.265 57.9218 106.697 58.1618 107.305C58.5458 106.953 58.9618 106.585 59.4098 106.201C59.8578 105.817 60.1058 105.625 60.1538 105.625C61.4178 105.625 62.3698 105.929 63.0098 106.537C63.6498 107.129 63.9698 108.169 63.9698 109.657V115.153L64.7858 115.513V116.401C63.4738 116.657 62.7538 116.785 62.6258 116.785C62.5458 116.785 62.3858 116.673 62.1458 116.449C61.9058 116.225 61.7858 116.073 61.7858 115.993V109.657C61.7858 108.665 61.6258 108.041 61.3058 107.785C61.0018 107.529 60.6578 107.401 60.2738 107.401C60.1298 107.401 59.5218 107.705 58.4498 108.313V115.153L59.2658 115.513V116.401C57.9538 116.657 57.2338 116.785 57.1058 116.785C57.0258 116.785 56.8658 116.673 56.6258 116.449C56.3858 116.225 56.2658 116.073 56.2658 115.993V109.657C56.2658 108.665 56.1218 108.041 55.8338 107.785C55.5458 107.529 55.2258 107.401 54.8738 107.401C54.7138 107.401 54.0658 107.705 52.9298 108.313V115.153L53.7458 115.513V116.401C52.4338 116.657 51.7058 116.785 51.5618 116.785Z" fill="#3F9401"/>
<path d="M68.2527 116.785C68.1727 116.785 67.9887 116.657 67.7007 116.401C67.4287 116.145 67.2927 115.977 67.2927 115.897V107.137L66.4527 106.873V105.985C67.6687 105.745 68.3487 105.625 68.4927 105.625C68.5887 105.625 68.7727 105.745 69.0447 105.985C69.3167 106.225 69.4527 106.401 69.4527 106.513V115.273L70.2927 115.513V116.401C69.0767 116.657 68.3967 116.785 68.2527 116.785ZM67.1487 101.185L68.9967 101.065L69.3567 101.593L69.2367 103.681H67.3167L67.1487 101.185Z" fill="#3F9401"/>
<path d="M76.3776 116.785C76.0416 116.785 75.3696 116.745 74.3616 116.665C73.3536 116.601 72.5856 116.537 72.0576 116.473L72.1056 113.017L73.3056 112.993L73.8096 114.817C74.1776 114.945 74.6096 115.065 75.1056 115.177C75.6176 115.273 75.9936 115.321 76.2336 115.321C76.3616 115.321 76.5136 115.145 76.6896 114.793C76.8816 114.441 76.9776 114.129 76.9776 113.857C76.9776 113.569 76.9056 113.329 76.7616 113.137C76.6336 112.929 76.4256 112.737 76.1376 112.561C75.8496 112.369 75.3616 112.089 74.6736 111.721C73.6976 111.193 73.0256 110.729 72.6576 110.329C72.2896 109.929 72.1056 109.449 72.1056 108.889C72.1056 108.345 72.1456 107.953 72.2256 107.713C72.4816 107.313 72.9056 106.865 73.4976 106.369C74.1056 105.873 74.5376 105.625 74.7936 105.625C75.3216 105.625 76.0016 105.649 76.8336 105.697C77.6816 105.729 78.3296 105.769 78.7776 105.817L78.7056 108.745H77.3616L77.1936 107.473C77.0656 107.425 76.6496 107.353 75.9456 107.257C75.2416 107.145 74.8016 107.089 74.6256 107.089C74.2736 107.089 74.0976 107.425 74.0976 108.097C74.0976 108.401 74.2096 108.665 74.4336 108.889C74.6736 109.097 74.9376 109.289 75.2256 109.465C75.5296 109.641 75.7296 109.761 75.8256 109.825L76.4736 110.209C77.3376 110.689 78.0176 111.145 78.5136 111.577C79.0256 111.993 79.2816 112.473 79.2816 113.017C79.2816 113.385 79.2256 113.793 79.1136 114.241C78.8576 114.705 78.4176 115.249 77.7936 115.873C77.1856 116.481 76.7136 116.785 76.3776 116.785Z" fill="#3F9401"/>
<path d="M83.2484 116.785C83.0724 116.785 82.8404 116.673 82.5524 116.449C82.2644 116.209 82.0084 115.937 81.7844 115.633C81.5764 115.329 81.4724 115.089 81.4724 114.913V107.089H79.9364V106.369L81.4724 105.601L82.8164 103.969C82.9604 103.969 83.2404 104.081 83.6564 104.305V105.817H85.9844V107.209H83.6564V113.857C83.6564 114.353 83.6964 114.689 83.7764 114.865C83.8564 115.041 84.0084 115.129 84.2324 115.129L86.2004 115.177V116.329C85.7364 116.425 85.1684 116.521 84.4964 116.617C83.8244 116.729 83.4084 116.785 83.2484 116.785Z" fill="#3F9401"/>
<path fill-rule="evenodd" clip-rule="evenodd" d="M54.7157 11.7158L43 0L31.2842 11.7158H14.7157V28.2843L2.99997 40L14.7157 51.7157V68.2843H31.2843L43 80L54.7157 68.2843H71.2842V51.7157L83 40L71.2842 28.2843V11.7158H54.7157Z" fill="url(#paint1_linear)"/>
<path fill-rule="evenodd" clip-rule="evenodd" d="M19.9727 17.5441C19.9303 17.5433 19.8806 17.5519 19.8479 17.5605C19.8152 17.5692 19.797 17.5744 19.7699 17.5933C19.554 17.7444 19.5859 18.2207 19.9103 18.9373C20.2347 19.654 20.8543 20.6085 21.7816 21.7238C22.7087 22.8392 23.9423 24.1168 25.5398 25.3791C27.1374 26.6413 29.0975 27.8933 31.3565 29.0015C32.7894 29.7062 34.3396 30.3413 36.0037 30.8865C33.2316 33.1398 31.4723 36.6415 31.5437 40.4917C31.5939 43.2003 32.5354 45.6558 34.0856 47.5727C32.6556 47.7521 31.3028 48.0013 30.0622 48.3103C27.836 48.8649 25.9435 49.5678 24.4482 50.2772C22.953 50.9866 21.8532 51.6919 21.1578 52.2606C20.4636 52.8295 20.2004 53.2628 20.3313 53.4899C20.4622 53.717 20.9817 53.7417 21.8596 53.6047C22.7374 53.4676 23.9656 53.1739 25.4775 52.8671C26.9894 52.5602 28.7983 52.2357 30.8419 51.9983C32.8856 51.761 35.1693 51.6346 37.5943 51.7033C37.866 51.7109 38.1456 51.723 38.4208 51.736C36.5272 52.5224 34.8454 53.5524 33.4306 54.6373C31.9931 55.7397 30.8119 56.8865 29.9218 57.9483C29.0318 59.0101 28.4267 59.964 28.0661 60.6856C27.7067 61.4071 27.5958 61.9123 27.7386 62.0952C27.8815 62.2782 28.2605 62.1243 28.8459 61.7674C29.4312 61.4105 30.2242 60.8433 31.2162 60.1611C32.2082 59.4789 33.391 58.6847 34.7717 57.9319C36.1523 57.179 37.7332 56.4586 39.4501 55.8994C41.034 55.3811 42.7523 55.0292 44.5495 54.8667C46.6884 54.6733 48.7575 54.7722 50.6469 55.0798C52.2857 55.3492 53.7708 55.7671 55.1069 56.2272C55.6399 56.4108 56.1584 56.6097 56.6351 56.8009C57.1232 57.0578 57.6035 57.3145 58.0542 57.5713C59.6653 58.4888 61.0355 59.3734 62.1711 60.1447C63.3068 60.916 64.2194 61.558 64.9002 61.9641C65.4109 62.2687 65.7857 62.4529 66.0386 62.4559C66.1229 62.4566 66.1875 62.4443 66.2413 62.4067C66.4573 62.2556 66.394 61.7792 66.0698 61.0627C65.7456 60.3461 65.1567 59.3915 64.2296 58.2762C63.3025 57.1608 62.0534 55.8832 60.4558 54.6209C58.8584 53.3586 56.9138 52.1067 54.6547 50.9985C53.2218 50.2938 51.656 49.6588 49.9919 49.1135C52.7638 46.8602 54.5232 43.3585 54.4519 39.5083C54.4017 36.7996 53.4604 34.3442 51.9101 32.4273C53.3379 32.2476 54.6916 31.999 55.9334 31.6897C58.1596 31.1351 60.0366 30.4157 61.5318 29.7064C63.027 28.997 64.1269 28.2918 64.8223 27.723C65.5165 27.1541 65.8109 26.7208 65.6799 26.4937C65.5489 26.2666 65.014 26.2419 64.1361 26.3789C63.2582 26.516 62.0301 26.8097 60.5182 27.1165C59.0063 27.4234 57.2128 27.748 55.1693 27.9853C53.1257 28.2226 50.8263 28.3654 48.4013 28.2967C48.1297 28.2891 47.8657 28.2771 47.5904 28.2639C49.4841 27.4775 51.166 26.4475 52.5806 25.3627C54.0183 24.2602 55.1838 23.1134 56.0738 22.0516C56.9637 20.9898 57.5846 20.0359 57.9451 19.3143C58.3055 18.5927 58.4001 18.0876 58.257 17.9047C58.2216 17.859 58.1807 17.8286 58.1166 17.8227C57.9246 17.805 57.6044 17.9648 57.1654 18.2325C56.5799 18.5895 55.787 19.1566 54.795 19.8388C53.803 20.521 52.6046 21.3152 51.2239 22.068C49.8433 22.8209 48.2779 23.5413 46.5612 24.1005C44.9772 24.6188 43.2433 24.9707 41.4462 25.1332C39.307 25.3266 37.2539 25.2277 35.3644 24.9201C33.7256 24.6507 32.2249 24.2328 30.8888 23.7727C30.3557 23.5891 29.853 23.3902 29.3761 23.199C28.8881 22.9421 28.3922 22.6854 27.9414 22.4286C26.3305 21.5111 24.9603 20.6265 23.8245 19.8552C22.6887 19.084 21.7918 18.4419 21.1111 18.0358C20.6003 17.7312 20.2255 17.547 19.9727 17.5441L19.9727 17.5441ZM42.834 32.3781C43.0789 32.372 43.3332 32.3735 43.5826 32.3945C47.5726 32.7258 50.541 36.4126 50.2258 40.6065C49.9107 44.8004 46.4186 47.9368 42.4286 47.6055C38.4386 47.2743 35.4546 43.5874 35.7698 39.3936C36.0652 35.4618 39.1613 32.465 42.834 32.3781V32.3781ZM26.6471 36.2956C24.6999 36.2956 23.1227 37.9534 23.1227 40C23.1227 42.0467 24.6999 43.7044 26.6471 43.7044C28.5942 43.7044 30.187 42.0467 30.187 40C30.187 37.9534 28.5941 36.2956 26.6471 36.2956ZM59.3641 36.2956C57.417 36.2956 55.8398 37.9534 55.8398 40C55.8398 42.0467 57.417 43.7044 59.3641 43.7044C61.3113 43.7044 62.8885 42.0467 62.8885 40C62.8885 37.9534 61.3113 36.2956 59.3641 36.2956Z" fill="white"/>
<path d="M396.643 115.737C396.579 115.737 396.451 115.673 396.259 115.545L393.091 102.489L391.603 102.009V101.097H396.811V102.129L395.443 102.609L397.123 110.025C397.267 110.697 397.499 111.809 397.819 113.361H398.083C398.147 113.073 398.291 112.529 398.515 111.729C398.739 110.929 398.923 110.265 399.067 109.737C399.659 107.641 400.107 106.009 400.411 104.841L399.835 102.489L398.539 101.937V101.097H403.747V102.201L402.187 102.609L403.699 110.025C403.843 110.697 404.075 111.809 404.395 113.361H404.659L405.523 109.713C406.483 105.713 407.043 103.345 407.203 102.609L405.475 102.129V101.097H410.779V102.009L409.291 102.489L407.683 108.681L405.931 115.401C405.419 115.481 404.899 115.553 404.371 115.617C403.859 115.681 403.499 115.721 403.291 115.737C403.227 115.737 403.099 115.673 402.907 115.545L401.347 108.561H401.131L399.283 115.401C398.771 115.481 398.251 115.553 397.723 115.617C397.211 115.681 396.851 115.721 396.643 115.737Z" fill="#BE1C19"/>
<path d="M414.722 115.785C414.066 115.785 413.45 115.601 412.874 115.233C412.314 114.849 411.858 114.265 411.506 113.481C411.154 112.697 410.978 111.721 410.978 110.553C410.978 109.801 411.026 109.105 411.122 108.465C411.234 107.809 411.378 107.313 411.554 106.977C411.81 106.609 412.378 106.121 413.258 105.513C414.154 104.905 414.746 104.601 415.034 104.601C415.354 104.601 416.754 104.785 419.234 105.153V114.177L420.05 114.513V115.401C418.786 115.657 418.082 115.785 417.938 115.785C417.874 115.785 417.722 115.673 417.482 115.449C417.242 115.225 417.122 115.073 417.122 114.993V114.057C417.026 114.137 416.626 114.449 415.922 114.993C415.218 115.521 414.818 115.785 414.722 115.785ZM414.866 114.009C415.042 114.009 415.77 113.689 417.05 113.049V106.449C416.65 106.321 416.13 106.209 415.49 106.113C414.85 106.001 414.418 105.961 414.194 105.993C413.89 106.041 413.658 106.385 413.498 107.025C413.354 107.665 413.282 108.785 413.282 110.385C413.282 111.201 413.37 111.881 413.546 112.425C413.738 112.969 413.954 113.369 414.194 113.625C414.45 113.881 414.674 114.009 414.866 114.009Z" fill="#BE1C19"/>
<path d="M423.296 115.785C423.216 115.785 423.056 115.673 422.816 115.449C422.592 115.225 422.48 115.073 422.48 114.993V106.161L421.64 105.873V104.985C422.856 104.745 423.536 104.625 423.68 104.625C423.76 104.625 423.936 104.753 424.208 105.009C424.496 105.265 424.64 105.425 424.64 105.489L424.592 106.329C425.744 105.113 426.368 104.505 426.464 104.505C426.72 104.505 427.256 104.633 428.072 104.889C428.12 105.001 428.152 105.129 428.168 105.273C428.2 105.417 428.216 105.537 428.216 105.633C428.216 105.729 428.12 105.953 427.928 106.305C427.752 106.657 427.632 106.849 427.568 106.881C427.04 106.673 426.616 106.569 426.296 106.569C426.088 106.569 425.544 106.825 424.664 107.337V114.057L425.888 114.417V115.401C424.304 115.657 423.44 115.785 423.296 115.785Z" fill="#BE1C19"/>
<path d="M430.726 115.785C430.646 115.785 430.494 115.673 430.27 115.449C430.046 115.225 429.934 115.073 429.934 114.993V101.673L429.07 101.337V100.449C430.414 100.193 431.158 100.065 431.302 100.065C431.382 100.065 431.534 100.177 431.758 100.401C431.982 100.625 432.094 100.777 432.094 100.857V114.153L432.91 114.513V115.401C431.598 115.657 430.87 115.785 430.726 115.785Z" fill="#BE1C19"/>
<path d="M439.642 115.785C437.978 115.785 436.73 115.361 435.898 114.513C435.066 113.665 434.65 112.345 434.65 110.553C434.65 109.817 434.698 109.121 434.794 108.465C434.906 107.793 435.05 107.297 435.226 106.977C435.386 106.737 435.714 106.417 436.21 106.017C436.722 105.617 437.234 105.265 437.746 104.961C438.258 104.657 438.61 104.505 438.802 104.505C440.418 104.505 441.634 104.945 442.45 105.825C443.282 106.689 443.698 107.945 443.698 109.593C443.698 110.361 443.642 111.081 443.53 111.753C443.434 112.425 443.314 112.977 443.17 113.409C442.914 113.761 442.33 114.249 441.418 114.873C440.522 115.481 439.93 115.785 439.642 115.785ZM439.762 114.417C439.874 114.385 440.282 114.185 440.986 113.817C441.258 112.617 441.394 111.313 441.394 109.905C441.394 108.657 441.162 107.681 440.698 106.977C440.25 106.273 439.578 105.921 438.682 105.921C438.282 105.921 437.962 105.985 437.722 106.113C437.498 106.241 437.314 106.665 437.17 107.385C437.026 108.105 436.954 109.049 436.954 110.217C436.954 111.785 437.218 112.881 437.746 113.505C438.29 114.113 438.962 114.417 439.762 114.417Z" fill="#BE1C19"/>
<path d="M447.085 115.785C447.005 115.785 446.845 115.673 446.605 115.449C446.381 115.225 446.269 115.073 446.269 114.993V106.161L445.429 105.873V104.985C446.645 104.745 447.325 104.625 447.469 104.625C447.549 104.625 447.725 104.753 447.997 105.009C448.285 105.265 448.429 105.425 448.429 105.489L448.381 106.329C449.533 105.113 450.157 104.505 450.253 104.505C450.509 104.505 451.045 104.633 451.861 104.889C451.909 105.001 451.941 105.129 451.957 105.273C451.989 105.417 452.005 105.537 452.005 105.633C452.005 105.729 451.909 105.953 451.717 106.305C451.541 106.657 451.421 106.849 451.357 106.881C450.829 106.673 450.405 106.569 450.085 106.569C449.877 106.569 449.333 106.825 448.453 107.337V114.057L449.677 114.417V115.401C448.093 115.657 447.229 115.785 447.085 115.785Z" fill="#BE1C19"/>
<path d="M456.465 115.785C455.825 115.785 455.217 115.601 454.641 115.233C454.081 114.849 453.617 114.281 453.249 113.529C452.897 112.761 452.721 111.817 452.721 110.697C452.721 109.881 452.769 109.145 452.865 108.489C452.977 107.833 453.121 107.329 453.297 106.977C453.553 106.609 454.121 106.121 455.001 105.513C455.897 104.905 456.489 104.601 456.777 104.601C457.033 104.601 457.745 104.689 458.913 104.865V101.673L458.073 101.337V100.449C459.401 100.193 460.129 100.065 460.257 100.065C460.337 100.065 460.497 100.177 460.737 100.401C460.977 100.625 461.097 100.777 461.097 100.857L460.977 105.321V114.177L461.793 114.513V115.401C460.529 115.657 459.825 115.785 459.681 115.785C459.617 115.785 459.465 115.673 459.225 115.449C458.985 115.225 458.865 115.073 458.865 114.993V114.057L458.145 114.609C457.105 115.393 456.545 115.785 456.465 115.785ZM456.609 114.009C456.753 114.009 457.481 113.689 458.793 113.049V106.449C458.345 106.321 457.809 106.209 457.185 106.113C456.561 106.001 456.145 105.961 455.937 105.993C455.633 106.041 455.401 106.385 455.241 107.025C455.097 107.665 455.025 108.785 455.025 110.385C455.025 111.201 455.113 111.881 455.289 112.425C455.481 112.969 455.697 113.369 455.937 113.625C456.193 113.881 456.417 114.009 456.609 114.009Z" fill="#BE1C19"/>
<path fill-rule="evenodd" clip-rule="evenodd" d="M438.716 11.7158L427 0L415.284 11.7158H398.716V28.2843L387 40L398.716 51.7157V68.2843H415.284L427 80L438.716 68.2843H455.284V51.7157L467 40L455.284 28.2843V11.7158H438.716Z" fill="url(#paint2_linear)"/>
<path d="M414.458 17.1355L414.353 23.0142C423.086 26.1743 431.755 26.1618 440.495 23.1668L440.389 17.1901C431.724 19.4085 423.064 19.0525 414.458 17.1354V17.1355ZM414.319 24.9724L413.989 43.5335L421.217 37.0492L427.423 57.6426L433.629 37.0492L440.857 43.5335L440.53 25.1165C439.962 25.3024 439.395 25.4777 438.827 25.6397L433.759 32.6945L429.256 27.2125C428.073 27.2632 426.889 27.2604 425.705 27.2036L421.194 32.6945L416.074 25.5664L416.101 25.5473C415.506 25.3701 414.912 25.1776 414.319 24.9726V24.9724ZM418.87 26.2716L421.293 29.6455L423.443 27.029C421.918 26.867 420.393 26.6148 418.87 26.2715L418.87 26.2716ZM436.037 26.3375C434.535 26.6601 433.032 26.8978 431.528 27.0492L433.661 29.6455L436.037 26.3375H436.037ZM419.775 45.7392L410.08 58.2914L418.476 63.6584L419.775 45.7392ZM434.302 45.7392L435.6 63.6584L443.997 58.2913L434.302 45.7391V45.7392Z" fill="white"/>
<path d="M590.457 115.657L591.945 115.177V103.489L590.457 103.009V102.097H595.761V103.129L594.177 103.609V115.057L595.761 115.537V116.569H590.457V115.657ZM599.697 116.569C599.649 116.505 599.033 115.609 597.849 113.881C596.297 111.625 595.313 110.185 594.897 109.561V108.889L598.569 103.609L597.009 103.129V102.097H602.313V103.009L600.825 103.489L596.913 108.889C597.569 109.801 598.417 110.945 599.457 112.321C600.513 113.697 601.273 114.649 601.737 115.177L602.937 115.561V116.569H599.697Z" fill="#D2A501"/>
<path d="M604.835 116.785C604.755 116.785 604.595 116.673 604.355 116.449C604.131 116.225 604.019 116.073 604.019 115.993V107.233L603.179 106.873V105.985C604.491 105.745 605.219 105.625 605.363 105.625C605.443 105.625 605.587 105.737 605.795 105.961C606.019 106.169 606.131 106.313 606.131 106.393V107.305C606.611 106.953 607.123 106.585 607.667 106.201C608.227 105.817 608.539 105.625 608.603 105.625C609.755 105.625 610.619 105.929 611.195 106.537C611.771 107.129 612.059 108.169 612.059 109.657V115.153L612.899 115.513V116.401C611.571 116.657 610.843 116.785 610.715 116.785C610.635 116.785 610.475 116.673 610.235 116.449C609.995 116.225 609.875 116.073 609.875 115.993V109.657C609.875 108.665 609.731 108.041 609.443 107.785C609.155 107.529 608.835 107.401 608.483 107.401C608.307 107.401 607.907 107.545 607.283 107.833C606.675 108.105 606.315 108.265 606.203 108.313V115.153L607.019 115.513V116.401C605.707 116.657 604.979 116.785 604.835 116.785Z" fill="#D2A501"/>
<path d="M616.346 116.785C616.266 116.785 616.082 116.657 615.794 116.401C615.522 116.145 615.386 115.977 615.386 115.897V107.137L614.546 106.873V105.985C615.762 105.745 616.442 105.625 616.586 105.625C616.682 105.625 616.866 105.745 617.138 105.985C617.41 106.225 617.546 106.401 617.546 106.513V115.273L618.386 115.513V116.401C617.17 116.657 616.49 116.785 616.346 116.785ZM615.242 101.185L617.09 101.065L617.45 101.593L617.33 103.681H615.41L615.242 101.185Z" fill="#D2A501"/>
<path d="M624.711 120.913C624.151 120.913 623.319 120.841 622.215 120.697C621.127 120.553 620.319 120.417 619.791 120.289L620.007 118.537L622.983 115.849C622.551 115.849 622.111 115.657 621.663 115.273C621.231 114.889 620.871 114.337 620.583 113.617C620.295 112.897 620.151 112.049 620.151 111.073C620.151 110.561 620.191 110.009 620.271 109.417C620.367 108.809 620.495 108.329 620.655 107.977C620.911 107.625 621.487 107.145 622.383 106.537C623.295 105.913 623.895 105.601 624.183 105.601C624.343 105.601 624.903 105.673 625.863 105.817C626.839 105.961 627.599 106.073 628.143 106.153V117.073C628.143 117.569 627.927 118.113 627.495 118.705C627.079 119.313 626.591 119.833 626.031 120.265C625.487 120.697 625.047 120.913 624.711 120.913ZM624.207 114.745C624.367 114.745 624.951 114.393 625.959 113.689V107.449C625.623 107.337 625.215 107.233 624.735 107.137C624.255 107.041 623.887 106.993 623.631 106.993C623.503 106.993 623.423 107.001 623.391 107.017C622.751 107.241 622.431 108.601 622.431 111.097C622.431 111.961 622.535 112.673 622.743 113.233C622.951 113.777 623.191 114.169 623.463 114.409C623.751 114.633 623.999 114.745 624.207 114.745ZM625.431 119.809C625.607 119.809 625.751 119.425 625.863 118.657C625.975 117.889 626.031 117.073 626.031 116.209V115.009L625.911 114.961C625.031 115.761 623.959 116.761 622.695 117.961C622.327 118.329 621.999 118.641 621.711 118.897V119.041C621.967 119.153 622.567 119.305 623.511 119.497C624.471 119.705 625.111 119.809 625.431 119.809Z" fill="#D2A501"/>
<path d="M631.905 116.785C631.825 116.785 631.673 116.673 631.449 116.449C631.225 116.225 631.113 116.073 631.113 115.993V102.673L630.273 102.337V101.449C631.585 101.193 632.313 101.065 632.457 101.065C632.537 101.065 632.697 101.177 632.937 101.401C633.177 101.625 633.297 101.777 633.297 101.857L633.177 107.281L633.297 107.305C634.801 106.185 635.601 105.625 635.697 105.625C636.849 105.625 637.713 105.929 638.289 106.537C638.865 107.129 639.153 108.169 639.153 109.657V115.153L639.993 115.513V116.401C638.665 116.657 637.929 116.785 637.785 116.785C637.705 116.785 637.545 116.673 637.305 116.449C637.081 116.225 636.969 116.073 636.969 115.993V109.657C636.969 108.665 636.825 108.041 636.537 107.785C636.265 107.529 635.945 107.401 635.577 107.401C635.417 107.401 634.657 107.705 633.297 108.313V115.153L634.113 115.513V116.401C632.785 116.657 632.049 116.785 631.905 116.785Z" fill="#D2A501"/>
<path d="M644.256 116.785C644.08 116.785 643.848 116.673 643.56 116.449C643.272 116.209 643.016 115.937 642.792 115.633C642.584 115.329 642.48 115.089 642.48 114.913V107.089H640.944V106.369L642.48 105.601L643.824 103.969C643.968 103.969 644.248 104.081 644.664 104.305V105.817H646.992V107.209H644.664V113.857C644.664 114.353 644.704 114.689 644.784 114.865C644.864 115.041 645.016 115.129 645.24 115.129L647.208 115.177V116.329C646.744 116.425 646.176 116.521 645.504 116.617C644.832 116.729 644.416 116.785 644.256 116.785Z" fill="#D2A501"/>
<path fill-rule="evenodd" clip-rule="evenodd" d="M630.716 11.7158L619 0L607.284 11.7158H590.716V28.2843L579 40L590.716 51.7157V68.2843H607.284L619 80L630.716 68.2843H647.284V51.7157L659 40L647.284 28.2843V11.7158H630.716Z" fill="url(#paint3_linear)"/>
<path d="M615.696 20.9838C615.838 20.9837 615.979 21.0025 616.116 21.0395C616.956 21.2672 617.496 22.1482 617.565 23.2271L615.001 23.8237L617.178 25.2019C616.688 26.243 615.819 26.9222 614.957 26.9222C614.815 26.9223 614.674 26.9036 614.537 26.8665C613.375 26.5523 612.788 24.9921 613.224 23.3862C613.609 21.9682 614.659 20.9838 615.696 20.9838ZM613.679 20.0451C613.961 19.8511 614.268 19.6956 614.592 19.5828C614.048 19.1621 613.392 18.7057 613.011 18.6152C610.246 17.9639 610.192 22.0369 608.13 20.1416C609.798 23.1804 611.646 18.9304 613.679 20.0461V20.0451ZM619.048 31.5361C618.408 30.1201 616.741 29.4919 615.325 30.134L617.646 35.26C619.063 34.6198 619.692 32.952 619.05 31.5361H619.048ZM612.135 35.0164L609.976 34.3541L603.916 37.4366L604.628 38.8357L612.135 35.0164ZM615.107 28.5122H614.955C614.673 28.5124 614.392 28.4754 614.119 28.4018C613.584 28.2548 613.096 27.9731 612.7 27.5834L610.762 32.9312L615.504 34.3859L614.442 32.0402L613.05 31.7777L614.014 31.0816L613.217 29.3405C613.217 29.3405 614.959 28.5619 615.107 28.5122ZM601.916 42.7317C595.481 38.1397 606.093 33.0545 597.238 32.2043C603.131 34.8463 592.323 36.66 596.219 41.9203C596.963 42.9256 599.675 44.4012 601.155 45.1579C601.276 44.3134 601.534 43.4945 601.92 42.7337L601.916 42.7317ZM615.121 36.4413L615.35 36.0018L614.327 35.6885L609.364 38.2132L616.191 40.8453L611.384 44.8318L615.424 47.4718L614.778 45.0923L619.293 40.2199L615.121 36.4413ZM616.486 28.2875C616.973 28.2878 617.456 28.369 617.917 28.5281L622.072 26.418C620.904 26.187 619.717 26.0701 618.526 26.069C617.961 27.1628 617.099 27.9583 616.123 28.3073C616.243 28.2984 616.365 28.2914 616.486 28.2914V28.2875ZM634.583 40.6544H634.171C633.637 40.6544 633.041 40.6335 632.404 40.5918L633.663 42.3816L636.148 41.6528C636.148 41.6528 636.036 41.2003 635.876 40.5361C635.448 40.611 635.014 40.6519 634.579 40.6584L634.583 40.6544ZM620.765 36.0435C622.141 33.7674 625.414 29.4081 630.311 29.4081C631.98 29.4081 633.84 29.9152 635.879 31.1841L634.785 33.1559L634.806 35.3365C634.763 35.6597 635.144 37.4247 635.51 39.0058C634.849 39.1201 633.223 39.1052 631.216 38.9063L630.652 38.1009C629.045 37.1513 627.793 36.5338 627.793 36.5338C627.793 36.5338 627.883 37.3064 627.914 38.4459C625.621 38.0303 623.256 37.3849 621.467 36.4443C621.226 36.3224 620.992 36.1886 620.765 36.0435ZM632.707 34.2159C632.707 34.6811 633.269 34.9139 633.598 34.585C633.927 34.2562 633.694 33.6938 633.229 33.6938C633.09 33.6938 632.958 33.7488 632.86 33.8467C632.762 33.9446 632.707 34.0774 632.707 34.2159H632.707ZM619.518 29.5006C619.906 29.8679 620.224 30.3029 620.455 30.7843L642.651 18.5138V17.5791L619.518 29.5006ZM627.092 44.8258C627.653 43.3621 627.855 41.5861 627.907 40.0528C626.254 39.7735 624.625 39.3662 623.035 38.8347C621.989 38.488 620.985 38.0275 620.04 37.4615L621.41 47.0731L608.583 48.7774L607.549 40.1214C607.126 40.2974 606.709 40.4834 606.303 40.6823C600.455 43.5341 603.373 50.2461 603.373 50.2461L600.887 55.1394L603.881 60.5438V62.4142H607.252L605.687 60.1441L604.247 54.9167L609.107 50.3028C611.88 50.4281 619.293 49.1603 622.483 48.6124L630.736 49.0648L633.011 51.9773L631.336 53.2252L634.274 54.6074L635.206 52.7728L633.294 47.8726L627.092 44.8258ZM621.999 31.7876L620.874 32.3564C620.892 32.6008 620.89 32.8463 620.867 33.0903C621.211 32.6607 621.586 32.2202 621.999 31.7876ZM625.15 54.849L624.653 50.3306L622.575 50.2173C621.959 50.3227 621.272 50.438 620.543 50.5583L622.677 55.3055L624.435 60.7307L624.372 62.4212H627.521L626.562 60.6482L625.15 54.849ZM611.191 56.7831L614.849 51.4314C612.728 51.7247 609.747 51.9355 609.731 51.9355L610.022 52.6923L608.123 56.8557L612.797 61.2379V62.4062H615.646L614.517 61.1215L611.191 56.7831Z" fill="white"/>
<path d="M787.715 119.521C787.491 119.521 786.971 119.401 786.155 119.161L785.315 118.945V117.817C786.835 117.817 787.715 117.793 787.955 117.745C788.467 117.649 788.723 116.697 788.723 114.889V103.489L787.163 103.009V102.097H792.515V103.009L790.955 103.489V115.657C790.955 116.121 790.739 116.649 790.307 117.241C789.891 117.849 789.419 118.377 788.891 118.825C788.363 119.289 787.971 119.521 787.715 119.521Z" fill="#4B31A1"/>
<path d="M798.341 116.785C797.653 116.785 797.005 116.601 796.397 116.233C795.789 115.865 795.293 115.297 794.909 114.529C794.541 113.761 794.357 112.817 794.357 111.697C794.357 110.897 794.405 110.161 794.501 109.489C794.613 108.801 794.757 108.297 794.933 107.977C795.093 107.737 795.421 107.417 795.917 107.017C796.429 106.617 796.941 106.265 797.453 105.961C797.981 105.657 798.341 105.505 798.533 105.505C799.397 105.505 800.093 105.641 800.621 105.913C801.165 106.185 801.581 106.705 801.869 107.473C802.173 108.241 802.325 109.345 802.325 110.785L796.661 111.265C796.661 112.225 796.789 112.993 797.045 113.569C797.301 114.129 797.597 114.521 797.933 114.745C798.285 114.969 798.605 115.081 798.893 115.081L800.021 115.033L801.989 114.961V115.945C801.397 116.137 800.693 116.329 799.877 116.521C799.077 116.697 798.565 116.785 798.341 116.785ZM799.997 109.849C799.997 108.889 799.869 108.169 799.613 107.689C799.357 107.193 798.933 106.945 798.341 106.945C797.989 106.945 797.685 107.001 797.429 107.113C797.221 107.209 797.045 107.577 796.901 108.217C796.773 108.857 796.709 109.545 796.709 110.281L799.997 109.849Z" fill="#4B31A1"/>
<path d="M808.452 116.785C808.116 116.785 807.444 116.745 806.436 116.665C805.428 116.601 804.66 116.537 804.132 116.473L804.18 113.017L805.38 112.993L805.884 114.817C806.252 114.945 806.684 115.065 807.18 115.177C807.692 115.273 808.068 115.321 808.308 115.321C808.436 115.321 808.588 115.145 808.764 114.793C808.956 114.441 809.052 114.129 809.052 113.857C809.052 113.569 808.98 113.329 808.836 113.137C808.708 112.929 808.5 112.737 808.212 112.561C807.924 112.369 807.436 112.089 806.748 111.721C805.772 111.193 805.1 110.729 804.732 110.329C804.364 109.929 804.18 109.449 804.18 108.889C804.18 108.345 804.22 107.953 804.3 107.713C804.556 107.313 804.98 106.865 805.572 106.369C806.18 105.873 806.612 105.625 806.868 105.625C807.396 105.625 808.076 105.649 808.908 105.697C809.756 105.729 810.404 105.769 810.852 105.817L810.78 108.745H809.436L809.268 107.473C809.14 107.425 808.724 107.353 808.02 107.257C807.316 107.145 806.876 107.089 806.7 107.089C806.348 107.089 806.172 107.425 806.172 108.097C806.172 108.401 806.284 108.665 806.508 108.889C806.748 109.097 807.012 109.289 807.3 109.465C807.604 109.641 807.804 109.761 807.9 109.825L808.548 110.209C809.412 110.689 810.092 111.145 810.588 111.577C811.1 111.993 811.356 112.473 811.356 113.017C811.356 113.385 811.3 113.793 811.188 114.241C810.932 114.705 810.492 115.249 809.868 115.873C809.26 116.481 808.788 116.785 808.452 116.785Z" fill="#4B31A1"/>
<path d="M815.323 116.785C815.147 116.785 814.915 116.673 814.627 116.449C814.339 116.209 814.083 115.937 813.859 115.633C813.651 115.329 813.547 115.089 813.547 114.913V107.089H812.011V106.369L813.547 105.601L814.891 103.969C815.035 103.969 815.315 104.081 815.731 104.305V105.817H818.059V107.209H815.731V113.857C815.731 114.353 815.771 114.689 815.851 114.865C815.931 115.041 816.083 115.129 816.307 115.129L818.275 115.177V116.329C817.811 116.425 817.243 116.521 816.571 116.617C815.899 116.729 815.483 116.785 815.323 116.785Z" fill="#4B31A1"/>
<path d="M823.513 116.785C822.825 116.785 822.177 116.601 821.569 116.233C820.961 115.865 820.465 115.297 820.081 114.529C819.713 113.761 819.529 112.817 819.529 111.697C819.529 110.897 819.577 110.161 819.673 109.489C819.785 108.801 819.929 108.297 820.105 107.977C820.265 107.737 820.593 107.417 821.089 107.017C821.601 106.617 822.113 106.265 822.625 105.961C823.153 105.657 823.513 105.505 823.705 105.505C824.569 105.505 825.265 105.641 825.793 105.913C826.337 106.185 826.753 106.705 827.041 107.473C827.345 108.241 827.497 109.345 827.497 110.785L821.833 111.265C821.833 112.225 821.961 112.993 822.217 113.569C822.473 114.129 822.769 114.521 823.105 114.745C823.457 114.969 823.777 115.081 824.065 115.081L825.193 115.033L827.161 114.961V115.945C826.569 116.137 825.865 116.329 825.049 116.521C824.249 116.697 823.737 116.785 823.513 116.785ZM825.169 109.849C825.169 108.889 825.041 108.169 824.785 107.689C824.529 107.193 824.105 106.945 823.513 106.945C823.161 106.945 822.857 107.001 822.601 107.113C822.393 107.209 822.217 107.577 822.073 108.217C821.945 108.857 821.881 109.545 821.881 110.281L825.169 109.849Z" fill="#4B31A1"/>
<path d="M830.816 116.785C830.736 116.785 830.576 116.673 830.336 116.449C830.112 116.225 830 116.073 830 115.993V107.161L829.16 106.873V105.985C830.376 105.745 831.056 105.625 831.2 105.625C831.28 105.625 831.456 105.753 831.728 106.009C832.016 106.265 832.16 106.425 832.16 106.489L832.112 107.329C833.264 106.113 833.888 105.505 833.984 105.505C834.24 105.505 834.776 105.633 835.592 105.889C835.64 106.001 835.672 106.129 835.688 106.273C835.72 106.417 835.736 106.537 835.736 106.633C835.736 106.729 835.64 106.953 835.448 107.305C835.272 107.657 835.152 107.849 835.088 107.881C834.56 107.673 834.136 107.569 833.816 107.569C833.608 107.569 833.064 107.825 832.184 108.337V115.057L833.408 115.417V116.401C831.824 116.657 830.96 116.785 830.816 116.785Z" fill="#4B31A1"/>
<path fill-rule="evenodd" clip-rule="evenodd" d="M782.716 28.2843L771 40L782.716 51.7157V68.2844H799.284L811 80L822.716 68.2844H839.284V51.7157L851 40L839.284 28.2843V11.7158H822.716L811 0L799.284 11.7158H782.716V28.2843Z" fill="url(#paint4_linear)"/>
<path d="M827.19 17.5895C825.084 20.2017 822.246 22.659 818.824 24.634C815.167 26.7445 811.36 27.9771 807.855 28.4186C808.059 29.0214 808.284 29.6267 808.533 30.2333C810.125 30.2608 811.453 30.1901 812.153 30.0841L813.095 29.932L813.933 29.8047L813.955 30.8176C813.938 31.4313 813.902 32.0516 813.846 32.679L819.477 33.5583C819.562 33.5489 819.647 33.5434 819.732 33.5427C820.844 33.5314 821.864 34.2676 822.165 35.3916C822.23 35.635 822.257 35.8791 822.249 36.1187C822.843 35.9124 823.418 35.6907 823.967 35.4505L824.921 35.0341L825.151 36.0503C825.498 37.5725 825.751 39.1712 825.885 40.8295C829.126 39.1883 832.124 36.9881 834.567 34.183C834.246 30.5307 832.96 26.423 830.676 22.4681C830.603 22.3416 830.53 22.2169 830.455 22.0922L827.715 29.1894C828.227 29.2652 828.721 29.5034 829.116 29.898C830.092 30.8732 830.092 32.4525 829.116 33.428C828.14 34.4035 826.558 34.4032 825.583 33.428C824.702 32.5472 824.62 31.1728 825.331 30.1963L829.203 20.1687C828.562 19.2558 827.889 18.3957 827.19 17.5896V17.5895ZM790.699 26.3494C789.858 28.0769 789.132 29.9488 788.592 31.9612C787.19 37.1933 787.204 42.271 788.313 46.2242C789.635 45.9652 790.942 45.8305 792.222 45.8235C792.406 45.8223 792.589 45.8255 792.772 45.8295C794.846 45.8772 796.847 46.2602 798.735 46.973C798.628 45.8637 798.57 44.7283 798.57 43.5705C798.57 40.8061 798.882 38.1634 799.465 35.7212L799.711 34.6864L800.671 35.14C803.601 36.5301 807.253 37.4692 811.239 37.6478C811.75 35.6541 812.053 33.6922 812.175 31.8059C808.675 32.2862 804.678 32.0809 800.599 30.9885C796.785 29.9671 793.409 28.3256 790.699 26.3492L790.699 26.3494ZM813.629 34.5249C813.476 35.5642 813.269 36.616 813.01 37.6757C814.589 37.6565 816.121 37.5172 817.584 37.281C817.479 37.098 817.396 36.9009 817.339 36.6875C817.194 36.1474 817.239 35.6012 817.432 35.1184L813.629 34.5248V34.5249ZM795.985 34.5683L796.398 36.3801L794.251 36.8678C795.121 37.3823 795.579 38.4293 795.304 39.4532C794.974 40.6856 793.709 41.4178 792.477 41.0877C791.244 40.7576 790.512 39.4893 790.842 38.2567C790.909 38.0065 791.017 37.7775 791.153 37.5732L789.059 38.0485L788.648 36.237L795.985 34.5684L795.985 34.5683ZM834.626 36.8368C832.087 39.3684 829.126 41.3557 825.984 42.8527C825.989 43.0911 825.993 43.33 825.993 43.5705C825.993 44.4841 825.958 45.3834 825.891 46.2677C827.545 46.3999 829.077 46.0986 830.4 45.3356C832.978 43.8478 834.438 40.7919 834.626 36.8367L834.626 36.8368ZM800.932 37.1351C800.531 39.1231 800.303 41.2428 800.295 43.4586L800.307 43.4246C803.347 44.4362 806.534 45.1719 809.779 45.55L810.525 45.637L810.596 46.3828L811.161 52.3615L809.309 52.5355L809.058 49.8755C808.606 50.062 808.091 50.1082 807.582 49.9718C806.349 49.6417 805.617 48.3766 805.947 47.1442C805.976 47.0388 806.012 46.9374 806.053 46.8396C804.11 46.469 802.201 45.9853 800.345 45.3948C800.612 50.3289 801.951 54.7459 803.934 57.9891C806.158 61.6273 809.117 63.7346 812.283 63.7346C815.449 63.7349 818.409 61.6275 820.633 57.9891C822.576 54.8111 823.899 50.5071 824.203 45.6931C822.635 46.1562 821.032 46.5435 819.405 46.8522C819.596 47.3066 819.646 47.8247 819.508 48.3376C819.178 49.57 817.913 50.3022 816.68 49.972C816.608 49.9526 816.538 49.9295 816.469 49.9038L816.22 52.5359L814.371 52.3617L814.937 46.383L815.009 45.6372L815.754 45.5502C818.662 45.2115 821.521 44.584 824.272 43.7294V43.5708C824.272 41.4257 824.046 39.3716 823.669 37.4306C820.46 38.6729 816.677 39.4034 812.622 39.4034C808.288 39.4034 804.271 38.5425 800.932 37.135V37.1351ZM792.231 47.6722C791.15 47.6824 790.044 47.7935 788.913 48.0017C790.175 51.1459 792.206 53.2788 794.779 53.9679C796.46 54.4176 798.249 54.22 800.031 53.4458C799.595 52.0646 799.248 50.6013 799.002 49.0736C796.903 48.1167 794.634 47.6497 792.231 47.6721V47.6722ZM805.904 55.6491H818.911C814.926 60.0833 809.701 59.9093 805.904 55.6491Z" fill="white"/>
<path d="M973.352 114.657L974.84 114.177V102.489L973.352 102.009V101.097H978.656V102.129L977.072 102.609V107.481H982.52V102.609L980.936 102.129V101.097H986.24V102.009L984.752 102.489V114.177L986.24 114.657V115.569H980.936V114.537L982.52 114.057V108.753H977.072V114.057L978.656 114.537V115.569H973.352V114.657Z" fill="#D35B01"/>
<path d="M992.29 115.785C991.138 115.785 990.274 115.489 989.698 114.897C989.122 114.289 988.834 113.233 988.834 111.729V106.233L988.018 105.873V104.985C989.33 104.745 990.05 104.625 990.178 104.625C990.258 104.625 990.418 104.737 990.658 104.961C990.898 105.185 991.018 105.329 991.018 105.393V111.729C991.018 112.721 991.162 113.353 991.45 113.625C991.738 113.881 992.058 114.009 992.41 114.009C992.57 114.009 993.298 113.705 994.594 113.097V106.233L993.778 105.873V104.985C995.09 104.745 995.818 104.625 995.962 104.625C996.042 104.625 996.194 104.737 996.418 104.961C996.658 105.185 996.778 105.329 996.778 105.393V114.153L997.594 114.513V115.401C996.298 115.657 995.578 115.785 995.434 115.785C995.354 115.785 995.202 115.673 994.978 115.449C994.77 115.225 994.666 115.073 994.666 114.993V114.081C994.218 114.433 993.722 114.809 993.178 115.209C992.634 115.593 992.338 115.785 992.29 115.785Z" fill="#D35B01"/>
<path d="M1000.88 115.785C1000.8 115.785 1000.64 115.673 1000.4 115.449C1000.17 115.225 1000.06 115.073 1000.06 114.993V106.233L999.222 105.873V104.985C1000.53 104.745 1001.26 104.625 1001.41 104.625C1001.49 104.625 1001.63 104.737 1001.84 104.961C1002.06 105.169 1002.17 105.313 1002.17 105.393V106.305C1002.65 105.953 1003.17 105.585 1003.71 105.201C1004.27 104.817 1004.58 104.625 1004.65 104.625C1005.8 104.625 1006.66 104.929 1007.24 105.537C1007.81 106.129 1008.1 107.169 1008.1 108.657V114.153L1008.94 114.513V115.401C1007.61 115.657 1006.89 115.785 1006.76 115.785C1006.68 115.785 1006.52 115.673 1006.28 115.449C1006.04 115.225 1005.92 115.073 1005.92 114.993V108.657C1005.92 107.665 1005.77 107.041 1005.49 106.785C1005.2 106.529 1004.88 106.401 1004.53 106.401C1004.35 106.401 1003.95 106.545 1003.33 106.833C1002.72 107.105 1002.36 107.265 1002.25 107.313V114.153L1003.06 114.513V115.401C1001.75 115.657 1001.02 115.785 1000.88 115.785Z" fill="#D35B01"/>
<path d="M1013.21 115.785C1013.03 115.785 1012.8 115.673 1012.51 115.449C1012.22 115.209 1011.97 114.937 1011.74 114.633C1011.53 114.329 1011.43 114.089 1011.43 113.913V106.089H1009.89V105.369L1011.43 104.601L1012.77 102.969C1012.92 102.969 1013.2 103.081 1013.61 103.305V104.817H1015.94V106.209H1013.61V112.857C1013.61 113.353 1013.65 113.689 1013.73 113.865C1013.81 114.041 1013.97 114.129 1014.19 114.129L1016.16 114.177V115.329C1015.69 115.425 1015.13 115.521 1014.45 115.617C1013.78 115.729 1013.37 115.785 1013.21 115.785Z" fill="#D35B01"/>
<path d="M1021.4 115.785C1020.71 115.785 1020.06 115.601 1019.45 115.233C1018.84 114.865 1018.35 114.297 1017.96 113.529C1017.6 112.761 1017.41 111.817 1017.41 110.697C1017.41 109.897 1017.46 109.161 1017.56 108.489C1017.67 107.801 1017.81 107.297 1017.99 106.977C1018.15 106.737 1018.48 106.417 1018.97 106.017C1019.48 105.617 1020 105.265 1020.51 104.961C1021.04 104.657 1021.4 104.505 1021.59 104.505C1022.45 104.505 1023.15 104.641 1023.68 104.913C1024.22 105.185 1024.64 105.705 1024.92 106.473C1025.23 107.241 1025.38 108.345 1025.38 109.785L1019.72 110.265C1019.72 111.225 1019.84 111.993 1020.1 112.569C1020.36 113.129 1020.65 113.521 1020.99 113.745C1021.34 113.969 1021.66 114.081 1021.95 114.081L1023.08 114.033L1025.04 113.961V114.945C1024.45 115.137 1023.75 115.329 1022.93 115.521C1022.13 115.697 1021.62 115.785 1021.4 115.785ZM1023.05 108.849C1023.05 107.889 1022.92 107.169 1022.67 106.689C1022.41 106.193 1021.99 105.945 1021.4 105.945C1021.04 105.945 1020.74 106.001 1020.48 106.113C1020.28 106.209 1020.1 106.577 1019.96 107.217C1019.83 107.857 1019.76 108.545 1019.76 109.281L1023.05 108.849Z" fill="#D35B01"/>
<path d="M1028.7 115.785C1028.62 115.785 1028.46 115.673 1028.22 115.449C1027.99 115.225 1027.88 115.073 1027.88 114.993V106.161L1027.04 105.873V104.985C1028.26 104.745 1028.94 104.625 1029.08 104.625C1029.16 104.625 1029.34 104.753 1029.61 105.009C1029.9 105.265 1030.04 105.425 1030.04 105.489L1029.99 106.329C1031.15 105.113 1031.77 104.505 1031.87 104.505C1032.12 104.505 1032.66 104.633 1033.47 104.889C1033.52 105.001 1033.55 105.129 1033.57 105.273C1033.6 105.417 1033.62 105.537 1033.62 105.633C1033.62 105.729 1033.52 105.953 1033.33 106.305C1033.15 106.657 1033.03 106.849 1032.97 106.881C1032.44 106.673 1032.02 106.569 1031.7 106.569C1031.49 106.569 1030.95 106.825 1030.07 107.337V114.057L1031.29 114.417V115.401C1029.71 115.657 1028.84 115.785 1028.7 115.785Z" fill="#D35B01"/>
<path fill-rule="evenodd" clip-rule="evenodd" d="M1014.72 11.7158L1003 0L991.284 11.7158H974.716V28.2843L963 40L974.716 51.7157V68.2843H991.284L1003 80L1014.72 68.2843H1031.28V51.7157L1043 40L1031.28 28.2843V11.7158H1014.72Z" fill="url(#paint5_linear)"/>
<path d="M986.894 16.3152L986.818 23.4415L979.733 23.4768L988.236 29.8756L991.014 28.9725L1018.61 56.5699L1014.65 57.4992L1026.44 63.089L1020.85 51.2961L1019.93 55.2555L992.344 27.6747L993.293 24.8182L986.894 16.3154L986.894 16.3152ZM995.188 16.3614L1016.72 45.2444L1005.47 16.3614H995.188ZM1007.47 16.3614L1020.39 49.5395L1016.48 16.3614H1007.47ZM1018.35 16.3614L1021.74 45.1751L1026.84 16.3614H1018.35H1018.35ZM979.63 31.8903V42.1777L1009.05 53.8271L979.63 31.8903ZM979.63 44.1764V53.1811L1013.03 57.3997L979.63 44.1764ZM979.63 55.0541V63.542L1007.63 58.5909L979.63 55.0542V55.0541Z" fill="white"/>
<defs>
<linearGradient id="paint0_linear" x1="235" y1="0" x2="235" y2="80" gradientUnits="userSpaceOnUse">
<stop stop-color="#0096FF"/>
<stop offset="1" stop-color="#0059C2"/>
</linearGradient>
<linearGradient id="paint1_linear" x1="43" y1="0" x2="43" y2="80" gradientUnits="userSpaceOnUse">
<stop stop-color="#3FB100"/>
<stop offset="1" stop-color="#3F8E00"/>
</linearGradient>
<linearGradient id="paint2_linear" x1="427" y1="6.05892" x2="427" y2="80.3051" gradientUnits="userSpaceOnUse">
<stop stop-color="#FF4B3C"/>
<stop offset="1" stop-color="#B11212"/>
</linearGradient>
<linearGradient id="paint3_linear" x1="619" y1="0" x2="619" y2="80" gradientUnits="userSpaceOnUse">
<stop stop-color="#FFC800"/>
<stop offset="1" stop-color="#CCA000"/>
</linearGradient>
<linearGradient id="paint4_linear" x1="811" y1="0" x2="811" y2="80" gradientUnits="userSpaceOnUse">
<stop stop-color="#6341D5"/>
<stop offset="1" stop-color="#472F99"/>
</linearGradient>
<linearGradient id="paint5_linear" x1="1003" y1="0" x2="1003" y2="80" gradientUnits="userSpaceOnUse">
<stop stop-color="#FD8900"/>
<stop offset="1" stop-color="#CF5700"/>
</linearGradient>
</defs>
</svg>
