<?xml version="1.0" encoding="UTF-8"?>
<svg width="28px" height="28px" viewBox="0 0 28 28" version="1.1" xmlns="http://www.w3.org/2000/svg" xmlns:xlink="http://www.w3.org/1999/xlink">
    <!-- Generator: Sketch 49 (51002) - http://www.bohemiancoding.com/sketch -->
    <title>calendar</title>
    <desc>Created with Sketch.</desc>
    <defs>
        <path d="M7,22 L21,22 L21,11 L7,11 L7,22 Z M18,4 L18,6 L10,6 L10,4 L8,4 L8,6 L7,6 C5.895,6 5.01,6.895 5.01,8 L5,22 C5,23.105 5.895,24 7,24 L21,24 C22.105,24 23,23.105 23,22 L23,8 C23,6.895 22.105,6 21,6 L20,6 L20,4 L18,4 Z M14,20 L19,20 L19,15 L14,15 L14,20 Z" id="path-1"></path>
    </defs>
    <g id="calendar" stroke="none" stroke-width="1" fill="none" fill-rule="evenodd">
        <rect id="container" fill-opacity="0" fill="#FFFFFF" x="0" y="0" width="28" height="28"></rect>
        <mask id="mask-2" fill="white">
            <use xlink:href="#path-1"></use>
        </mask>
        <use id="Page-1" fill-opacity="0.870000005" fill="#000000" xlink:href="#path-1"></use>
    </g>
</svg>