<?xml version="1.0" encoding="UTF-8"?>
<svg width="28px" height="28px" viewBox="0 0 28 28" version="1.1" xmlns="http://www.w3.org/2000/svg" xmlns:xlink="http://www.w3.org/1999/xlink">
    <!-- Generator: Sketch 49 (51002) - http://www.bohemiancoding.com/sketch -->
    <title>settings</title>
    <desc>Created with Sketch.</desc>
    <defs>
        <path d="M14,10.667 C12.165,10.667 10.667,12.165 10.667,14 C10.667,15.836 12.165,17.334 14,17.334 C15.835,17.334 17.333,15.836 17.333,14 C17.333,12.165 15.835,10.667 14,10.667 Z M24,15.472 C24,15.667 23.844,15.901 23.635,15.94 L21.227,16.305 C21.084,16.723 20.927,17.112 20.718,17.489 C21.162,18.127 21.631,18.701 22.111,19.287 C22.191,19.378 22.242,19.496 22.242,19.612 C22.242,19.73 22.202,19.82 22.125,19.912 C21.813,20.329 20.055,22.243 19.611,22.243 C19.496,22.243 19.378,22.191 19.273,22.125 L17.476,20.718 C17.1,20.914 16.695,21.085 16.291,21.214 C16.2,22.009 16.122,22.854 15.914,23.636 C15.862,23.845 15.68,24 15.445,24 L12.555,24 C12.32,24 12.111,23.832 12.086,23.609 L11.722,21.214 C11.318,21.085 10.927,20.927 10.549,20.731 L8.713,22.125 C8.622,22.203 8.504,22.243 8.389,22.243 C8.271,22.243 8.153,22.191 8.063,22.1 C7.373,21.474 6.46,20.667 5.914,19.912 C5.849,19.82 5.822,19.716 5.822,19.612 C5.822,19.496 5.862,19.405 5.927,19.313 C6.369,18.714 6.851,18.141 7.293,17.529 C7.073,17.112 6.891,16.683 6.76,16.24 L4.378,15.889 C4.156,15.85 4,15.641 4,15.42 L4,12.529 C4,12.334 4.156,12.1 4.351,12.061 L6.773,11.696 C6.904,11.278 7.073,10.889 7.282,10.498 C6.838,9.874 6.369,9.287 5.889,8.701 C5.809,8.609 5.758,8.505 5.758,8.389 C5.758,8.271 5.809,8.181 5.875,8.089 C6.187,7.658 7.945,5.758 8.389,5.758 C8.504,5.758 8.622,5.81 8.727,5.889 L10.524,7.283 C10.9,7.087 11.305,6.916 11.709,6.787 C11.8,5.992 11.878,5.147 12.086,4.365 C12.138,4.156 12.32,4 12.555,4 L15.445,4 C15.68,4 15.889,4.169 15.914,4.392 L16.278,6.787 C16.682,6.916 17.073,7.074 17.451,7.269 L19.3,5.876 C19.378,5.798 19.496,5.758 19.611,5.758 C19.729,5.758 19.847,5.81 19.937,5.889 C20.627,6.527 21.54,7.334 22.086,8.103 C22.151,8.181 22.178,8.285 22.178,8.389 C22.178,8.505 22.138,8.596 22.073,8.688 C21.631,9.287 21.149,9.86 20.707,10.472 C20.927,10.889 21.109,11.318 21.24,11.747 L23.622,12.112 C23.844,12.151 24,12.36 24,12.581 L24,15.472 Z" id="path-1"></path>
    </defs>
    <g id="settings" stroke="none" stroke-width="1" fill="none" fill-rule="evenodd">
        <mask id="mask-2" fill="white">
            <use xlink:href="#path-1"></use>
        </mask>
        <use id="Mask" fill-opacity="0.87" fill="#000000" xlink:href="#path-1"></use>
    </g>
</svg>