<svg width="1466" height="984" viewBox="0 0 1466 984" fill="none" xmlns="http://www.w3.org/2000/svg">
<path fill-rule="evenodd" clip-rule="evenodd" d="M807.85 168.033C852.256 152.851 867.258 137 867.258 137C867.258 137 915.433 85 732.699 85C674.779 85 640.422 91.1834 620.26 99.2866L621.401 100.336L615.416 101.394C614.408 101.869 613.443 102.35 612.519 102.834L614.942 105.063L606.237 106.602C586.476 120.252 594.106 135.57 594.78 136.923L594.78 136.923C594.798 136.958 594.811 136.984 594.818 137C598.004 143.805 619.397 157.787 660.85 170.282C638.958 159.79 623.441 149.03 623.441 149.03C623.441 149.03 601.05 118 732.761 118C790.379 118 819.042 122.908 832.668 128.819L841 127.945L839.204 132.496C849.851 140.578 839.447 149.03 839.447 149.03C839.447 149.03 826.664 158.308 807.85 168.033Z" fill="white"/>
<rect x="1150.01" y="580.676" width="5" height="320.313" transform="rotate(47.837 1150.01 580.676)" fill="black"/>
<rect width="5" height="320.313" transform="matrix(-0.795347 0.606154 0.606154 0.795347 360.301 527.461)" fill="black"/>
<path d="M731 208L619 199.5L349 317V357L391 431L484 404L450 750L644 869L901 823L856 454V431C920.551 437.189 985.183 440.927 1050 443L1057 345L874 218L731 208Z" fill="black"/>
<rect x="644" y="281" width="176" height="616" fill="black"/>
<path d="M1345 647L808 897V831L1345 647Z" fill="black"/>
<path d="M135 635L660 897L654 814L135 635Z" fill="black"/>
<path d="M773.277 130C773.277 130 761.534 189 732.909 189C704.284 189 691.545 130 691.545 130C691.545 130 683.073 71 732.909 71C787.73 71 773.277 130 773.277 130Z" fill="white"/>
<ellipse opacity="0.45" cx="775" cy="157" rx="13" ry="20" fill="black" fill-opacity="0.54"/>
<ellipse opacity="0.45" cx="693" cy="155" rx="14" ry="20" fill="black" fill-opacity="0.54"/>
<path d="M1212.33 283.925L1201.61 322.374L1180.5 354C1180.5 354 1160.2 349.833 1154 337.5C1139.53 308.711 1182.75 279.376 1196.5 259.39L1223 251.89L1212.33 283.925Z" fill="black"/>
<path d="M1203 369L1255.34 336.179L1242.47 289.712L1217.68 300.994C1217.68 300.994 1200.78 295.249 1188.42 300.603C1178.33 304.974 1162 336.179 1162 336.179L1203 369Z" fill="url(#paint0_linear)"/>
<path d="M1216.5 351.5L1260 319.5L1260 310.5L1270 302L1264.83 279.885C1264.83 279.885 1236.14 269.81 1216.5 351.5Z" fill="black"/>
<path d="M1245 180.39L1267.5 155.39L1315.5 202.39L1288.5 194.89L1267.5 202.39L1245 180.39Z" fill="black"/>
<path d="M1011.2 432.26L1047.5 446L1071 414L1162 367L1173 372.39L1185 351.89C1185 351.89 1159.5 351.89 1159.5 329.832C1158.03 315.078 1179 282.89 1179 282.89L1168 282.89L1148 312.5L1035.55 338.109L987.426 329.832L971.98 355.355L1035.72 377.707L1011.2 432.26Z" fill="#1B1B1B"/>
<path d="M1310.5 28.3896C1310.5 28.3896 1322.07 27.3485 1328 30.8896C1333.37 34.0962 1338 43.3896 1338 43.3896L1111.33 605.641L1080.73 726.485L1066.5 743.484L1042.91 733.567L1075.79 623.884L1310.5 28.3896Z" fill="black"/>
<path d="M1048.18 331.39C1048.18 331.39 1041.92 344.2 1049.7 368.805C1057.49 393.409 1073.98 409.979 1073.98 409.979" stroke="white" stroke-opacity="0.14" stroke-width="4" stroke-linecap="round"/>
<path d="M1146.5 313C1139 331 1139.5 349.5 1160.04 365.811" stroke="white" stroke-opacity="0.14" stroke-width="4" stroke-linecap="round"/>
<path d="M1042 442.39L1018 429.39L1042 374.39L979 350.39L989 330.39" stroke="white" stroke-opacity="0.14" stroke-width="4"/>
<path fill-rule="evenodd" clip-rule="evenodd" d="M1118.03 337.906C1114.22 339.609 1110.39 341.985 1106.83 344.851C1103.27 347.718 1100.07 351 1097.48 354.445C1094.88 357.889 1092.97 361.406 1091.87 364.725C1090.78 368.043 1090.54 371.076 1091.17 373.59C1091.8 376.104 1093.28 378.032 1095.5 379.228C1097.73 380.423 1100.63 380.853 1104 380.486C1107.36 380.118 1111.09 378.963 1114.91 377.107C1118.73 375.252 1122.52 372.746 1126.01 369.782L1114.81 385.45L1084.2 406.268C1084.2 406.268 1110.29 388.526 1097.93 392.108C1092.85 392.664 1088.45 392.013 1085.09 390.205C1081.72 388.397 1079.48 385.481 1078.53 381.678C1077.58 377.876 1077.94 373.29 1079.59 368.271C1081.25 363.252 1084.15 357.933 1088.07 352.723C1091.99 347.513 1096.83 342.55 1102.22 338.215C1090.86 340.011 1067 332.384 1067 332.384L1118.03 337.906Z" fill="#4A4A4A"/>
<path d="M1294.94 280.89L1437.5 158.89L1414.5 12.8896L1341.14 65.2583L1330.14 61.7584L1309.14 40.2583L1294.94 53.2583L1246 177.89L1262 173L1289.95 191.876L1294.94 195.258L1294.94 280.89Z" fill="#232323"/>
<path fill-rule="evenodd" clip-rule="evenodd" d="M1354.6 266.158L1294.94 319V195.258L1289.95 191.876L1264.95 168.376L1245.12 180.637L1294.94 53.2582L1309.14 40.2583L1330.14 61.7583L1341.14 65.2582L1431.14 0.25824L1465.14 168.258L1364.13 257.722L1362.67 254.18L1354.6 266.158Z" fill="url(#paint1_linear)"/>
<path d="M1215.84 239.842L1190.07 263.065L1226.44 256.965L1250.11 255.429L1239.5 244.39L1215.84 239.842Z" fill="url(#paint2_linear)"/>
<path d="M1243.73 257.235L1256.9 261.509L1256.59 268.289L1242.76 278.099L1219.44 281.366L1190.87 279.724L1243.73 257.235Z" fill="url(#paint3_linear)"/>
<path d="M1256.89 256.371L1271.58 271.649L1272.48 279.511L1256.7 292.6L1245.32 272.289L1256.89 256.371Z" fill="url(#paint4_linear)"/>
<path d="M1262.79 261.486L1268.28 271.092L1263.95 275.939L1249.46 276.4L1236.61 255.406L1262.79 261.486Z" fill="url(#paint5_linear)"/>
<path d="M1225.73 262.235L1238.9 266.509L1238.59 273.289L1224.76 283.099L1201.44 286.366L1172.87 284.724L1225.73 262.235Z" fill="#3C3C3C"/>
<path d="M1238.89 261.371L1253.58 276.649L1254.48 284.511L1238.7 297.6L1227.32 277.289L1238.89 261.371Z" fill="black"/>
<path d="M1244.79 266.486L1250.28 276.092L1245.95 280.939L1231.46 281.4L1218.61 260.406L1244.79 266.486Z" fill="url(#paint6_linear)"/>
<path d="M1219.87 284.799L1233.05 289.072L1232.73 295.853L1218.9 305.663L1195.58 308.93L1183 301.89L1219.87 284.799Z" fill="#3C3C3C"/>
<path d="M1233.89 288.371L1248.59 303.649L1249.48 311.511L1233.7 324.601L1222.32 304.289L1233.89 288.371Z" fill="black"/>
<path d="M1239.79 293.486L1245.28 303.093L1240.95 307.939L1226.46 308.4L1213.61 287.406L1239.79 293.486Z" fill="url(#paint7_linear)"/>
<path d="M1204.49 312.982L1217.66 317.255L1217.35 324.036L1203.52 333.846L1180.2 337.112L1172.26 328.136L1204.49 312.982Z" fill="#3C3C3C"/>
<path d="M1217.65 312.117L1232.34 327.395L1233.24 335.257L1217.46 348.347L1206.08 328.036L1217.65 312.117Z" fill="url(#paint8_linear)"/>
<path d="M1223.54 317.233L1229.04 326.839L1224.71 331.686L1210.22 332.146L1197.36 311.152L1223.54 317.233Z" fill="url(#paint9_linear)"/>
<path d="M830.877 282.943C834.616 318.749 823 416 763 416C632 416 616.319 334.504 612.269 295.715C608.219 256.926 658.127 220.546 715.471 214.558C772.815 208.571 827.139 247.138 830.877 282.943Z" fill="url(#paint10_linear)"/>
<path d="M836.046 431.811L726.873 466L624.298 443.872C672 431.811 704.527 385.331 763 382C821.472 378.669 836.046 431.811 836.046 431.811Z" fill="#1D1D1D"/>
<path d="M830.877 282.943C834.616 318.749 773 375 773 375C773 375 618.05 328.789 614 290C609.949 251.211 649.942 214.558 715.471 214.558C781 214.558 827.139 247.138 830.877 282.943Z" fill="url(#paint11_linear)"/>
<path d="M840.507 461.367C840.507 461.367 807.032 410.387 763.971 409.154C720.91 407.92 672.576 456.556 672.576 456.556C723.181 497.666 806.01 546.519 840.507 461.367Z" fill="black" fill-opacity="0.87"/>
<path d="M899.274 320.01C903.11 318.405 911.525 254.952 913.536 247.335C913.536 247.335 898.541 215.276 882.809 207.588C874.982 203.763 866.38 201.79 857.668 201.822C848.957 201.853 840.369 203.888 832.57 207.77C824.771 211.651 817.969 217.274 812.69 224.205L854.444 256.004L899.274 320.01Z" fill="#2D2D2D"/>
<path d="M832.111 312.304C836.247 312.727 873.965 261.012 879.372 255.283C879.372 255.283 881.523 219.956 871.377 205.684C866.33 198.583 871.378 181.833 871.378 181.833C871.378 181.833 835.867 182.151 827.161 181.833C818.455 181.514 809.793 183.203 801.844 186.768L823.322 234.656L832.111 312.304Z" fill="#1D1D1D"/>
<path d="M808.999 297.5C813.143 297.826 835.397 263.118 840.668 257.263L840.668 196C840.668 196 802.291 185.261 786.749 185.058C778.038 184.944 763.862 207.25 755.999 211L805.999 227L808.999 297.5Z" fill="#2D2D2D"/>
<path opacity="0.2" d="M767 299L661 219.053L729.095 190L804 219.053L767 299Z" fill="white" fill-opacity="0.5"/>
<path d="M762 284L677 222L733.666 199L796 222L762 284Z" fill="black"/>
<path d="M771 474.5C795.756 468.53 835 487 835 487L819.149 501L844 578L810.5 695.5L777.5 628C777.5 628 712.673 488.567 771 474.5Z" fill="url(#paint12_linear)"/>
<path d="M624.019 491.457C624.019 491.457 646.184 472 716 472L672.977 491.457L679 578.5L679 583L681.431 601.521L646.184 691.179L619 854C619 854 640.036 728 573 625C583.922 600.933 611 569 611 569L633.544 503L624.019 491.457Z" fill="url(#paint13_linear)"/>
<path d="M810.666 514.631L785.818 483.819L771.066 617.043L782.922 719.108L777.37 885.534L826.254 874.461L823.586 717.253L810.048 615.264L810.048 556.5L807 534.5L810.048 534.5L810.666 514.631Z" fill="url(#paint14_linear)"/>
<path d="M690.223 506.454L713.121 476.878L715.616 613.278L690.072 712.804L673.077 878.453L623.529 870.06L650.032 705.469L677.232 606.246L690.223 506.454Z" fill="url(#paint15_linear)"/>
<path d="M779.181 485.401L756.81 463.58L719.771 479.849L716.5 527L722 527L716.5 530L708.297 714.366L672.532 877.836L747.039 891.3L771.687 631.33L775 520L771.687 515L776.5 513.5L779.181 485.401Z" fill="url(#paint16_linear)"/>
<path d="M559.922 328.492C556.417 327.351 535.917 256.987 532.831 249.345C532.831 249.345 540.732 211.503 553.947 200.759C560.521 195.414 568.169 192.029 576.3 190.866C584.43 189.702 592.826 190.792 600.836 194.051C608.846 197.31 616.257 202.651 622.495 209.659L589.588 250.892L559.922 328.492Z" fill="#343434"/>
<path d="M625.154 316.609C621.951 317.492 575.708 264.495 570.257 259.471C570.257 259.471 561.548 220.34 568.302 203.016C571.662 194.398 568.302 170.315 568.302 170.315C568.302 170.315 596.955 171.868 605.014 170.315C613.073 168.763 621.472 169.456 629.562 172.341L618.617 228.741L625.154 316.609Z" fill="#1D1D1D"/>
<path d="M676.675 310.291C673.703 312.03 619.722 271.337 613.475 267.699C613.475 267.699 597.897 231.084 601.176 212.139C602.807 202.714 606.286 194.029 611.344 186.757C616.402 179.485 622.904 173.82 630.346 170.201C697 170.201 688.708 211.359 697 212.139L654.181 224.716L676.675 310.291Z" fill="#2D2D2D"/>
<path d="M745.218 134.689C746.179 133.531 746.993 130.634 746.993 130.634C746.993 130.634 743.841 122.338 739.235 121.581C734.6 122.14 731.094 130.293 731.094 130.293C731.094 130.293 731.783 133.222 732.693 134.42L739.063 129.579L745.218 134.689Z" fill="#484848" fill-opacity="0.87"/>
<path d="M791 169.487C791 169.487 738 201 732 201C726 201 676 168.647 676 168.647C676 168.647 712.961 151 734.5 151C756.039 151 791 169.487 791 169.487Z" fill="black"/>
<rect x="715.073" y="144" width="11" height="11" transform="rotate(33.5093 715.073 144)" fill="black"/>
<rect x="697.076" y="151" width="11" height="11" transform="rotate(21.7527 697.076 151)" fill="black"/>
<rect x="761" y="155.072" width="11" height="11" transform="rotate(-21.7293 761 155.072)" fill="black"/>
<rect x="745" y="149.73" width="11" height="11" transform="rotate(-25.4666 745 149.73)" fill="black"/>
<rect x="733.584" y="142" width="11" height="11" transform="rotate(43.5908 733.584 142)" fill="black"/>
<path d="M559 205.5L596.095 271.509L563.095 308.509L580.132 267.509L559 205.5Z" fill="black"/>
<path d="M617.5 220.5L651.297 286.086L631 308.5L637 278.5L617.5 220.5Z" fill="black"/>
<path d="M818 280.5L859 222.5L832.5 280.5L832.5 312L818 280.5Z" fill="black"/>
<path d="M897 221C1085 241 852.987 278.002 820 284C828 311 776.5 341 776.5 341C776.5 341 700 329 635 277C564 277 390 180 546 205" stroke="black" stroke-width="4"/>
<path d="M627 320C642.976 358.899 736.575 362.624 774.5 376C798 356 821.068 344.829 836 313" stroke="black" stroke-width="4"/>
<path d="M666.488 78.1564L697.441 139.524L706.26 197.715L678.464 145.837L666.488 78.1564Z" fill="black"/>
<path d="M802.699 82.8359L788.859 149.952L762.153 202.134L772.776 144.486L802.699 82.8359Z" fill="black"/>
<path d="M813.198 116.677L792.284 153.698L784.801 189.323L803.461 158.067L813.198 116.677Z" fill="black"/>
<path d="M645.801 117.997L658.98 158.424L680.198 188.003L669.75 153.132L645.801 117.997Z" fill="black"/>
<path d="M756 513L750.826 516.039L756 524.846L761.173 516.039L756 513ZM756 513C761.173 516.039 761.173 516.039 761.174 516.038L761.174 516.037L761.178 516.031L761.191 516.009L761.24 515.925L761.427 515.604C761.591 515.324 761.83 514.914 762.134 514.391C762.741 513.345 763.607 511.846 764.646 510.028C766.722 506.396 769.496 501.478 772.274 496.354C775.044 491.247 777.857 485.862 779.992 481.319C781.057 479.054 781.995 476.909 782.68 475.063C783.262 473.493 784 471.293 784 469.306C784 462.773 778.977 458.379 774.298 455.975C769.306 453.409 762.827 452 756 452C749.172 452 742.693 453.409 737.701 455.975C733.023 458.379 728 462.773 728 469.306C728 471.293 728.737 473.493 729.32 475.063C730.004 476.909 730.943 479.054 732.007 481.319C734.142 485.862 736.956 491.247 739.725 496.354C742.503 501.478 745.277 506.396 747.353 510.028C748.392 511.846 749.258 513.345 749.865 514.391C750.169 514.914 750.408 515.324 750.572 515.604L750.76 515.925L750.809 516.009L750.821 516.031L750.825 516.037L750.826 516.038C750.826 516.039 750.826 516.039 756 513Z" stroke="black" stroke-width="12"/>
<path d="M686 224C686 224 670.808 226.364 657.021 215.341C643.235 204.317 634.229 180.713 634.229 180.713C634.229 180.713 660.704 182.469 674.49 193.492C688.277 204.516 686 224 686 224Z" fill="black"/>
<path d="M807.832 229.527C793.776 237.517 778.5 229.527 778.5 229.527C778.5 229.527 779.275 212.008 793.33 204.017C807.385 196.027 833 200 833 200C833 200 821.887 221.537 807.832 229.527Z" fill="black" fill-opacity="0.87"/>
<path d="M776.313 283.515C777.521 286.466 777.962 290.66 777.743 295.647C777.528 300.558 776.693 305.866 775.648 310.818C774.758 315.035 773.73 318.931 772.843 322.012C770.025 318.702 766.222 314.153 762.234 309.15C758.22 304.115 754.045 298.651 750.509 293.545C746.929 288.377 744.163 283.8 742.806 280.485C741.696 277.772 741.653 274.472 742.514 270.736C743.372 267.013 745.06 263.16 747.018 259.599C748.955 256.076 751.085 252.969 752.746 250.728C752.821 250.811 752.896 250.896 752.973 250.981C755.043 253.288 757.864 256.516 760.869 260.2C766.98 267.689 773.5 276.641 776.313 283.515Z" fill="black" stroke="black" stroke-width="8"/>
<path opacity="0.5" d="M911.27 247.353C931 265 911.27 330 911.27 330C911.27 330 844 403 827 381" stroke="#464646" stroke-width="8"/>
<path opacity="0.5" d="M933.5 270.5C955.686 282.323 926.5 357 926.5 357C926.5 357 872.729 407.427 867 379" stroke="#464646" stroke-width="8"/>
<path opacity="0.5" d="M615 373C604.405 397.093 531.258 302.847 513.5 298.995C513.5 298.995 494.488 257.741 522.381 249.894" stroke="#464646" stroke-width="8"/>
<path opacity="0.5" d="M575 390C559.5 436.5 481.164 330.381 481.164 330.381C481.164 330.381 488.721 288.676 505.698 283.9" stroke="#464646" stroke-width="8"/>
<path d="M282 703.664C282 703.664 395 605.549 445 264C447.772 245.058 574 183.628 574 183.628L568 203.5C568 203.5 540.439 223.677 528 238C515.56 252.323 554 527.435 554 657C554 786.565 515.066 782.109 474 782.992C432.933 783.874 293.95 713.225 282 703.664Z" fill="url(#paint17_linear)"/>
<path d="M698 174H769L762 214H704L698 174Z" fill="black"/>
<path opacity="0.15" d="M732.606 143.75L739.5 149.5L736.606 153.5V221.5L725.106 254.75L719 249.5L731.5 219L732.606 143.75Z" fill="#C4C4C4"/>
<path opacity="0.15" d="M754.442 144.029L758.101 154.593L755.5 157L750 221.5L774 285L754.442 249L751 286L745 223.5L754.442 144.029Z" fill="#C4C4C4"/>
<path opacity="0.15" d="M771 154.5L773 160L770.5 162.5L759 212L785.5 239L782.5 244.5L755 215L771 154.5Z" fill="#C4C4C4"/>
<path opacity="0.15" d="M698.5 153L705 156L703.5 159L715 214L684 224.5L690 220L711 213L698.5 153Z" fill="#C4C4C4"/>
<path opacity="0.15" d="M715.5 145.5L722.5 151L719 156.5L726 216.5L704 239.5L699 236L720.859 215.5L715.5 145.5Z" fill="#C4C4C4"/>
<path d="M1002 630.122C1009.86 620.96 992.999 661.122 992.999 661.122C992.999 661.122 1075.56 588.063 1068 603.122C1027.41 683.977 897 803.584 897 803.584C897 803.584 945.19 696.353 1002 630.122Z" fill="white"/>
<rect width="10.3171" height="10.3171" transform="matrix(0.908765 0.417309 0.184682 0.982798 354.833 522.929)" fill="black"/>
<path d="M323.406 482.689L358.323 517.083L360.876 530.667L348.315 524.899L323.406 482.689Z" fill="black"/>
<rect width="10.3171" height="10.3171" transform="matrix(-0.369879 0.92908 -0.971964 0.235129 1156.16 577.35)" fill="black"/>
<path d="M1194.73 543.89L1162.18 580.535L1148.74 583.785L1153.86 570.943L1194.73 543.89Z" fill="black"/>
<rect x="732" y="919" width="16" height="16" transform="rotate(45 732 919)" fill="#363636"/>
<path d="M532.5 218.5C525.167 218.167 510.4 225.6 510 258C508.111 410.979 539 521 532.5 662" stroke="black" stroke-opacity="0.87" stroke-width="2"/>
<path d="M810.353 866.5L1024.85 763.5C1067 646 973 702 973 702C973 702 1018 421.733 1018 360C1018 297 969.101 258.768 937.5 245C925.892 239.943 907 234 907 234C907 234 925.87 256.426 931.5 280C957.051 387 792 804 792 804C792 804 861.18 699.335 810.353 866.5Z" fill="url(#paint18_linear)"/>
<path d="M772 421L762.5 437L753 421L762.5 405L772 421Z" fill="#1F1F1F"/>
<path d="M772 460L762.5 476L753 460L762.5 444L772 460Z" fill="#1F1F1F"/>
<path d="M788 443L778 459L768 443L778 427L788 443Z" fill="#313131"/>
<path d="M797 465L790 481L783 465L790 449L797 465Z" fill="#1F1F1F"/>
<path d="M239.746 279.463L186.827 242.813L209.348 208.31L226.617 223.923C226.617 223.923 241.864 223.623 250.544 231.186C257.629 237.36 257.38 254.259 257.38 254.259L239.746 279.463Z" fill="url(#paint19_linear)"/>
<path d="M193.293 172.111L196.76 219.084L216.822 225.979L212.028 174.526L225.335 159.406L233.916 137.714L193.293 172.111Z" fill="black"/>
<path d="M188.857 185.598L182.69 221.945L186.281 230.354L227.45 228L204.95 198L220.885 173.505L228.576 157.696L188.857 185.598Z" fill="black"/>
<path d="M224.939 214.267L223.709 248.355L245 257L266.5 257C266.5 257 247.837 222.378 241.816 202.539L224.939 202.539L224.939 214.267Z" fill="black"/>
<path d="M166.76 181.865L178.451 223.385L202.507 223.998L188.092 179.798L199.699 163.251L210.98 136.912L166.76 181.865Z" fill="black"/>
<path d="M169.706 188.544L165.268 199.515L169.881 203.032L183.899 199.367L198.845 185.896L213.46 166.293L169.706 188.544Z" fill="url(#paint20_linear)"/>
<path d="M166.782 209.549L182.366 238.574L189.941 243.696L201.398 226.789L181.224 200.203L166.782 209.549Z" fill="url(#paint21_linear)"/>
<path d="M162.024 203.353L165.293 212.228L170.844 212.055L179.106 202.82L172.422 182.875L162.024 203.353Z" fill="url(#paint22_linear)"/>
<path d="M208.917 272.307L185.583 249.836L190.961 220.193C190.961 220.193 210.148 225.29 208.917 272.307Z" fill="url(#paint23_linear)"/>
<path d="M219.827 279.455L196.493 256.984L201.871 227.341C201.871 227.341 221.058 232.438 219.827 279.455Z" fill="url(#paint24_linear)"/>
<path d="M241.925 197.653L246.302 226.971L225.628 203.186L210.852 189.313L204 176.798L241.925 197.653Z" fill="#101010"/>
<path d="M805 470V477L800 463.5V454L805 470Z" fill="#1F1F1F"/>
<path d="M797 450V457L792 443.5V434L797 450Z" fill="#1F1F1F"/>
<path d="M788.899 430.882L789.746 437.831L783.149 425.035L782 415.605L788.899 430.882Z" fill="#1F1F1F"/>
<path d="M757 442L746 458L735 442L746 426L757 442Z" fill="#1F1F1F"/>
<path d="M741 463L730 479L719 463L730 447L741 463Z" fill="#373737"/>
<path d="M751 411L740 427L729 411H740H751Z" fill="#111111"/>
<path d="M733 432L722 448L711 432L722 416L733 432Z" fill="#111111"/>
<path d="M717 453L706 469L695 453L706 437L717 453Z" fill="#111111"/>
<path d="M702 474L691 490L680 474L691 458L702 474Z" fill="#111111"/>
<path d="M682 459L671 475L660 459L671 443L682 459Z" fill="#111111"/>
<path d="M667 480L656 496L645 480L656 464L667 480Z" fill="#111111"/>
<path d="M722 484L711 500L700 484L711 468L722 484Z" fill="#1F1F1F"/>
<path d="M704 505L693 521L682 505L693 489L704 505Z" fill="#1F1F1F"/>
<path d="M688 526L677 542L666 526L677 510L688 526Z" fill="#282828"/>
<path d="M673 547L662 563L651 547L662 531L673 547Z" fill="#1F1F1F"/>
<path d="M657 568L646 584L635 568L646 552L657 568Z" fill="#212121"/>
<path d="M641 589L630 605L619 589L630 573L641 589Z" fill="#212121"/>
<path d="M626 610L615 626L604 610L615 594L626 610Z" fill="black"/>
<path d="M612 629L601 645L590 629L601 613L612 629Z" fill="black"/>
<path d="M598 648L587 664L576 648L587 632L598 648Z" fill="black"/>
<path d="M687 490L676 506L665 490L676 474L687 490Z" fill="#1F1F1F"/>
<path d="M669 511L658 527L647 511L658 495L669 511Z" fill="#1F1F1F"/>
<path d="M653 532L642 548L631 532L642 516L653 532Z" fill="#1F1F1F"/>
<path d="M638 553L627 569L616 553L627 537L638 553Z" fill="black"/>
<path d="M624 573L613 589L602 573L613 557L624 573Z" fill="black"/>
<path d="M610 593L599 609L588 593L599 577L610 593Z" fill="black"/>
<path d="M596 613L585 629L574 613L585 597L596 613Z" fill="black"/>
<path d="M582 633L571 649L560 633L571 617L582 633Z" fill="black"/>
<path d="M651 499L640 515L629 499L640 483L651 499Z" fill="black"/>
<path d="M636 517L625 533L614 517L625 501L636 517Z" fill="black"/>
<path d="M632.059 321.535C624.407 335.806 590 345 590 345C590 345 572.724 308.094 580.376 293.823C588.029 279.551 605.802 274.185 620.074 281.837C634.345 289.49 639.711 307.263 632.059 321.535Z" fill="black"/>
<path d="M810 210C810 210 804.537 220 801.5 220C798.462 220 794.5 218.5 794.5 218.5C794.5 218.5 798.462 210 801.5 210C804.537 210 810 210 810 210Z" fill="#2C2C2C"/>
<path d="M673 209C673 209 668.537 209 665.5 209C662.462 209 660 199.25 660 199.25C660 199.25 664.462 199.25 667.5 199.25C670.537 199.25 673 209 673 209Z" fill="#2C2C2C"/>
<path d="M769 285.5C769 288.538 767.5 295 767.5 295C767.5 295 759 288.538 759 285.5C759 282.462 762 278.5 762 278.5C762 278.5 769 282.462 769 285.5Z" fill="#2C2C2C"/>
<path d="M75.0001 532L482.546 792.083C482.546 792.083 350.745 674.651 277 590C135 427 0 318 0 318L137 558L75.0001 532Z" fill="white"/>
<path d="M946 212.5L911.5 267.5L920.5 307.5L895 271L946 212.5Z" fill="black"/>
<path d="M897 223L865.325 279.024L868.5 311L849.825 279.024L897 223Z" fill="black"/>
<path d="M223.822 287.35L196.515 261.054L202.808 226.365C202.808 226.365 225.262 232.33 223.822 287.35Z" fill="url(#paint25_linear)"/>
<path d="M236.589 295.715L209.283 269.419L215.575 234.73C215.575 234.73 238.029 240.695 236.589 295.715Z" fill="url(#paint26_linear)"/>
<path d="M700.924 106.598C700.924 106.598 715.127 103.917 722.463 107.7C734.622 113.97 728.29 136.379 728.29 136.379C728.29 136.379 723.552 137.906 714.847 138.914C703.172 131.802 700.924 106.598 700.924 106.598Z" fill="url(#paint27_linear)"/>
<path d="M776.387 106.589C776.387 106.589 762.211 104.104 754.858 107.765C742.673 113.833 748.873 135.237 748.873 135.237C748.873 135.237 753.599 136.672 762.292 137.587C773.999 130.716 776.387 106.589 776.387 106.589Z" fill="url(#paint28_linear)"/>
<path d="M729 115.5C729 121.299 724.299 126 718.5 126C712.701 126 707 123.299 707 117.5C707 111.701 712.701 105 718.5 105C724.299 105 729 111.5 729 115.5Z" fill="#3A3A3A"/>
<path d="M770.5 116.5C770.5 122.299 765.299 126 759.5 126C753.701 126 749 121.299 749 115.5C749 112 753.701 105 759.5 105C765.299 105 770.5 110.701 770.5 116.5Z" fill="#3A3A3A"/>
<path d="M508.5 181L546 250.5L508.5 275.5L530.5 245.5L508.5 181Z" fill="black"/>
<path d="M425 312L416 280L369 285L271 253V237L252 240C252 240 258.5 253 266 257C258.5 253 244.5 253 244.5 253L228 285L234 303L247 293L341 361L369 401L398 394L369 333L425 312Z" fill="url(#paint29_linear)"/>
<path d="M413 281L421 310L363.5 331L390.5 387.5L368 396.5" stroke="white" stroke-opacity="0.14" stroke-width="4"/>
<path d="M339 362C333.5 334 348.5 297 367.5 282.5" stroke="white" stroke-opacity="0.14" stroke-width="4" stroke-linecap="round"/>
<path d="M251 298.5C247.5 280.5 263.5 253.5 281 253.5" stroke="white" stroke-opacity="0.14" stroke-width="4" stroke-linecap="round"/>
<path fill-rule="evenodd" clip-rule="evenodd" d="M276.405 299.692C279.931 302.065 284.049 303.959 288.443 305.228C292.837 306.498 297.39 307.11 301.754 307.017C306.117 306.924 310.175 306.128 313.616 304.692C317.057 303.255 319.79 301.215 321.605 298.729C323.42 296.242 324.269 293.375 324.087 290.347C323.905 287.319 322.697 284.211 320.556 281.26C318.414 278.309 315.395 275.595 311.732 273.325C308.068 271.055 303.856 269.29 299.42 268.165L318.944 267.171L353.422 280.933C353.422 280.933 324.037 269.204 333.82 278.372C337.059 282.834 338.886 287.536 339.161 292.115C339.436 296.695 338.152 301.031 335.407 304.792C332.662 308.552 328.529 311.637 323.324 313.81C318.12 315.983 305.384 317.326 305.384 317.326C305.384 317.326 306.065 319.246 299.42 317.326C307.13 326.878 318.944 345 318.944 345L276.405 299.692Z" fill="#4A4A4A"/>
<path d="M921.5 239.5C993 281 892 587 855 687" stroke="#171717" stroke-width="2"/>
<rect x="532.657" y="657" width="8" height="8" transform="rotate(45 532.657 657)" fill="black"/>
<rect x="525.972" y="488" width="8" height="8" transform="rotate(38.4294 525.972 488)" fill="black"/>
<rect x="511.479" y="329" width="8" height="8" transform="rotate(43.2284 511.479 329)" fill="black"/>
<rect x="856.065" y="683" width="8" height="8" transform="rotate(62.0258 856.065 683)" fill="black"/>
<rect x="912.065" y="513" width="8" height="8" transform="rotate(62.0258 912.065 513)" fill="black"/>
<rect x="943.945" y="348" width="8" height="8" transform="rotate(47.9981 943.945 348)" fill="black"/>
<path fill-rule="evenodd" clip-rule="evenodd" d="M1394.31 514.049L885.999 821C885.999 821 1081.7 671.226 1168 591C1310 459 1462 288 1462 288L1322 530L1394.31 514.049ZM1120.49 665.422C1123.16 663.104 1125.54 661.029 1127.43 659.419C1130.3 656.97 1139.17 649.885 1150.66 640.693C1183.33 614.568 1237.29 571.429 1235.54 569.38C1235.54 569.38 1112.95 659.832 1101.91 669.238C1090.87 678.645 1083.83 688.515 1086.19 691.284C1088.14 693.58 1107.6 676.643 1120.49 665.422Z" fill="white"/>
<path d="M492.5 758L445.5 788L428.5 771L486.5 743.5L492.5 758Z" fill="#C4C4C4"/>
<path d="M366.966 677.03C366.966 677.03 419.132 750.941 388.878 777.141C358.18 803.727 292.564 737.931 292.564 737.931L311.166 705.804L329.117 708.408L330.937 691.88L366.966 677.03Z" fill="#8B8B8B"/>
<path d="M365.085 686.236C365.085 686.236 409.344 748.944 383.676 771.173C357.63 793.729 301.96 737.906 301.96 737.906L317.743 710.649L332.973 712.858L334.517 698.835L365.085 686.236Z" fill="#B5B5B5"/>
<path d="M831 807.647C831 851.278 853.221 882 890.5 882C927.779 882 917 822.518 949 789.988C949 746.358 890.5 724 890.5 724C890.5 724 831 764.017 831 807.647Z" fill="#C4C4C4"/>
<path d="M855.801 860.579C855.801 860.579 881.183 880.235 858.867 901.1C819.524 919.073 787.346 937.066 775.345 924.23C767.403 915.736 794.942 893.938 794.942 893.938L855.801 860.579Z" fill="#C4C4C4"/>
<path d="M966 833L777.631 957C777.631 957 746 943.692 746 927.275C746 910.858 777.631 897.549 777.631 897.549L966 833Z" fill="white"/>
<path fill-rule="evenodd" clip-rule="evenodd" d="M1187 656L1184.64 651.992L1161.6 666.483C1158.06 664.424 1151.03 661 1143.5 661C1134.99 661 1129.31 680.059 1127.3 688.045L838.611 869.562L841.272 873.795L1128.28 692.988C1131.17 695.175 1137.31 699 1145 699C1153.68 699 1160.71 678.863 1163.11 671.049L1187 656ZM1157.72 668.92C1157.22 668.661 1156.68 668.395 1156.11 668.13C1152.6 666.504 1148.07 665 1143.5 665C1142.79 665 1141.42 665.546 1139.52 668.132C1137.74 670.566 1136.1 673.992 1134.7 677.674C1133.75 680.169 1132.94 682.678 1132.3 684.905L1157.72 668.92ZM1131.94 690.686L1157.81 674.391C1157 676.692 1156.01 679.298 1154.88 681.891C1153.23 685.644 1151.35 689.165 1149.37 691.683C1147.25 694.379 1145.75 695 1145 695C1140.54 695 1136.6 693.439 1133.7 691.778C1133.05 691.407 1132.46 691.036 1131.94 690.686Z" fill="black" fill-opacity="0.38"/>
<path d="M551.168 659.388C557.486 669.076 559.266 677.909 559.266 677.909L542.5 677.909C542.5 677.909 514.507 666.886 522 662C529.493 657.114 544.85 649.699 551.168 659.388Z" fill="#C4C4C4"/>
<path d="M593 727.253C593 744.756 581.428 768 581.428 768C581.428 768 566.964 742.848 539 727.253C539 713.258 542.375 690.531 542.375 690.531C542.375 690.531 564.794 689.336 569.375 690.531C579.018 693.046 593 709.75 593 727.253Z" fill="#8B8B8B"/>
<path d="M853.132 780.881C855.675 784.19 849.832 792.95 849.832 792.95C849.832 792.95 839.746 786.758 837.202 783.448C830.634 774.903 791.454 718.848 791.454 718.848C796.5 718.848 850.588 777.572 853.132 780.881Z" fill="#E8E8E8"/>
<path d="M688.96 879.109C688.96 907.211 700 927 700 927C700 927 608 899.429 608 871.326C608 843.223 625.738 810.851 659.06 824.033C716.56 846.782 688.96 851.006 688.96 879.109Z" fill="#A6A4A4"/>
<path fill-rule="evenodd" clip-rule="evenodd" d="M204.898 489.988C200.517 490.676 189.639 490.755 175.65 479.252C152.708 460.388 101 445 101 445L117.75 461.381L101 475.777C115.687 476.108 150.742 480.245 173.465 494.144C196.37 508.155 221.049 511.831 229.746 512.729L607 858V852L203.183 481.641L199.814 485.335L204.898 489.988Z" fill="#C4C4C4"/>
<path d="M601.88 811.447C605.814 808.52 609.022 804.728 611.257 800.364C613.492 796 614.695 791.18 614.772 786.278C614.849 781.375 613.798 776.52 611.7 772.088C609.603 767.656 606.515 763.765 602.676 760.716C598.836 757.667 594.346 755.541 589.554 754.502C584.763 753.463 579.796 753.54 575.038 754.725C570.28 755.911 565.859 758.174 562.114 761.34C558.37 764.506 555.404 768.49 553.444 772.984L582.776 785.776L601.88 811.447Z" fill="#8B8B8B"/>
<path d="M620.009 858.807C623.942 855.88 626.831 851.659 628.453 846.47C630.074 841.282 630.385 835.264 629.361 828.882C628.337 822.499 626.005 815.923 622.546 809.661C619.087 803.399 614.593 797.619 609.41 792.766C604.228 787.913 598.497 784.118 592.658 781.673C586.82 779.228 581.031 778.199 575.738 778.666C570.445 779.132 565.79 781.082 562.132 784.363C558.474 787.645 555.911 792.171 554.641 797.593L591.84 820.956L620.009 858.807Z" fill="#8B8B8B"/>
<path d="M832 699.314L829.5 705L834.5 707.5L843.644 759L900 736.044L875 693V686H869.726L832 699.314Z" fill="#A6A4A4"/>
<path d="M969 700.5C969 717.897 961 777 961 777C961 777 1054 721 1031 690C1031 672.603 976 667 976 667C976 667 969 683.103 969 700.5Z" fill="#A6A4A4"/>
<path d="M950.5 754.5C950.5 771.897 961 777 961 777L965 745.5L976 671C976 671 950.5 737.103 950.5 754.5Z" fill="#8B8B8B"/>
<path d="M548.71 682.404L554.801 681.276L543.598 674.615C543.598 674.615 533.23 672.667 536.685 675.755C540.139 678.844 548.71 682.404 548.71 682.404Z" fill="#C4C4C4"/>
<path d="M438 737.533C438 737.533 421.683 745.642 416 764C407.702 790.803 447 817 447 817C447 817 386.739 796.643 367.5 768C356.993 752.357 355 724.533 355 724.533L352.5 764L319.5 717L394 692L438 737.533Z" fill="#A6A4A4"/>
<path d="M1131 705C1131 705 1056.06 834.962 1010 865C963.939 895.038 939.648 895.995 924 872C897.263 831 964 778 964 778L1044 733L1131 705Z" fill="#8B8B8B"/>
<path d="M595.073 814.013C582.798 851.032 498 856.5 498 856.5L486.866 778.134C486.866 778.134 533.314 719.136 563.195 729.044C593.075 738.951 607.348 776.993 595.073 814.013Z" fill="#B1AFAF"/>
<path d="M531.5 776C516.654 788.446 488 793.5 488 793.5C488 793.5 483.034 762.981 497.88 750.535C512.726 738.089 531.075 735.531 538.863 744.822C546.652 754.112 546.345 763.554 531.5 776Z" fill="#8B8B8B"/>
<rect x="1018.09" y="558" width="5" height="320.313" transform="rotate(39.5793 1018.09 558)" fill="#C4C4C4"/>
<path d="M593 723.253C593 740.756 581.428 764 581.428 764C581.428 764 566.964 738.848 539 723.253C539 709.258 542.375 686.531 542.375 686.531C542.375 686.531 564.794 685.336 569.375 686.531C579.018 689.046 593 705.75 593 723.253Z" fill="#A6A4A4"/>
<path d="M597.5 717.724C597.5 735.121 589.5 756.224 589.5 756.224C589.5 756.224 586.5 738 572.5 730.5C594 727 579.5 710.224 579.5 710.224C579.5 710.224 597.5 707.974 597.5 717.724Z" fill="#C6C6C6"/>
<path d="M445.34 687.758C442.474 700.648 442 698.5 442 698.5L437 692.5L437.5 700L424.5 719L400 692.5L421.5 660.5C421.5 660.5 448.206 674.868 445.34 687.758Z" fill="#A6A4A4"/>
<path d="M454.171 673.225C451.627 670.74 448.117 669.145 444.219 668.701C440.32 668.258 436.266 668.994 432.722 670.786C429.179 672.579 426.358 675.322 424.723 678.565C423.089 681.807 422.738 685.356 423.73 688.626L440.697 683.769L454.171 673.225Z" fill="#8B8B8B"/>
<path d="M884 879L918.937 748.929C918.937 748.929 929.209 748.478 926 742.5C922.79 736.522 909.815 732.464 904.294 728.52C898.774 724.575 902.195 717.599 895.5 716.5C859.605 710.607 835.421 756.54 838 783L878.55 764.55C878.55 764.55 922 787 948 800C974 813 884 879 884 879Z" fill="#8B8B8B"/>
<path d="M1061.94 765.713C1064.54 759.925 1065.87 753.644 1065.83 747.297C1065.8 740.951 1064.4 734.686 1061.73 728.927C1059.06 723.169 1055.18 718.052 1050.36 713.922C1045.54 709.793 1039.89 706.747 1033.79 704.993C1027.69 703.238 1021.29 702.815 1015.01 703.752C1008.73 704.69 1002.73 706.966 997.409 710.426C992.088 713.886 987.573 718.449 984.17 723.806C980.767 729.164 978.555 735.19 977.685 741.477L1021.55 747.55L1061.94 765.713Z" fill="#8B8B8B"/>
<rect width="12.5052" height="12.5052" transform="matrix(0.152498 0.988304 -0.594656 0.80398 827.046 541.264)" fill="#C4C4C4"/>
<path d="M842.448 478.828L834.046 539.801L824.083 553.271L821.528 536.713L842.448 478.828Z" fill="#C4C4C4"/>
<rect width="11.3656" height="11.3656" transform="matrix(-0.271909 0.962323 -0.940994 0.338422 1028.79 549.835)" fill="#ADADAD"/>
<path d="M1067.19 508.652L1035.73 552.602L1021.4 557.755L1025.54 543.102L1067.19 508.652Z" fill="#ADADAD"/>
<path d="M532.907 660.197C542.929 675.565 493 702.5 493 702.5L455 692L471 675.565C471 675.565 529.192 654.5 532.907 660.197Z" fill="#C4C4C4"/>
<path d="M522.418 751.656C517.778 763.598 503.557 771.583 503.557 771.583C503.557 771.583 442.262 734.253 446.903 722.311C451.543 710.369 472.21 707.257 493.063 715.36C513.916 723.464 527.059 739.714 522.418 751.656Z" fill="#C4C4C4"/>
<path d="M487.178 700.309C494.493 711.525 469.5 741 469.5 741C469.5 741 455.558 736.916 448.244 725.699C440.929 714.483 443.716 699.706 454.467 692.695C465.218 685.684 466.5 679 487.178 700.309Z" fill="#8B8B8B"/>
<path d="M385 690.5L368.5 713C368.5 713 346.418 712.118 350.901 699.5C355.385 686.882 368.5 683 368.5 683L385 690.5Z" fill="#8B8B8B"/>
<path d="M705.5 820C705.5 866.944 717.5 876.5 717.5 876.5C717.5 876.5 620 849.944 620 803C620 756.056 667 725.5 693 737C710.5 766 705.5 773.056 705.5 820Z" fill="#C4C4C4"/>
<path d="M705.619 796.5L705.619 829.378C705.619 829.378 671.24 821.611 658.125 801.5C645.01 781.389 647.218 763.661 658.125 756.549C669.032 749.436 705.619 796.5 705.619 796.5Z" fill="#8B8B8B"/>
<path d="M722 814C749.403 865.846 712.019 909 712.019 909C712.019 909 738.058 902.827 705.869 838.505C673.68 774.183 699.209 736.414 712.019 736.339C724.828 736.265 694.596 762.154 722 814Z" fill="#8B8B8B"/>
<path d="M692 766.5C693.505 778.054 685.73 789.581 671 791.5C656.269 793.419 643.505 785.554 642 774C640.494 762.446 663.839 747.201 663.839 747.201C663.839 747.201 690.494 754.946 692 766.5Z" fill="#8B8B8B"/>
<path d="M699.858 770.499C702.383 764.999 703.611 758.992 703.446 752.942C703.281 746.891 701.729 740.96 698.907 735.605C693.237 724.842 675.95 726.064 663.961 724C586.296 738.909 451 776 451 776C451 776 658 725.165 617 776C617 776 643 745 667.5 744.999C692 744.999 699.858 770.499 699.858 770.499Z" fill="#8B8B8B"/>
<circle cx="551.5" cy="854.5" r="33.5" fill="white"/>
<path d="M439.293 773C439.293 773 464.491 833.718 475 838C485.509 842.282 507 838 507 838L491.161 810.693L439.293 773Z" fill="white"/>
<path d="M736.412 723.28C736.412 723.28 729.532 726.449 725.725 733.243C722.755 738.544 717.606 754.162 717.606 754.162C717.606 754.162 701.838 753.911 693.133 747.2C684.768 740.75 677.31 726.081 677.31 726.081C677.31 726.081 688.817 719.017 692.805 714.535C697.21 709.586 697.921 698.328 697.921 698.328L725.346 699.031L736.412 723.28Z" fill="#A6A4A4"/>
<path d="M550.5 860.5C550.5 860.5 576.743 808.759 570 797.499C562.03 784.191 533.704 784.878 533.704 784.878L589.5 767C589.5 767 603.165 786.847 598.5 808C584.665 803.469 550.5 860.5 550.5 860.5Z" fill="#C4C4C4"/>
<ellipse cx="823.78" cy="820.027" rx="46.4808" ry="21.7549" transform="rotate(-42.7191 823.78 820.027)" fill="#8B8B8B"/>
<path d="M818.146 812.337C818.146 812.337 807 882 757.666 917.51C731.934 878.569 741 812.337 741 812.337L777.465 779.573L818.146 812.337Z" fill="#7B7B7B"/>
<path d="M870.228 788.993C881.582 801.289 859.5 846.219 859.5 846.219C859.5 846.219 845.883 834.254 834.529 821.958C823.175 809.662 821.963 792.315 831.821 783.212C841.679 774.109 858.875 776.697 870.228 788.993Z" fill="#8B8B8B"/>
<circle cx="576" cy="721" r="4" fill="#C4C4C4"/>
<path d="M525.331 769.136C530.076 767.901 534.474 765.592 538.185 762.388C541.897 759.183 544.822 755.169 546.735 750.654C548.648 746.14 549.499 741.246 549.22 736.35C548.942 731.455 547.542 726.689 545.129 722.421C542.717 718.152 539.355 714.495 535.304 711.732C531.254 708.969 526.622 707.174 521.768 706.485C516.913 705.796 511.965 706.232 507.306 707.759C502.646 709.286 525.095 706.162 524.939 726.506C524.784 746.85 510.808 757.37 510.808 757.37L525.331 769.136Z" fill="#C9C9C9"/>
<path d="M524.88 761.447C528.814 758.52 532.022 754.728 534.257 750.364C536.492 746 537.695 741.18 537.772 736.278C537.849 731.375 536.798 726.52 534.7 722.088C532.603 717.656 529.515 713.765 525.676 710.716C521.836 707.667 517.346 705.541 512.554 704.502C507.763 703.463 502.796 703.54 498.038 704.725C493.28 705.911 488.859 708.174 485.114 711.34C481.37 714.506 501 703.176 508.5 722.088C516 741 507 756 507 756L524.88 761.447Z" fill="#8B8B8B"/>
<path d="M432.613 515.297L418.948 507.98L623.26 775.096L625.236 766.06L432.613 515.297Z" fill="#C4C4C4"/>
<path d="M776.003 735.5L771.503 741L779.5 745L776.003 755.5L771.503 758L774.003 761.5L771.503 766.5C771.503 766.5 756.806 778.904 751 770C745.193 761.096 744 765.5 755.503 741C766.254 733.989 776.003 735.5 776.003 735.5Z" fill="#C4C4C4"/>
<path d="M744.547 759.599L759.468 777.651L752.197 780.502L714.821 822.442L703 820L687 824L693.5 807.5L694.84 792.93L740.747 765.969L744.547 759.599Z" fill="#C4C4C4"/>
<rect x="822.117" y="549" width="5" height="448.471" transform="rotate(14.9985 822.117 549)" fill="#C4C4C4"/>
<path d="M993.988 809.45C978.687 817.728 973.224 812.356 965.5 804.079C956.598 794.541 955.807 779.404 965.5 770.67C993.988 745 1046.3 730.67 1046.3 730.67C1046.3 730.67 1009.29 801.171 993.988 809.45Z" fill="#5A5A5A"/>
<path d="M991.287 800.472C978.882 807.184 974.453 802.829 968.19 796.118C960.973 788.385 960.332 776.112 968.19 769.031C991.287 748.219 1033.7 736.601 1033.7 736.601C1033.7 736.601 1003.69 793.76 991.287 800.472Z" fill="#484848"/>
<path d="M982.5 793.5L970.954 800.929C970.954 800.929 970.284 790.962 976 782C981.715 773.038 980.985 768.82 989.373 774.169C997.761 779.518 982.5 793.5 982.5 793.5Z" fill="#C4C4C4"/>
<path d="M987.955 781.835L982.515 771.263C982.515 771.263 983.159 763.35 985.278 763.21C987.397 763.071 988.691 766.322 989.027 771.422C989.362 776.523 987.955 781.835 987.955 781.835Z" fill="#C4C4C4"/>
<path d="M969.601 770.083L981.47 770.787C981.47 770.787 988.449 767.002 987.72 765.007C986.992 763.012 983.495 763.142 978.693 764.896C973.892 766.65 969.601 770.083 969.601 770.083Z" fill="#C4C4C4"/>
<path d="M984.382 783.151L969.98 775.285C969.98 775.285 974.459 772.811 981.361 774.293C988.263 775.776 991.466 777.921 991.007 780.059C990.548 782.197 984.382 783.151 984.382 783.151Z" fill="#E9E9E9"/>
<path d="M978.89 790.83L960.46 782.099C960.46 782.099 965.928 779.837 974.637 781.708C983.345 783.579 987.466 785.921 987.007 788.059C986.548 790.197 978.89 790.83 978.89 790.83Z" fill="#E9E9E9"/>
<path d="M977.752 792.935L962.354 787.261C962.354 787.261 963.437 792.262 969.093 796.486C974.749 800.709 978.472 801.712 979.78 799.96C981.088 798.207 977.752 792.935 977.752 792.935Z" fill="#E9E9E9"/>
<path d="M968.788 802.453L957.941 796.521C957.941 796.521 961.316 794.653 966.515 795.77C971.713 796.887 974.126 798.504 973.779 800.118C973.433 801.731 968.788 802.453 968.788 802.453Z" fill="#E9E9E9"/>
<circle r="10.3704" transform="matrix(-1 0.000931923 0.000931923 1 951.38 773.38)" fill="white"/>
<path d="M1104.72 763C1104.72 763 1045.78 837.88 1028.68 844.78C1011.59 851.681 994.841 850.115 991.275 841.282C987.709 832.449 1015.77 812.793 1015.77 812.793L1104.72 763Z" fill="white"/>
<path d="M435.584 734.712L456.584 763.212C456.584 763.212 440.052 771.549 427.084 768.212C414.116 764.875 402.084 740.712 402.084 740.712L435.584 734.712Z" fill="#A6A4A4"/>
<path d="M439.5 724L460.5 752.5C460.5 752.5 443.968 760.837 431 757.5C418.032 754.163 406 730 406 730L439.5 724Z" fill="#8B8B8B"/>
<path d="M754.893 683.29C752.893 666.954 738.418 673.523 729.703 669.254C720.989 664.985 710.571 680.028 701.703 682.254C692.836 684.48 706.835 663.01 701.703 670.754C696.572 678.498 648.393 727.954 648.393 727.954C648.393 727.954 674.893 705.113 690.703 702.121C701.779 700.025 719.568 702.121 719.568 702.121L754.893 683.29Z" fill="#8B8B8B"/>
<path d="M118 502.021C118 502.021 172.621 473.938 292.621 530.104C415.315 587.531 550 537 550 537V601C550 601 430.436 620.376 332.345 596.299C201.586 564.204 118 587.273 118 587.273L163.474 537L118 502.021Z" fill="#8B1414"/>
<path d="M459.053 521L550 537V601L459.053 585V521Z" fill="black" fill-opacity="0.38"/>
<path d="M1347 484.115C1347 484.115 1292.76 479.103 1173.59 535.233C1051.75 592.624 918 537.033 918 537.033V601.074C918 601.074 1036.73 625.448 1134.14 601.387C1263.99 569.312 1347 571.317 1347 571.317L1308.43 529.5L1347 484.115Z" fill="#8B1414"/>
<path d="M1014 521L918 537V601L1014 585V521Z" fill="black" fill-opacity="0.38"/>
<rect x="454" y="521" width="560" height="64" fill="#A42929"/>
<defs>
<linearGradient id="paint0_linear" x1="1212.88" y1="290.531" x2="1214.73" y2="357.401" gradientUnits="userSpaceOnUse">
<stop stop-color="#1E1E1E"/>
<stop offset="1"/>
</linearGradient>
<linearGradient id="paint1_linear" x1="1465.39" y1="159.59" x2="1245.92" y2="153.2" gradientUnits="userSpaceOnUse">
<stop stop-color="#414141"/>
<stop offset="1" stop-color="#414141" stop-opacity="0"/>
</linearGradient>
<linearGradient id="paint2_linear" x1="1254.68" y1="234.307" x2="1198.93" y2="275.159" gradientUnits="userSpaceOnUse">
<stop stop-color="#474747"/>
<stop offset="1"/>
</linearGradient>
<linearGradient id="paint3_linear" x1="1191.45" y1="267.43" x2="1256.49" y2="270.461" gradientUnits="userSpaceOnUse">
<stop stop-color="#474747"/>
<stop offset="1"/>
</linearGradient>
<linearGradient id="paint4_linear" x1="1246.98" y1="269.207" x2="1271.06" y2="282.153" gradientUnits="userSpaceOnUse">
<stop stop-color="#474747"/>
<stop offset="1"/>
</linearGradient>
<linearGradient id="paint5_linear" x1="1238.54" y1="253.236" x2="1263.95" y2="275.939" gradientUnits="userSpaceOnUse">
<stop stop-color="#474747"/>
<stop offset="1"/>
</linearGradient>
<linearGradient id="paint6_linear" x1="1220.54" y1="258.236" x2="1245.95" y2="280.939" gradientUnits="userSpaceOnUse">
<stop stop-color="#474747"/>
<stop offset="1"/>
</linearGradient>
<linearGradient id="paint7_linear" x1="1215.54" y1="285.236" x2="1240.95" y2="307.939" gradientUnits="userSpaceOnUse">
<stop stop-color="#474747"/>
<stop offset="1"/>
</linearGradient>
<linearGradient id="paint8_linear" x1="1207.74" y1="324.953" x2="1231.82" y2="337.9" gradientUnits="userSpaceOnUse">
<stop stop-color="#474747"/>
<stop offset="1"/>
</linearGradient>
<linearGradient id="paint9_linear" x1="1199.3" y1="308.982" x2="1224.71" y2="331.686" gradientUnits="userSpaceOnUse">
<stop stop-color="#474747"/>
<stop offset="1"/>
</linearGradient>
<linearGradient id="paint10_linear" x1="812" y1="270" x2="664" y2="374" gradientUnits="userSpaceOnUse">
<stop stop-color="#5F5F5F"/>
<stop offset="1" stop-color="#0A0A0A"/>
</linearGradient>
<linearGradient id="paint11_linear" x1="713.784" y1="214.735" x2="736.028" y2="427.761" gradientUnits="userSpaceOnUse">
<stop stop-color="#1D1D1D"/>
<stop offset="1" stop-color="#0A0A0A"/>
</linearGradient>
<linearGradient id="paint12_linear" x1="818.571" y1="463.124" x2="809.422" y2="864.988" gradientUnits="userSpaceOnUse">
<stop stop-color="#313131"/>
<stop offset="1" stop-color="#363636" stop-opacity="0"/>
</linearGradient>
<linearGradient id="paint13_linear" x1="671.453" y1="461.269" x2="579.158" y2="844.402" gradientUnits="userSpaceOnUse">
<stop stop-color="#171717"/>
<stop offset="1" stop-color="#363636" stop-opacity="0"/>
</linearGradient>
<linearGradient id="paint14_linear" x1="785.99" y1="483.811" x2="804.261" y2="884.307" gradientUnits="userSpaceOnUse">
<stop stop-color="#474747"/>
<stop offset="1"/>
</linearGradient>
<linearGradient id="paint15_linear" x1="719.074" y1="477.969" x2="646.478" y2="874.264" gradientUnits="userSpaceOnUse">
<stop stop-color="#474747"/>
<stop offset="1"/>
</linearGradient>
<linearGradient id="paint16_linear" x1="750.391" y1="468.383" x2="726.605" y2="818.697" gradientUnits="userSpaceOnUse">
<stop stop-color="#464646"/>
<stop offset="1"/>
</linearGradient>
<linearGradient id="paint17_linear" x1="464.999" y1="166" x2="464.999" y2="783" gradientUnits="userSpaceOnUse">
<stop/>
<stop offset="1" stop-color="#3C3C3C"/>
</linearGradient>
<linearGradient id="paint18_linear" x1="1029.32" y1="253.413" x2="832.06" y2="873.407" gradientUnits="userSpaceOnUse">
<stop stop-color="#202020"/>
<stop offset="1" stop-color="#3C3C3C"/>
</linearGradient>
<linearGradient id="paint19_linear" x1="233.233" y1="216.645" x2="214.398" y2="270.618" gradientUnits="userSpaceOnUse">
<stop stop-color="#1E1E1E"/>
<stop offset="1"/>
</linearGradient>
<linearGradient id="paint20_linear" x1="204.992" y1="159.835" x2="171.253" y2="204.079" gradientUnits="userSpaceOnUse">
<stop stop-color="#474747"/>
<stop offset="1"/>
</linearGradient>
<linearGradient id="paint21_linear" x1="178.388" y1="201.153" x2="192.371" y2="242.881" gradientUnits="userSpaceOnUse">
<stop stop-color="#474747"/>
<stop offset="1"/>
</linearGradient>
<linearGradient id="paint22_linear" x1="169.937" y1="182.952" x2="170.844" y2="212.055" gradientUnits="userSpaceOnUse">
<stop stop-color="#474747"/>
<stop offset="1"/>
</linearGradient>
<linearGradient id="paint23_linear" x1="204.229" y1="222.6" x2="195.649" y2="269.9" gradientUnits="userSpaceOnUse">
<stop stop-color="#474747"/>
<stop offset="1"/>
</linearGradient>
<linearGradient id="paint24_linear" x1="215.139" y1="229.748" x2="206.559" y2="277.048" gradientUnits="userSpaceOnUse">
<stop stop-color="#474747"/>
<stop offset="1"/>
</linearGradient>
<linearGradient id="paint25_linear" x1="218.335" y1="229.182" x2="208.294" y2="284.534" gradientUnits="userSpaceOnUse">
<stop stop-color="#474747"/>
<stop offset="1"/>
</linearGradient>
<linearGradient id="paint26_linear" x1="231.103" y1="237.547" x2="221.062" y2="292.899" gradientUnits="userSpaceOnUse">
<stop stop-color="#474747"/>
<stop offset="1"/>
</linearGradient>
<linearGradient id="paint27_linear" x1="716.831" y1="106.038" x2="712.566" y2="138.615" gradientUnits="userSpaceOnUse">
<stop stop-color="#C4C4C4"/>
<stop offset="1" stop-color="#C4C4C4" stop-opacity="0"/>
</linearGradient>
<linearGradient id="paint28_linear" x1="760.496" y1="106.143" x2="764.573" y2="137.288" gradientUnits="userSpaceOnUse">
<stop stop-color="#C4C4C4"/>
<stop offset="1" stop-color="#C4C4C4" stop-opacity="0"/>
</linearGradient>
<linearGradient id="paint29_linear" x1="326.5" y1="237" x2="326.5" y2="401" gradientUnits="userSpaceOnUse">
<stop stop-color="#474747"/>
<stop offset="1"/>
</linearGradient>
</defs>
</svg>
