<svg width="1229" height="128" viewBox="0 0 1229 128" fill="none" xmlns="http://www.w3.org/2000/svg">
<path d="M0 18.0207C0 18.0207 54.6207 -10.0622 174.621 46.1037C297.315 103.531 432 53 432 53V117C432 117 312.436 136.376 214.345 112.299C83.5862 80.2044 0 103.273 0 103.273L45.4737 53L0 18.0207Z" fill="#8B1414"/>
<path d="M341.053 37L432 53V117L341.053 101V37Z" fill="black" fill-opacity="0.38"/>
<path d="M1229 0.115051C1229 0.115051 1174.76 -4.89656 1055.59 51.2334C933.75 108.624 800 53.0334 800 53.0334V117.074C800 117.074 918.733 141.448 1016.14 117.387C1145.99 85.3124 1229 87.317 1229 87.317L1190.43 45.5L1229 0.115051Z" fill="#8B1414"/>
<path d="M896 37L800 53V117L896 101V37Z" fill="black" fill-opacity="0.38"/>
<rect x="336" y="37" width="560" height="64" fill="#A42929"/>
</svg>
