<svg width="960" height="720" viewBox="0 0 960 720" fill="none" xmlns="http://www.w3.org/2000/svg">
<mask id="mask0" mask-type="alpha" maskUnits="userSpaceOnUse" x="0" y="0" width="960" height="720">
<rect width="960" height="720" fill="#C4C4C4"/>
</mask>
<g mask="url(#mask0)">
<path fill-rule="evenodd" clip-rule="evenodd" d="M297.851 81.0335C342.257 65.8511 357.258 50 357.258 50C357.258 50 405.433 -2 222.699 -2C164.779 -2 130.422 4.18344 110.26 12.2866L111.401 13.3357L105.416 14.3942C104.408 14.8694 103.443 15.3497 102.519 15.8341L104.942 18.0628L96.2376 19.6022C76.4765 33.2522 84.1066 48.5704 84.7802 49.9228L84.7803 49.923C84.7979 49.9583 84.8108 49.9841 84.8182 50C88.0042 56.8049 109.397 70.7874 150.85 83.2818C128.959 72.79 113.442 62.0296 113.442 62.0296C113.442 62.0296 91.0505 31 222.761 31C280.38 31 309.043 35.9075 322.668 41.8193L331 40.9453L329.204 45.4963C339.851 53.5779 329.448 62.0296 329.448 62.0296C329.448 62.0296 316.665 71.3077 297.851 81.0335Z" fill="white"/>
<rect x="640.006" y="493.676" width="5" height="320.313" transform="rotate(47.837 640.006 493.676)" fill="black"/>
<rect width="5" height="320.313" transform="matrix(-0.795347 0.606154 0.606154 0.795347 -149.699 440.461)" fill="black"/>
<path d="M221 121L109 112.5L-161 230V270L-119 344L-26 317L-60 663L134 782L391 736L346 367V344C410.551 350.189 475.183 353.927 540 356L547 258L364 131L221 121Z" fill="black"/>
<rect x="134" y="194" width="176" height="616" fill="black"/>
<path d="M835 560L298 810V744L835 560Z" fill="black"/>
<path d="M-375 548L150 810L144 727L-375 548Z" fill="black"/>
<path d="M263.277 43C263.277 43 251.535 102 222.91 102C194.285 102 181.545 43 181.545 43C181.545 43 173.073 -16 222.91 -16C277.73 -16 263.277 43 263.277 43Z" fill="white"/>
<ellipse opacity="0.45" cx="265" cy="70" rx="13" ry="20" fill="black" fill-opacity="0.54"/>
<ellipse opacity="0.45" cx="183" cy="68" rx="14" ry="20" fill="black" fill-opacity="0.54"/>
<path d="M702.331 196.925L691.607 235.374L670.5 267C670.5 267 650.199 262.833 644 250.5C629.529 221.711 672.746 192.376 686.5 172.39L713 164.889L702.331 196.925Z" fill="black"/>
<path d="M693 282L745.343 249.179L732.474 202.712L707.676 213.994C707.676 213.994 690.781 208.249 678.417 213.603C668.326 217.974 652 249.179 652 249.179L693 282Z" fill="url(#paint0_linear)"/>
<path d="M706.5 264.5L750 232.5L750 223.5L760 215L754.827 192.885C754.827 192.885 726.137 182.81 706.5 264.5Z" fill="black"/>
<path d="M735 93.3896L757.5 68.3896L805.5 115.39L778.5 107.89L757.5 115.39L735 93.3896Z" fill="black"/>
<path d="M501.205 345.26L537.5 359L561 327L652 280L663 285.39L675 264.89C675 264.89 649.5 264.89 649.5 242.832C648.031 228.078 669 195.89 669 195.89L658 195.89L638 225.5L525.546 251.109L477.427 242.832L461.981 268.355L525.718 290.707L501.205 345.26Z" fill="#1B1B1B"/>
<path d="M800.5 -58.6104C800.5 -58.6104 812.074 -59.6515 818 -56.1104C823.366 -52.9038 828 -43.6104 828 -43.6104L601.335 518.641L570.733 639.485L556.497 656.484L532.913 646.567L565.786 536.884L800.5 -58.6104Z" fill="black"/>
<path d="M538.181 244.39C538.181 244.39 531.916 257.2 539.702 281.805C547.488 306.41 563.977 322.979 563.977 322.979" stroke="white" stroke-opacity="0.14" stroke-width="4" stroke-linecap="round"/>
<path d="M636.5 226C629 244 629.5 262.5 650.04 278.811" stroke="white" stroke-opacity="0.14" stroke-width="4" stroke-linecap="round"/>
<path d="M532 355.39L508 342.39L532 287.39L469 263.39L479 243.39" stroke="white" stroke-opacity="0.14" stroke-width="4"/>
<path fill-rule="evenodd" clip-rule="evenodd" d="M608.028 250.906C604.225 252.609 600.395 254.985 596.832 257.851C593.269 260.718 590.069 264 587.476 267.445C584.883 270.889 582.966 274.406 581.872 277.725C580.779 281.043 580.537 284.076 581.167 286.59C581.797 289.104 583.28 291.032 585.504 292.228C587.728 293.423 590.634 293.853 593.998 293.486C597.361 293.118 601.094 291.963 604.91 290.107C608.726 288.252 612.524 285.746 616.012 282.782L604.812 298.45L574.205 319.268C574.205 319.268 600.29 301.526 587.933 305.108C582.846 305.664 578.452 305.013 575.088 303.205C571.724 301.397 569.48 298.481 568.528 294.678C567.576 290.876 567.941 286.29 569.595 281.271C571.249 276.252 574.148 270.933 578.07 265.723C581.991 260.513 586.832 255.55 592.22 251.215C580.857 253.011 557 245.384 557 245.384L608.028 250.906Z" fill="#4A4A4A"/>
<path d="M784.936 232L955.142 81.2581L921.142 -86.7419L831.142 -21.7419L820.142 -25.2418L799.142 -46.7418L784.936 -33.7419L735.123 93.6371L754.952 81.3759L779.951 104.876L784.936 108.258L784.936 232Z" fill="url(#paint1_linear)"/>
<path d="M784.936 193.889L927.5 71.8895L904.5 -74.1105L831.142 -21.7418L820.142 -25.2418L799.142 -46.7418L784.936 -33.7418L736 90.8894L752 85.9999L779.951 104.876L784.936 108.258L784.936 193.889Z" fill="#232323"/>
<path d="M852.671 167.18L859.523 183.855L861.33 211.599L834.791 193.719L852.671 167.18Z" fill="white"/>
<path d="M705.838 152.842L680.069 176.065L716.44 169.965L740.108 168.429L729.5 157.39L705.838 152.842Z" fill="url(#paint2_linear)"/>
<path d="M733.731 170.235L746.904 174.509L746.588 181.289L732.758 191.099L709.44 194.366L680.873 192.724L733.731 170.235Z" fill="url(#paint3_linear)"/>
<path d="M746.895 169.371L761.585 184.649L762.482 192.511L746.705 205.6L735.323 185.289L746.895 169.371Z" fill="url(#paint4_linear)"/>
<path d="M752.786 174.486L758.283 184.092L753.952 188.939L739.459 189.4L726.606 168.406L752.786 174.486Z" fill="url(#paint5_linear)"/>
<path d="M715.731 175.235L728.904 179.509L728.588 186.289L714.758 196.099L691.44 199.366L662.873 197.724L715.731 175.235Z" fill="#3C3C3C"/>
<path d="M728.895 174.371L743.585 189.649L744.482 197.511L728.705 210.6L717.323 190.289L728.895 174.371Z" fill="black"/>
<path d="M734.786 179.486L740.283 189.092L735.952 193.939L721.459 194.4L708.606 173.406L734.786 179.486Z" fill="url(#paint6_linear)"/>
<path d="M709.872 197.799L723.046 202.072L722.73 208.853L708.9 218.663L685.582 221.93L673 214.89L709.872 197.799Z" fill="#3C3C3C"/>
<path d="M723.895 201.371L738.586 216.649L739.482 224.511L723.705 237.6L712.323 217.289L723.895 201.371Z" fill="black"/>
<path d="M729.786 206.486L735.283 216.092L730.952 220.939L716.46 221.4L703.606 200.406L729.786 206.486Z" fill="url(#paint7_linear)"/>
<path d="M694.489 225.982L707.663 230.255L707.347 237.036L693.517 246.846L670.199 250.112L662.259 241.136L694.489 225.982Z" fill="#3C3C3C"/>
<path d="M707.653 225.117L722.344 240.395L723.241 248.257L707.463 261.347L696.082 241.036L707.653 225.117Z" fill="url(#paint8_linear)"/>
<path d="M713.544 230.233L719.042 239.839L714.711 244.686L700.218 245.146L687.364 224.152L713.544 230.233Z" fill="url(#paint9_linear)"/>
<path d="M320.878 195.943C324.616 231.749 313 329 253 329C122 329 106.32 247.504 102.27 208.715C98.2194 169.926 148.127 133.546 205.471 127.558C262.815 121.571 317.139 160.138 320.878 195.943Z" fill="url(#paint10_linear)"/>
<path d="M326.046 344.811L216.874 379L114.299 356.873C162 344.811 194.528 298.331 253 295C311.473 291.669 326.046 344.811 326.046 344.811Z" fill="#1D1D1D"/>
<path d="M320.878 195.943C324.616 231.749 263 288 263 288C263 288 108.05 241.789 104 203C99.9497 164.211 139.943 127.558 205.471 127.558C271 127.558 317.139 160.138 320.878 195.943Z" fill="url(#paint11_linear)"/>
<path d="M330.508 374.367C330.508 374.367 297.032 323.387 253.971 322.154C210.911 320.92 162.577 369.556 162.577 369.556C213.181 410.665 296.01 459.519 330.508 374.367Z" fill="black" fill-opacity="0.87"/>
<path d="M389.275 233.01C393.11 231.405 401.525 167.952 403.537 160.335C403.537 160.335 388.542 128.276 372.809 120.588C364.982 116.763 356.38 114.79 347.668 114.822C338.957 114.853 330.369 116.888 322.57 120.77C314.771 124.651 307.969 130.274 302.691 137.205L344.444 169.004L389.275 233.01Z" fill="#2D2D2D"/>
<path d="M322.112 225.304C326.247 225.728 363.965 174.012 369.372 168.283C369.372 168.283 371.523 132.956 361.378 118.684C356.33 111.584 361.378 94.8326 361.378 94.8326C361.378 94.8326 325.867 95.1509 317.161 94.8327C308.456 94.5144 299.793 96.2032 291.845 99.7682L313.323 147.656L322.112 225.304Z" fill="#1D1D1D"/>
<path d="M298.999 210.5C303.144 210.826 325.397 176.118 330.668 170.263L330.668 109C330.668 109 292.292 98.261 276.749 98.0577C268.038 97.9437 253.862 120.25 245.999 124L295.999 140L298.999 210.5Z" fill="#2D2D2D"/>
<path opacity="0.2" d="M257 212L151 132.053L219.095 103L294 132.053L257 212Z" fill="white" fill-opacity="0.5"/>
<path d="M252 197L167 135L223.667 112L286 135L252 197Z" fill="black"/>
<path d="M261 387.5C285.756 381.53 325 400 325 400L309.15 414L334 491L300.5 608.5L267.5 541C267.5 541 202.673 401.567 261 387.5Z" fill="url(#paint12_linear)"/>
<path d="M114.019 404.457C114.019 404.457 136.184 385 206 385L162.978 404.457L169 491.5L169 496L171.431 514.521L136.184 604.179L109 767C109 767 130.037 641 63.0001 538C73.922 513.933 101 482 101 482L123.544 416L114.019 404.457Z" fill="url(#paint13_linear)"/>
<path d="M300.666 427.632L275.818 396.819L261.066 530.043L272.922 632.108L267.371 798.534L316.255 787.461L313.587 630.253L300.049 528.264L300.049 469.5L297 447.5L300.049 447.5L300.666 427.632Z" fill="url(#paint14_linear)"/>
<path d="M180.223 419.454L203.122 389.878L205.617 526.278L180.073 625.804L163.077 791.453L113.529 783.06L140.032 618.469L167.232 519.246L180.223 419.454Z" fill="url(#paint15_linear)"/>
<path d="M269.181 398.401L246.81 376.58L209.771 392.849L206.5 440L212 440L206.5 443L198.297 627.366L162.532 790.836L237.039 804.3L261.687 544.329L265 433L261.687 428L266.5 426.5L269.181 398.401Z" fill="url(#paint16_linear)"/>
<path d="M49.9224 241.492C46.4176 240.351 25.9176 169.988 22.8312 162.345C22.8312 162.345 30.7328 124.503 43.9469 113.759C50.521 108.414 58.1692 105.029 66.2999 103.866C74.4307 102.702 82.8259 103.792 90.8363 107.051C98.8466 110.31 106.257 115.651 112.495 122.659L79.5882 163.892L49.9224 241.492Z" fill="#343434"/>
<path d="M115.155 229.609C111.951 230.492 65.7083 177.496 60.2575 172.471C60.2575 172.471 51.5486 133.341 58.3022 116.017C61.6622 107.398 58.3023 83.3155 58.3023 83.3155C58.3023 83.3155 86.9556 84.8681 95.0146 83.3154C103.074 81.7628 111.473 82.456 119.563 85.3415L108.618 141.741L115.155 229.609Z" fill="#1D1D1D"/>
<path d="M166.675 223.291C163.704 225.03 109.723 184.337 103.476 180.699C103.476 180.699 87.8979 144.084 91.1761 125.139C92.8071 115.714 96.2862 107.029 101.344 99.7571C106.403 92.485 112.904 86.8203 120.347 83.2011C187 83.2011 178.709 124.359 187 125.139L144.181 137.716L166.675 223.291Z" fill="#2D2D2D"/>
<path d="M235.218 47.6889C236.179 46.5312 236.993 43.6344 236.993 43.6344C236.993 43.6344 233.841 35.3384 229.235 34.5809C224.6 35.1397 221.095 43.2926 221.095 43.2926C221.095 43.2926 221.783 46.2216 222.694 47.4196L229.063 42.579L235.218 47.6889Z" fill="#484848" fill-opacity="0.87"/>
<path d="M281 82.4874C281 82.4874 228 114 222 114C216 114 166 81.6471 166 81.6471C166 81.6471 202.961 64 224.5 64C246.039 64 281 82.4874 281 82.4874Z" fill="black"/>
<rect x="205.073" y="57" width="11" height="11" transform="rotate(33.5093 205.073 57)" fill="black"/>
<rect x="187.077" y="64" width="11" height="11" transform="rotate(21.7527 187.077 64)" fill="black"/>
<rect x="251" y="68.0725" width="11" height="11" transform="rotate(-21.7293 251 68.0725)" fill="black"/>
<rect x="235" y="62.7297" width="11" height="11" transform="rotate(-25.4666 235 62.7297)" fill="black"/>
<rect x="223.584" y="55" width="11" height="11" transform="rotate(43.5908 223.584 55)" fill="black"/>
<path d="M49 118.5L86.0951 184.509L53.0951 221.509L70.132 180.509L49 118.5Z" fill="black"/>
<path d="M107.5 133.5L141.298 199.086L121 221.5L127 191.5L107.5 133.5Z" fill="black"/>
<path d="M308 193.5L349 135.5L322.5 193.5L322.5 225L308 193.5Z" fill="black"/>
<path d="M387 134C575 154 342.987 191.002 310 197C318 224 266.5 254 266.5 254C266.5 254 190 242 125 190C54 190 -120 93 36 118" stroke="black" stroke-width="4"/>
<path d="M117 233C132.976 271.899 226.575 275.624 264.5 289C288 269 311.068 257.829 326 226" stroke="black" stroke-width="4"/>
<path d="M156.489 -8.84347L187.441 52.5237L196.26 110.715L168.464 58.8366L156.489 -8.84347Z" fill="black"/>
<path d="M292.7 -4.16409L278.859 62.952L252.153 115.134L262.776 57.4858L292.7 -4.16409Z" fill="black"/>
<path d="M303.199 29.6766L282.285 66.6984L274.801 102.324L293.461 71.0673L303.199 29.6766Z" fill="black"/>
<path d="M135.802 30.997L148.98 71.424L170.198 101.003L159.75 66.1322L135.802 30.997Z" fill="black"/>
<path d="M246 426L240.827 429.039L246 437.846L251.173 429.039L246 426ZM246 426C251.173 429.039 251.174 429.039 251.174 429.038L251.175 429.037L251.178 429.031L251.191 429.009L251.24 428.925L251.428 428.604C251.592 428.324 251.831 427.914 252.134 427.391C252.742 426.345 253.608 424.846 254.647 423.028C256.723 419.396 259.496 414.478 262.274 409.354C265.044 404.247 267.858 398.862 269.993 394.319C271.057 392.054 271.995 389.909 272.68 388.063C273.262 386.493 274 384.293 274 382.306C274 375.773 268.977 371.379 264.299 368.975C259.307 366.409 252.828 365 246 365C239.172 365 232.693 366.409 227.701 368.975C223.023 371.379 218 375.773 218 382.306C218 384.293 218.738 386.493 219.32 388.063C220.005 389.909 220.943 392.054 222.007 394.319C224.142 398.862 226.956 404.247 229.726 409.354C232.504 414.478 235.277 419.396 237.353 423.028C238.392 424.846 239.258 426.345 239.866 427.391C240.169 427.914 240.408 428.324 240.572 428.604L240.76 428.925L240.809 429.009L240.822 429.031L240.825 429.037L240.826 429.038C240.826 429.039 240.827 429.039 246 426Z" stroke="black" stroke-width="12"/>
<path d="M176 137C176 137 160.808 139.364 147.022 128.341C133.235 117.317 124.229 93.7133 124.229 93.7133C124.229 93.7133 150.704 95.4693 164.491 106.492C178.277 117.516 176 137 176 137Z" fill="black"/>
<path d="M297.832 142.527C283.777 150.517 268.5 142.527 268.5 142.527C268.5 142.527 269.275 125.008 283.33 117.018C297.386 109.027 323 113 323 113C323 113 311.887 134.537 297.832 142.527Z" fill="black" fill-opacity="0.87"/>
<path d="M266.314 196.515C267.522 199.466 267.963 203.66 267.744 208.647C267.528 213.558 266.693 218.866 265.648 223.818C264.759 228.035 263.731 231.931 262.844 235.012C260.026 231.702 256.222 227.153 252.235 222.15C248.221 217.115 244.046 211.651 240.509 206.545C236.929 201.377 234.163 196.8 232.806 193.485C231.696 190.772 231.654 187.472 232.514 183.736C233.372 180.013 235.06 176.16 237.018 172.599C238.956 169.076 241.086 165.969 242.746 163.728C242.821 163.811 242.897 163.895 242.974 163.981C245.043 166.288 247.864 169.516 250.87 173.2C256.98 180.689 263.501 189.641 266.314 196.515Z" fill="black" stroke="black" stroke-width="8"/>
<path opacity="0.5" d="M401.27 160.353C421 178 401.27 243 401.27 243C401.27 243 334 316 317 294" stroke="#464646" stroke-width="8"/>
<path opacity="0.5" d="M423.5 183.5C445.687 195.323 416.5 270 416.5 270C416.5 270 362.73 320.427 357 292" stroke="#464646" stroke-width="8"/>
<path opacity="0.5" d="M105 286C94.4049 310.094 21.2582 215.847 3.49997 211.995C3.49997 211.995 -15.512 170.741 12.3813 162.894" stroke="#464646" stroke-width="8"/>
<path opacity="0.5" d="M65 303C49.5 349.5 -28.8357 243.381 -28.8357 243.381C-28.8357 243.381 -21.279 201.676 -4.30195 196.9" stroke="#464646" stroke-width="8"/>
<path d="M-228 616.664C-228 616.664 -115 518.549 -65 177C-62.227 158.058 64 96.6284 64 96.6284L58 116.5C58 116.5 30.4394 136.677 18 151C5.56064 165.323 44 440.435 44 570C44 699.565 5.06667 695.109 -36 695.992C-77.0667 696.874 -216.049 626.225 -228 616.664Z" fill="url(#paint17_linear)"/>
<path d="M188 87H259L252 127H194L188 87Z" fill="black"/>
<path opacity="0.15" d="M222.606 56.75L229.5 62.5L226.606 66.5V134.5L215.106 167.75L209 162.5L221.5 132L222.606 56.75Z" fill="#C4C4C4"/>
<path opacity="0.15" d="M244.442 57.0288L248.101 67.5934L245.5 70L240 134.5L264 198L244.442 162L241 199L235 136.5L244.442 57.0288Z" fill="#C4C4C4"/>
<path opacity="0.15" d="M261 67.5L263 73L260.5 75.5L249 125L275.5 152L272.5 157.5L245 128L261 67.5Z" fill="#C4C4C4"/>
<path opacity="0.15" d="M188.5 66.0001L195 69.0001L193.5 72.0001L205 127L174 137.5L180 133L201 126L188.5 66.0001Z" fill="#C4C4C4"/>
<path opacity="0.15" d="M205.5 58.5L212.5 64L209 69.5L216 129.5L194 152.5L189 149L210.859 128.5L205.5 58.5Z" fill="#C4C4C4"/>
<path d="M492 543.122C499.858 533.96 483 574.122 483 574.122C483 574.122 565.559 501.063 558 516.122C517.409 596.977 387 716.584 387 716.584C387 716.584 435.19 609.353 492 543.122Z" fill="white"/>
<rect width="10.3171" height="10.3171" transform="matrix(-0.369879 0.92908 -0.971964 0.235129 646.16 490.35)" fill="black"/>
<path d="M684.725 456.89L652.178 493.535L638.744 496.785L643.856 483.943L684.725 456.89Z" fill="black"/>
<path d="M22.5 131.5C15.1667 131.167 0.400004 138.6 4.36604e-06 171C-1.88863 323.979 29 434 22.5 575" stroke="black" stroke-opacity="0.87" stroke-width="2"/>
<path d="M300.353 779.5L514.853 676.5C557 559 463 615 463 615C463 615 508 334.733 508 273C508 210 459.101 171.768 427.5 158C415.892 152.943 397 147 397 147C397 147 415.871 169.426 421.5 193C447.051 300 282 717 282 717C282 717 351.18 612.335 300.353 779.5Z" fill="url(#paint18_linear)"/>
<path d="M262 334L252.5 350L243 334L252.5 318L262 334Z" fill="#1F1F1F"/>
<path d="M262 373L252.5 389L243 373L252.5 357L262 373Z" fill="#1F1F1F"/>
<path d="M278 356L268 372L258 356L268 340L278 356Z" fill="#313131"/>
<path d="M287 378L280 394L273 378L280 362L287 378Z" fill="#1F1F1F"/>
<path d="M295 383V390L290 376.5V367L295 383Z" fill="#1F1F1F"/>
<path d="M287 363V370L282 356.5V347L287 363Z" fill="#1F1F1F"/>
<path d="M278.9 343.882L279.747 350.831L273.15 338.035L272 328.605L278.9 343.882Z" fill="#1F1F1F"/>
<path d="M247 355L236 371L225 355L236 339L247 355Z" fill="#1F1F1F"/>
<path d="M231 376L220 392L209 376L220 360L231 376Z" fill="#373737"/>
<path d="M241 324L230 340L219 324H230H241Z" fill="#111111"/>
<path d="M223 345L212 361L201 345L212 329L223 345Z" fill="#111111"/>
<path d="M207 366L196 382L185 366L196 350L207 366Z" fill="#111111"/>
<path d="M192 387L181 403L170 387L181 371L192 387Z" fill="#111111"/>
<path d="M172 372L161 388L150 372L161 356L172 372Z" fill="#111111"/>
<path d="M157 393L146 409L135 393L146 377L157 393Z" fill="#111111"/>
<path d="M212 397L201 413L190 397L201 381L212 397Z" fill="#1F1F1F"/>
<path d="M194 418L183 434L172 418L183 402L194 418Z" fill="#1F1F1F"/>
<path d="M178 439L167 455L156 439L167 423L178 439Z" fill="#282828"/>
<path d="M163 460L152 476L141 460L152 444L163 460Z" fill="#1F1F1F"/>
<path d="M147 481L136 497L125 481L136 465L147 481Z" fill="#212121"/>
<path d="M131 502L120 518L109 502L120 486L131 502Z" fill="#212121"/>
<path d="M116 523L105 539L94 523L105 507L116 523Z" fill="black"/>
<path d="M102 542L91 558L80 542L91 526L102 542Z" fill="black"/>
<path d="M88 561L77 577L66 561L77 545L88 561Z" fill="black"/>
<path d="M177 403L166 419L155 403L166 387L177 403Z" fill="#1F1F1F"/>
<path d="M159 424L148 440L137 424L148 408L159 424Z" fill="#1F1F1F"/>
<path d="M143 445L132 461L121 445L132 429L143 445Z" fill="#1F1F1F"/>
<path d="M128 466L117 482L106 466L117 450L128 466Z" fill="black"/>
<path d="M114 486L103 502L92 486L103 470L114 486Z" fill="black"/>
<path d="M100 506L89 522L78 506L89 490L100 506Z" fill="black"/>
<path d="M86 526L75 542L64 526L75 510L86 526Z" fill="black"/>
<path d="M72 546L61 562L50 546L61 530L72 546Z" fill="black"/>
<path d="M141 412L130 428L119 412L130 396L141 412Z" fill="black"/>
<path d="M126 430L115 446L104 430L115 414L126 430Z" fill="black"/>
<path d="M122.059 234.535C114.407 248.806 79.9999 258 79.9999 258C79.9999 258 62.724 221.094 70.3765 206.823C78.0289 192.551 95.802 187.185 110.074 194.837C124.346 202.49 129.712 220.263 122.059 234.535Z" fill="black"/>
<path d="M300 123C300 123 294.538 133 291.5 133C288.462 133 284.5 131.5 284.5 131.5C284.5 131.5 288.462 123 291.5 123C294.538 123 300 123 300 123Z" fill="#2C2C2C"/>
<path d="M163 122C163 122 158.538 122 155.5 122C152.462 122 150 112.25 150 112.25C150 112.25 154.462 112.25 157.5 112.25C160.538 112.25 163 122 163 122Z" fill="#2C2C2C"/>
<path d="M259 198.5C259 201.538 257.5 208 257.5 208C257.5 208 249 201.538 249 198.5C249 195.462 252 191.5 252 191.5C252 191.5 259 195.462 259 198.5Z" fill="#2C2C2C"/>
<path d="M436 125.5L401.5 180.5L410.5 220.5L385 184L436 125.5Z" fill="black"/>
<path d="M387 136L355.325 192.023L358.5 224L339.825 192.023L387 136Z" fill="black"/>
<path d="M190.925 19.598C190.925 19.598 205.127 16.9166 212.464 20.6999C224.622 26.9695 218.29 49.3787 218.29 49.3787C218.29 49.3787 213.552 50.9058 204.848 51.9136C193.172 44.802 190.925 19.598 190.925 19.598Z" fill="url(#paint19_linear)"/>
<path d="M266.388 19.5893C266.388 19.5893 252.211 17.1042 244.858 20.7654C232.673 26.8328 238.874 48.2374 238.874 48.2374C238.874 48.2374 243.6 49.6716 252.292 50.5867C263.999 43.7163 266.388 19.5893 266.388 19.5893Z" fill="url(#paint20_linear)"/>
<path d="M219 28.5C219 34.299 214.299 39 208.5 39C202.701 39 197 36.299 197 30.5C197 24.701 202.701 18 208.5 18C214.299 18 219 24.5 219 28.5Z" fill="#3A3A3A"/>
<path d="M260.5 29.5C260.5 35.299 255.299 39 249.5 39C243.701 39 239 34.299 239 28.5C239 25 243.701 18 249.5 18C255.299 18 260.5 23.701 260.5 29.5Z" fill="#3A3A3A"/>
<path d="M-1.5 94L36 163.5L-1.5 188.5L20.5 158.5L-1.5 94Z" fill="black"/>
<path d="M411.5 152.5C483 194 382 500 345 600" stroke="#171717" stroke-width="2"/>
<rect x="22.6569" y="570" width="8" height="8" transform="rotate(45 22.6569 570)" fill="black"/>
<rect x="15.9724" y="401" width="8" height="8" transform="rotate(38.4294 15.9724 401)" fill="black"/>
<rect x="1.47925" y="242" width="8" height="8" transform="rotate(43.2284 1.47925 242)" fill="black"/>
<rect x="346.065" y="596" width="8" height="8" transform="rotate(62.0258 346.065 596)" fill="black"/>
<rect x="402.065" y="426" width="8" height="8" transform="rotate(62.0258 402.065 426)" fill="black"/>
<rect x="433.945" y="261" width="8" height="8" transform="rotate(47.9981 433.945 261)" fill="black"/>
<path fill-rule="evenodd" clip-rule="evenodd" d="M884.307 427.049L376 734C376 734 571.696 584.226 658 504C800 372 884.307 223 884.307 223L884.307 427.049ZM610.492 578.422C613.156 576.104 615.539 574.029 617.43 572.419C620.304 569.971 629.166 562.885 640.662 553.693C673.335 527.568 727.288 484.429 725.543 482.38C725.543 482.38 602.954 572.832 591.911 582.238C580.868 591.645 573.828 601.515 576.187 604.285C578.142 606.58 597.6 589.644 610.492 578.422Z" fill="white"/>
<path d="M321 720.647C321 764.278 343.221 795 380.5 795C417.779 795 407 735.518 439 702.988C439 659.358 380.5 637 380.5 637C380.5 637 321 677.017 321 720.647Z" fill="#C4C4C4"/>
<path fill-rule="evenodd" clip-rule="evenodd" d="M677 569L674.645 564.992L651.598 579.483C648.056 577.424 641.032 574 633.5 574C624.987 574 619.31 593.059 617.305 601.045L328.611 782.562L331.272 786.795L618.285 605.988C621.168 608.175 627.309 612 635 612C643.68 612 650.71 591.863 653.112 584.048L677 569ZM647.723 581.919C647.221 581.661 646.682 581.395 646.108 581.13C642.596 579.504 638.074 578 633.5 578C632.792 578 631.424 578.545 629.525 581.132C627.739 583.566 626.102 586.992 624.699 590.674C623.749 593.169 622.945 595.678 622.298 597.905L647.723 581.919ZM621.94 603.685L647.806 587.391C647.002 589.692 646.015 592.298 644.876 594.891C643.228 598.644 641.349 602.165 639.368 604.683C637.248 607.379 635.751 608 635 608C630.537 608 626.602 606.439 623.697 604.778C623.048 604.407 622.461 604.036 621.94 603.685Z" fill="black" fill-opacity="0.38"/>
<path d="M41.1684 572.388C47.4865 582.076 49.2663 590.909 49.2663 590.909L32.5 590.909C32.5 590.909 4.50724 579.886 12 575C19.4928 570.114 34.8503 562.699 41.1684 572.388Z" fill="#C4C4C4"/>
<path d="M83 640.253C83 657.756 71.4286 681 71.4286 681C71.4286 681 56.9643 655.848 29 640.253C29 626.258 32.375 603.531 32.375 603.531C32.375 603.531 54.794 602.336 59.375 603.531C69.0178 606.046 83 622.75 83 640.253Z" fill="#8B8B8B"/>
<path d="M343.132 693.881C345.676 697.19 339.832 705.95 339.832 705.95C339.832 705.95 329.746 699.758 327.203 696.448C320.634 687.903 281.455 631.848 281.455 631.848C286.5 631.848 340.588 690.572 343.132 693.881Z" fill="#E8E8E8"/>
<path fill-rule="evenodd" clip-rule="evenodd" d="M-305.101 402.988C-309.483 403.676 -320.361 403.755 -334.35 392.252C-357.291 373.388 -409 358 -409 358L-392.249 374.381L-409 388.777C-394.313 389.108 -359.258 393.245 -336.535 407.144C-313.63 421.155 -288.951 424.831 -280.254 425.729L97 771V765L-306.816 394.641L-310.186 398.335L-305.101 402.988Z" fill="#C4C4C4"/>
<path d="M91.8801 724.447C95.8137 721.52 99.0219 717.728 101.257 713.364C103.492 709 104.695 704.18 104.772 699.278C104.849 694.375 103.798 689.52 101.701 685.088C99.6033 680.656 96.5155 676.765 92.6756 673.716C88.8358 670.667 84.3466 668.541 79.5546 667.502C74.7626 666.463 69.796 666.54 65.0383 667.725C60.2805 668.911 55.8588 671.174 52.1146 674.34C48.3703 677.506 45.4037 681.49 43.4436 685.984L72.7758 698.776L91.8801 724.447Z" fill="#8B8B8B"/>
<path d="M110.009 771.807C113.942 768.88 116.831 764.659 118.453 759.47C120.074 754.282 120.385 748.264 119.361 741.882C118.337 735.499 116.005 728.923 112.546 722.661C109.087 716.399 104.593 710.619 99.4106 705.766C94.2285 700.913 88.497 697.118 82.6586 694.673C76.8202 692.228 71.0311 691.199 65.7382 691.666C60.4452 692.132 55.7901 694.082 52.132 697.363C48.474 700.645 45.911 705.171 44.6408 710.593L81.84 733.956L110.009 771.807Z" fill="#8B8B8B"/>
<path d="M322 612.314L319.5 618L324.5 620.5L333.644 672L390 649.044L365 606V599H359.726L322 612.314Z" fill="#A6A4A4"/>
<path d="M459 613.5C459 630.897 451 690 451 690C451 690 544 634 521 603C521 585.603 466 580 466 580C466 580 459 596.103 459 613.5Z" fill="#A6A4A4"/>
<path d="M440.5 667.5C440.5 684.897 451 690 451 690L455 658.5L466 584C466 584 440.5 650.103 440.5 667.5Z" fill="#8B8B8B"/>
<path d="M38.7105 595.404L44.801 594.276L33.5984 587.615C33.5984 587.615 23.2307 585.667 26.6852 588.755C30.1397 591.844 38.7105 595.404 38.7105 595.404Z" fill="#C4C4C4"/>
<path d="M621 618C621 618 546.062 747.962 500 778C453.939 808.038 429.648 808.995 414 785C387.263 744 454 691 454 691L534 646L621 618Z" fill="#8B8B8B"/>
<path d="M21.4999 689C6.65431 701.446 -22.0001 706.5 -22.0001 706.5C-22.0001 706.5 -26.9653 675.981 -12.1197 663.535C2.72598 651.089 21.0748 648.531 28.8636 657.822C36.6523 667.112 36.3456 676.554 21.4999 689Z" fill="#8B8B8B"/>
<rect x="508.086" y="471" width="5" height="320.313" transform="rotate(39.5793 508.086 471)" fill="#C4C4C4"/>
<path d="M83 636.253C83 653.756 71.4286 677 71.4286 677C71.4286 677 56.9643 651.848 29 636.253C29 622.258 32.375 599.531 32.375 599.531C32.375 599.531 54.794 598.336 59.375 599.531C69.0178 602.046 83 618.75 83 636.253Z" fill="#A6A4A4"/>
<path d="M87.5 630.724C87.5 648.121 79.5 669.224 79.5 669.224C79.5 669.224 76.5001 651 62.5 643.5C84 640 69.5001 623.224 69.5001 623.224C69.5001 623.224 87.5 620.974 87.5 630.724Z" fill="#C6C6C6"/>
<path d="M374 792L408.937 661.929C408.937 661.929 419.21 661.478 416 655.5C412.79 649.522 399.815 645.464 394.295 641.519C388.774 637.575 392.196 630.599 385.5 629.5C349.606 623.607 325.421 669.54 328 696L368.55 677.55C368.55 677.55 412 700 438 713C464 726 374 792 374 792Z" fill="#8B8B8B"/>
<path d="M551.937 678.713C554.54 672.925 555.869 666.644 555.832 660.297C555.796 653.951 554.396 647.686 551.727 641.927C549.058 636.169 545.182 631.052 540.362 626.922C535.543 622.793 529.892 619.747 523.792 617.993C517.693 616.238 511.287 615.815 505.01 616.752C498.732 617.69 492.73 619.966 487.409 623.426C482.088 626.886 477.573 631.449 474.17 636.806C470.767 642.164 468.556 648.19 467.685 654.477L511.55 660.55L551.937 678.713Z" fill="#8B8B8B"/>
<rect width="12.5052" height="12.5052" transform="matrix(0.152498 0.988304 -0.594656 0.80398 317.046 454.264)" fill="#C4C4C4"/>
<path d="M332.449 391.828L324.046 452.801L314.084 466.271L311.529 449.713L332.449 391.828Z" fill="#C4C4C4"/>
<rect width="11.3656" height="11.3656" transform="matrix(-0.271909 0.962323 -0.940994 0.338422 518.79 462.835)" fill="#ADADAD"/>
<path d="M557.192 421.652L525.733 465.602L511.405 470.755L515.545 456.102L557.192 421.652Z" fill="#ADADAD"/>
<path d="M22.9074 573.197C32.9296 588.565 -17.0001 615.5 -17.0001 615.5L-55 605L-39.0001 588.565C-39.0001 588.565 19.1925 567.5 22.9074 573.197Z" fill="#C4C4C4"/>
<path d="M12.4185 664.656C7.77785 676.598 -6.44258 684.583 -6.44258 684.583C-6.44258 684.583 -67.738 647.253 -63.0974 635.311C-58.4567 623.369 -37.7899 620.257 -16.9368 628.36C3.91636 636.464 17.0592 652.714 12.4185 664.656Z" fill="#C4C4C4"/>
<path d="M195.5 733C195.5 779.944 207.5 789.5 207.5 789.5C207.5 789.5 110 762.944 110 716C110 669.056 157 638.5 183 650C200.5 679 195.5 686.056 195.5 733Z" fill="#C4C4C4"/>
<path d="M195.619 709.5L195.619 742.378C195.619 742.378 161.241 734.611 148.125 714.5C135.01 694.389 137.219 676.661 148.125 669.548C159.032 662.436 195.619 709.5 195.619 709.5Z" fill="#8B8B8B"/>
<path d="M212 727C239.403 778.846 202.019 822 202.019 822C202.019 822 228.058 815.827 195.869 751.505C163.681 687.183 189.209 649.414 202.019 649.34C214.829 649.265 184.597 675.154 212 727Z" fill="#8B8B8B"/>
<path d="M182 679.5C183.505 691.054 175.73 702.581 161 704.5C146.269 706.419 133.505 698.554 132 687C130.495 675.446 153.839 660.201 153.839 660.201C153.839 660.201 180.495 667.946 182 679.5Z" fill="#8B8B8B"/>
<path d="M189.858 683.499C192.384 677.999 193.611 671.992 193.447 665.942C193.282 659.891 191.729 653.96 188.908 648.605C183.237 637.842 165.95 639.064 153.961 636.999C76.2962 651.909 -59 689 -59 689C-59 689 148 638.165 107 688.999C107 688.999 133 657.999 157.5 657.999C182 657.999 189.858 683.499 189.858 683.499Z" fill="#8B8B8B"/>
<path fill-rule="evenodd" clip-rule="evenodd" d="M68.1102 747.147C76.1589 741.778 82.3721 735.159 85.0733 727.013C97.3479 689.993 83.0756 651.951 53.195 642.044C23.3145 632.136 -23.1337 691.135 -23.1337 691.135L-12 769.5C-12 769.5 -3.73769 768.967 8.00221 767.109C8.21203 748.787 23.1291 734 41.5 734C52.3457 734 61.9877 739.154 68.1102 747.147Z" fill="#B1AFAF"/>
<path d="M-70.7065 686L-42.0001 742L-7.56381 750.475C-7.56381 750.475 -8.32957 727.975 -18.8388 723.693C-29.348 719.411 -70.7065 686 -70.7065 686Z" fill="white"/>
<path d="M226.412 636.28C226.412 636.28 219.532 639.449 215.725 646.243C212.756 651.544 207.606 667.162 207.606 667.162C207.606 667.162 191.838 666.911 183.133 660.2C174.768 653.75 167.311 639.081 167.311 639.081C167.311 639.081 178.818 632.017 182.806 627.535C187.21 622.586 187.922 611.328 187.922 611.328L215.347 612.031L226.412 636.28Z" fill="#A6A4A4"/>
<path d="M40.5 773.5C40.5 773.5 66.7432 721.759 60 710.499C52.0299 697.191 23.7045 697.878 23.7045 697.878L79.5 680C79.5 680 93.1648 699.847 88.5 721C74.6648 716.468 40.5 773.5 40.5 773.5Z" fill="#C4C4C4"/>
<ellipse cx="313.781" cy="733.027" rx="46.4808" ry="21.7549" transform="rotate(-42.7191 313.781 733.027)" fill="#8B8B8B"/>
<path d="M308.146 725.337C308.146 725.337 297 795 247.666 830.51C221.934 791.569 231 725.337 231 725.337L267.465 692.573L308.146 725.337Z" fill="#7B7B7B"/>
<path d="M360.229 701.993C371.582 714.289 349.5 759.219 349.5 759.219C349.5 759.219 335.883 747.254 324.529 734.958C313.175 722.662 311.963 705.315 321.821 696.212C331.679 687.109 348.875 689.697 360.229 701.993Z" fill="#8B8B8B"/>
<circle cx="66" cy="634" r="4" fill="#C4C4C4"/>
<path d="M15.3312 682.136C20.0764 680.901 24.4744 678.592 28.1856 675.388C31.8968 672.183 34.822 668.169 36.7353 663.654C38.6486 659.14 39.4989 654.246 39.2205 649.351C38.9421 644.455 37.5425 639.689 35.1296 635.421C32.7168 631.152 29.3553 627.495 25.3047 624.732C21.2541 621.969 16.6227 620.174 11.7681 619.485C6.91348 618.796 1.96546 619.232 -2.69395 620.759C-7.35335 622.286 15.0949 619.162 14.9396 639.506C14.7843 659.85 0.807817 670.37 0.807817 670.37L15.3312 682.136Z" fill="#C9C9C9"/>
<path d="M14.8801 674.447C18.8137 671.52 22.0219 667.728 24.2572 663.364C26.4925 659 27.695 654.18 27.7718 649.278C27.8487 644.375 26.7979 639.52 24.7006 635.088C22.6033 630.656 19.5155 626.765 15.6756 623.716C11.8358 620.667 7.34659 618.541 2.55461 617.502C-2.23738 616.463 -7.20397 616.54 -11.9617 617.725C-16.7195 618.911 -21.1412 621.174 -24.8854 624.34C-28.6297 627.506 -9.00003 616.176 -1.50003 635.088C5.99997 654 -3.00003 669 -3.00003 669L14.8801 674.447Z" fill="#8B8B8B"/>
<path d="M-77.3869 428.297L-91.052 420.98L113.26 688.096L115.236 679.06L-77.3869 428.297Z" fill="#C4C4C4"/>
<path d="M266.003 648.5L261.503 654L269.5 658L266.003 668.5L261.503 671L264.003 674.5L261.503 679.5C261.503 679.5 246.806 691.904 241 683C235.194 674.096 234 678.5 245.503 654C256.254 646.989 266.003 648.5 266.003 648.5Z" fill="#C4C4C4"/>
<path d="M234.547 672.599L249.468 690.651L242.197 693.502L204.822 735.442L193 733L177 737L183.5 720.5L184.84 705.93L230.747 678.969L234.547 672.599Z" fill="#C4C4C4"/>
<rect x="312.117" y="462" width="5" height="448.471" transform="rotate(14.9985 312.117 462)" fill="#C4C4C4"/>
<path d="M483.988 722.45C468.687 730.728 463.224 725.356 455.5 717.079C446.598 707.541 445.807 692.404 455.5 683.67C483.988 658 536.302 643.67 536.302 643.67C536.302 643.67 499.289 714.171 483.988 722.45Z" fill="#5A5A5A"/>
<path d="M481.287 713.472C468.882 720.184 464.453 715.829 458.19 709.118C450.973 701.385 450.332 689.112 458.19 682.031C481.287 661.219 523.702 649.601 523.702 649.601C523.702 649.601 493.693 706.76 481.287 713.472Z" fill="#484848"/>
<path d="M472.5 706.5L460.954 713.929C460.954 713.929 460.285 703.962 466 695C471.715 686.037 470.985 681.82 479.373 687.169C487.762 692.518 472.5 706.5 472.5 706.5Z" fill="#C4C4C4"/>
<path d="M477.955 694.835L472.516 684.263C472.516 684.263 473.159 676.35 475.278 676.21C477.397 676.071 478.691 679.322 479.027 684.422C479.363 689.523 477.955 694.835 477.955 694.835Z" fill="#C4C4C4"/>
<path d="M459.602 683.083L471.47 683.787C471.47 683.787 478.449 680.002 477.72 678.007C476.992 676.012 473.495 676.142 468.694 677.896C463.892 679.65 459.602 683.083 459.602 683.083Z" fill="#C4C4C4"/>
<path d="M474.382 696.151L459.98 688.285C459.98 688.285 464.459 685.811 471.361 687.293C478.263 688.776 481.467 690.921 481.007 693.059C480.548 695.196 474.382 696.151 474.382 696.151Z" fill="#E9E9E9"/>
<path d="M468.89 703.83L450.46 695.099C450.46 695.099 455.928 692.837 464.637 694.708C473.346 696.579 477.467 698.921 477.007 701.059C476.548 703.196 468.89 703.83 468.89 703.83Z" fill="#E9E9E9"/>
<path d="M467.752 705.935L452.354 700.261C452.354 700.261 453.437 705.262 459.093 709.486C464.749 713.709 468.472 714.712 469.78 712.959C471.089 711.207 467.752 705.935 467.752 705.935Z" fill="#E9E9E9"/>
<path d="M458.788 715.453L447.942 709.521C447.942 709.521 451.317 707.653 456.515 708.77C461.714 709.887 464.126 711.504 463.78 713.118C463.433 714.731 458.788 715.453 458.788 715.453Z" fill="#E9E9E9"/>
<circle r="10.3704" transform="matrix(-1 0.000931923 0.000931923 1 441.38 686.38)" fill="white"/>
<path d="M594.724 676C594.724 676 535.775 750.879 518.682 757.78C501.589 764.681 484.841 763.115 481.275 754.282C477.709 745.448 505.768 725.793 505.768 725.793L594.724 676Z" fill="white"/>
<path d="M244.893 596.29C242.893 579.954 228.418 586.523 219.703 582.254C210.989 577.985 200.571 593.028 191.703 595.254C182.836 597.48 196.835 576.01 191.703 583.754C186.572 591.498 138.393 640.954 138.393 640.954C138.393 640.954 164.893 618.113 180.704 615.121C191.779 613.025 209.568 615.121 209.568 615.121L244.893 596.29Z" fill="#8B8B8B"/>
</g>
<defs>
<linearGradient id="paint0_linear" x1="702.882" y1="203.531" x2="704.732" y2="270.401" gradientUnits="userSpaceOnUse">
<stop stop-color="#1E1E1E"/>
<stop offset="1"/>
</linearGradient>
<linearGradient id="paint1_linear" x1="955.394" y1="72.5894" x2="735.922" y2="66.1999" gradientUnits="userSpaceOnUse">
<stop stop-color="#414141"/>
<stop offset="1" stop-color="#414141" stop-opacity="0"/>
</linearGradient>
<linearGradient id="paint2_linear" x1="744.677" y1="147.307" x2="688.932" y2="188.159" gradientUnits="userSpaceOnUse">
<stop stop-color="#474747"/>
<stop offset="1"/>
</linearGradient>
<linearGradient id="paint3_linear" x1="681.446" y1="180.43" x2="746.487" y2="183.461" gradientUnits="userSpaceOnUse">
<stop stop-color="#474747"/>
<stop offset="1"/>
</linearGradient>
<linearGradient id="paint4_linear" x1="736.98" y1="182.207" x2="761.061" y2="195.153" gradientUnits="userSpaceOnUse">
<stop stop-color="#474747"/>
<stop offset="1"/>
</linearGradient>
<linearGradient id="paint5_linear" x1="728.545" y1="166.236" x2="753.952" y2="188.939" gradientUnits="userSpaceOnUse">
<stop stop-color="#474747"/>
<stop offset="1"/>
</linearGradient>
<linearGradient id="paint6_linear" x1="710.545" y1="171.236" x2="735.952" y2="193.939" gradientUnits="userSpaceOnUse">
<stop stop-color="#474747"/>
<stop offset="1"/>
</linearGradient>
<linearGradient id="paint7_linear" x1="705.545" y1="198.236" x2="730.952" y2="220.939" gradientUnits="userSpaceOnUse">
<stop stop-color="#474747"/>
<stop offset="1"/>
</linearGradient>
<linearGradient id="paint8_linear" x1="697.739" y1="237.953" x2="721.82" y2="250.9" gradientUnits="userSpaceOnUse">
<stop stop-color="#474747"/>
<stop offset="1"/>
</linearGradient>
<linearGradient id="paint9_linear" x1="689.303" y1="221.982" x2="714.711" y2="244.686" gradientUnits="userSpaceOnUse">
<stop stop-color="#474747"/>
<stop offset="1"/>
</linearGradient>
<linearGradient id="paint10_linear" x1="302" y1="183" x2="154" y2="287" gradientUnits="userSpaceOnUse">
<stop stop-color="#5F5F5F"/>
<stop offset="1" stop-color="#0A0A0A"/>
</linearGradient>
<linearGradient id="paint11_linear" x1="203.785" y1="127.735" x2="226.028" y2="340.761" gradientUnits="userSpaceOnUse">
<stop stop-color="#1D1D1D"/>
<stop offset="1" stop-color="#0A0A0A"/>
</linearGradient>
<linearGradient id="paint12_linear" x1="308.572" y1="376.124" x2="299.422" y2="777.988" gradientUnits="userSpaceOnUse">
<stop stop-color="#313131"/>
<stop offset="1" stop-color="#363636" stop-opacity="0"/>
</linearGradient>
<linearGradient id="paint13_linear" x1="161.453" y1="374.269" x2="69.1582" y2="757.402" gradientUnits="userSpaceOnUse">
<stop stop-color="#171717"/>
<stop offset="1" stop-color="#363636" stop-opacity="0"/>
</linearGradient>
<linearGradient id="paint14_linear" x1="275.99" y1="396.811" x2="294.261" y2="797.308" gradientUnits="userSpaceOnUse">
<stop stop-color="#474747"/>
<stop offset="1"/>
</linearGradient>
<linearGradient id="paint15_linear" x1="209.074" y1="390.969" x2="136.478" y2="787.264" gradientUnits="userSpaceOnUse">
<stop stop-color="#474747"/>
<stop offset="1"/>
</linearGradient>
<linearGradient id="paint16_linear" x1="240.391" y1="381.383" x2="216.606" y2="731.697" gradientUnits="userSpaceOnUse">
<stop stop-color="#464646"/>
<stop offset="1"/>
</linearGradient>
<linearGradient id="paint17_linear" x1="-45.0001" y1="79" x2="-45.0001" y2="696" gradientUnits="userSpaceOnUse">
<stop/>
<stop offset="1" stop-color="#3C3C3C"/>
</linearGradient>
<linearGradient id="paint18_linear" x1="519.325" y1="166.413" x2="322.06" y2="786.407" gradientUnits="userSpaceOnUse">
<stop stop-color="#202020"/>
<stop offset="1" stop-color="#3C3C3C"/>
</linearGradient>
<linearGradient id="paint19_linear" x1="206.831" y1="19.0378" x2="202.566" y2="51.615" gradientUnits="userSpaceOnUse">
<stop stop-color="#C4C4C4"/>
<stop offset="1" stop-color="#C4C4C4" stop-opacity="0"/>
</linearGradient>
<linearGradient id="paint20_linear" x1="250.496" y1="19.1433" x2="254.574" y2="50.288" gradientUnits="userSpaceOnUse">
<stop stop-color="#C4C4C4"/>
<stop offset="1" stop-color="#C4C4C4" stop-opacity="0"/>
</linearGradient>
</defs>
</svg>
