<svg width="464" height="192" viewBox="0 0 464 192" fill="none" xmlns="http://www.w3.org/2000/svg">
<path fill-rule="evenodd" clip-rule="evenodd" d="M227.757 50.1075C227.283 49.2474 226.79 48.4324 226.282 47.6901C224.011 44.3722 221.301 42.3425 218.597 40.3172C215.854 38.2628 213.117 36.2129 210.851 32.8276C207.031 27.1228 204.064 16.7938 204.064 16.7938C204.064 16.7938 202.49 28.7588 204.959 35.3213C206.329 38.9606 209.036 40.9979 211.73 43.0256C214.498 45.1087 217.253 47.1818 218.53 50.9712C218.877 51.9997 219.114 53.1685 219.269 54.4006C219.079 54.5322 218.891 54.6652 218.705 54.7995C216.966 53.6421 215.189 52.5907 213.516 51.8206C209.756 50.0901 206.314 49.7072 202.879 49.325C199.395 48.9374 195.919 48.5506 192.126 46.7592C185.736 43.7402 177.578 36.2553 177.578 36.2553C177.578 36.2553 182.694 47.4892 188.381 51.9458C191.536 54.4173 194.98 54.8085 198.407 55.1978C201.223 55.5176 204.029 55.8362 206.654 57.3065C204.557 57.3955 202.505 57.5807 200.685 57.9087C196.259 58.7061 192.973 60.4099 189.694 62.1101C186.368 63.8346 183.05 65.5554 178.556 66.3226C170.983 67.6154 159 66.3226 159 66.3226C159 66.3226 170.687 72.4336 178.556 72.7171C182.92 72.8744 186.212 71.1763 189.489 69.4861C192.856 67.7499 196.206 66.022 200.685 66.3226C203.594 66.5178 207.059 67.6037 210.152 68.8269C219.7 75.2167 230.939 85.672 232.401 100C238.661 78.2966 245.569 75.0893 250.798 72.6613C250.881 72.6225 250.964 72.584 251.047 72.5455C255.42 72.7995 261.394 72.9038 265.89 72.0577C270.128 71.2602 273.274 69.5564 276.413 67.8563C279.597 66.1317 282.775 64.4109 287.077 63.6438C294.328 62.351 305.801 63.6438 305.801 63.6438C305.801 63.6438 294.612 57.5327 287.077 57.2492C282.899 57.092 279.747 58.79 276.609 60.4802C273.386 62.2165 270.178 63.9443 265.89 63.6438C263.187 63.4543 259.982 62.4258 257.088 61.2471C259.433 58.6975 260.636 56.0103 261.837 53.3288C263.076 50.5643 264.311 47.8059 266.791 45.2106C270.97 40.837 279.307 36.3512 279.307 36.3512C279.307 36.3512 268.673 37.1889 263.49 40.5471C260.616 42.4094 259.385 45.1394 258.161 47.8566C256.902 50.648 255.65 53.4259 252.629 55.2358C252.033 55.5924 251.363 55.9124 250.645 56.1995C249.713 55.5333 248.711 54.8822 247.649 54.266C247.901 53.4353 248.112 52.6193 248.267 51.8353C248.992 48.1672 248.51 45.0005 248.029 41.8407C247.541 38.6354 247.055 35.4372 247.83 31.7298C249.135 25.4823 254.265 16.9281 254.265 16.9281C254.265 16.9281 244.812 23.3362 241.963 29.1792C240.382 32.4195 240.857 35.5888 241.329 38.7434C241.814 41.984 242.297 45.209 240.548 48.4791C240.153 49.2157 239.639 49.9602 239.046 50.6958C238.596 50.5807 238.142 50.4758 237.684 50.3818C237.584 48.4164 237.406 46.5069 237.118 44.7894C236.321 40.0338 234.617 36.5031 232.917 32.9801C231.192 29.4065 229.472 25.8408 228.704 21.0123C227.412 12.8755 228.704 0 228.704 0C228.704 0 222.593 12.5571 222.31 21.0123C222.153 25.7012 223.851 29.2389 225.541 32.76C227.277 36.3772 229.005 39.9769 228.704 44.7894C228.601 46.4439 228.248 48.2659 227.757 50.1075Z" fill="#898989"/>
<path d="M232.603 72.7273C225.906 72.7273 220.279 65.8436 220.279 64.8602C220.279 63.8769 226.441 57.2391 233.675 57.2391C240.373 57.239 245.195 64.8602 245.195 64.8602C245.195 64.8602 239.665 72.7273 232.603 72.7273Z" fill="white"/>
<circle cx="232.737" cy="64.9832" r="4.3771" fill="black" fill-opacity="0.38"/>
<g filter="url(#filter0_d)">
<path d="M86.6691 181H94.6251V179.452L92.0691 178.732L93.4011 173.728H100.097L101.501 178.732L99.0531 179.452V181H107.297V179.632L105.065 178.912L99.1971 159.328C99.1971 159.328 98.7651 159.04 98.6211 159.04C98.5491 159.04 95.9931 159.328 94.6611 159.544L88.9011 178.912L86.6691 179.632V181ZM93.9411 171.82L96.5331 162.172H96.9651L99.5571 171.82H93.9411ZM116.599 181.324C116.923 181.324 120.487 180.748 120.487 180.748V179.272L118.651 178.732V166.816H122.071V164.872H118.651L118.687 162.064C118.687 161.056 119.047 160.048 119.371 160.048C119.947 160.048 122.323 160.624 123.115 160.84C123.259 160.48 123.835 159.184 123.835 159.04C123.835 158.788 123.367 158.176 123.043 157.96C122.071 157.852 120.235 157.744 119.875 157.744C118.759 157.744 115.375 161.848 115.375 163.324V164.692L113.683 165.376V166.78H115.375V180.136C115.375 180.388 116.383 181.324 116.599 181.324ZM125.985 181.324C126.309 181.324 129.873 180.748 129.873 180.748V179.272L128.037 178.732V168.652C129.153 168.004 130.161 167.5 130.485 167.5C131.133 167.5 131.853 167.752 132.393 167.968C132.573 167.86 133.365 166.42 133.365 166.096C133.365 165.88 133.257 165.268 133.149 164.98C132.573 164.8 131.241 164.404 130.737 164.404C130.521 164.404 129.225 165.772 127.929 167.14L128.001 165.88C128.001 165.664 126.777 164.584 126.561 164.584C126.237 164.584 123.501 165.124 123.501 165.124V166.456L124.761 166.888V180.136C124.761 180.388 125.769 181.324 125.985 181.324ZM140.414 181.324C141.098 181.324 144.158 180.604 145.886 180.064V178.588C144.482 178.624 141.638 178.768 141.242 178.768C140.234 178.768 137.894 177.796 137.894 173.044L146.39 172.324C146.39 165.628 144.23 164.404 140.702 164.404C139.766 164.404 136.058 166.96 135.302 168.112C134.798 169.048 134.438 171.244 134.438 173.692C134.438 178.984 137.462 181.324 140.414 181.324ZM137.966 171.568C137.966 169.444 138.398 167.104 139.046 166.816C139.55 166.6 140.018 166.564 140.414 166.564C142.25 166.564 142.898 168.184 142.898 170.92L137.966 171.568ZM155.004 181.324C155.688 181.324 158.748 180.604 160.476 180.064V178.588C159.072 178.624 156.228 178.768 155.832 178.768C154.824 178.768 152.484 177.796 152.484 173.044L160.98 172.324C160.98 165.628 158.82 164.404 155.292 164.404C154.356 164.404 150.648 166.96 149.892 168.112C149.388 169.048 149.028 171.244 149.028 173.692C149.028 178.984 152.052 181.324 155.004 181.324ZM152.556 171.568C152.556 169.444 152.988 167.104 153.636 166.816C154.14 166.6 154.608 166.564 155.004 166.564C156.84 166.564 157.488 168.184 157.488 170.92L152.556 171.568ZM174.496 181.324C175.036 181.324 177.664 180.748 179.392 180.208V178.696H175.324C174.388 178.696 172.804 177.256 172.804 173.224C172.804 170.056 173.164 167.464 173.848 166.924C173.992 166.816 174.172 166.78 174.352 166.78C175.072 166.78 176.08 167.104 176.584 167.356L177.088 169.84H179.284L179.392 165.232C178.096 164.836 176.548 164.548 175.432 164.548C174.568 164.548 170.968 166.96 170.212 168.112C169.708 169.048 169.348 171.316 169.348 173.692C169.348 178.984 172.012 181.324 174.496 181.324ZM189.211 181.324C190.075 181.324 193.747 178.768 194.503 177.76C194.899 176.608 195.295 174.484 195.295 172.036C195.295 167.104 192.811 164.404 187.951 164.404C187.087 164.404 183.343 166.96 182.587 168.112C182.083 169.048 181.723 171.244 181.723 173.476C181.723 178.948 184.279 181.324 189.211 181.324ZM189.391 179.272C187.447 179.272 185.179 178.192 185.179 172.972C185.179 169.336 185.683 167.176 186.331 166.816C186.799 166.564 187.267 166.528 187.771 166.528C190.507 166.528 191.839 168.868 191.839 172.504C191.839 175.564 191.479 177.256 191.227 178.372C191.227 178.372 189.643 179.2 189.391 179.272ZM198.108 173.476H207.036V170.956H198.108V173.476ZM214.096 181.396C214.348 181.396 217.372 180.748 217.372 180.748L219.46 173.188H219.676L221.764 181.108C221.764 181.108 222.124 181.396 222.232 181.396C222.484 181.396 225.508 180.748 225.508 180.748L230.08 165.88C230.08 165.52 229.252 164.62 229.036 164.62C228.748 164.62 224.644 164.872 224.644 164.872V166.6L227.02 166.852L224.212 177.58H223.816L223.096 174.484L221.008 165.7C220.9 165.34 219.82 164.62 219.604 164.62C219.28 164.62 216.544 165.052 216.544 165.052V166.528L217.876 166.888L218.56 169.3L216.076 177.58H215.68L214.96 174.484L212.872 165.7C212.764 165.34 211.684 164.62 211.468 164.62C211.144 164.62 208.408 165.052 208.408 165.052V166.528L209.74 166.924L213.628 181.108C213.628 181.108 213.988 181.396 214.096 181.396ZM234.513 181.324C234.837 181.324 238.401 180.748 238.401 180.748V179.272L236.565 178.732V168.652C237.681 168.004 238.689 167.5 239.013 167.5C239.661 167.5 240.381 167.752 240.921 167.968C241.101 167.86 241.893 166.42 241.893 166.096C241.893 165.88 241.785 165.268 241.677 164.98C241.101 164.8 239.769 164.404 239.265 164.404C239.049 164.404 237.753 165.772 236.457 167.14L236.529 165.88C236.529 165.664 235.305 164.584 235.089 164.584C234.765 164.584 232.029 165.124 232.029 165.124V166.456L233.289 166.888V180.136C233.289 180.388 234.297 181.324 234.513 181.324ZM244.469 161.668H247.349L247.529 158.536L246.989 157.744L244.217 157.924L244.469 161.668ZM245.873 181.324C246.197 181.324 248.933 180.748 248.933 180.748V179.416L247.673 179.056V165.916C247.673 165.592 246.521 164.584 246.233 164.584C245.909 164.584 243.173 165.124 243.173 165.124V166.456L244.433 166.852V179.992C244.433 180.244 245.621 181.324 245.873 181.324ZM255.289 181.324C255.793 181.324 258.349 180.928 259.717 180.64V178.912L256.765 178.84C256.081 178.84 255.901 178.408 255.901 176.932V166.96H259.393V164.872H255.901V162.604C255.901 162.604 254.965 162.1 254.641 162.1L252.625 164.548L250.321 165.7V166.78H252.625V178.516C252.625 179.344 254.425 181.324 255.289 181.324ZM262.75 161.668H265.63L265.81 158.536L265.27 157.744L262.498 157.924L262.75 161.668ZM264.154 181.324C264.478 181.324 267.214 180.748 267.214 180.748V179.416L265.954 179.056V165.916C265.954 165.592 264.802 164.584 264.514 164.584C264.19 164.584 261.454 165.124 261.454 165.124V166.456L262.714 166.852V179.992C262.714 180.244 263.902 181.324 264.154 181.324ZM272.13 181.324C272.454 181.324 275.406 180.748 275.406 180.748V179.416L274.182 178.876V168.616C275.55 168.004 277.17 167.248 277.602 167.248C278.106 167.248 279.69 167.176 279.69 170.632V180.136C279.69 180.388 280.734 181.324 280.95 181.324C281.238 181.324 284.226 180.748 284.226 180.748V179.416L282.966 178.876V170.632C282.966 165.952 281.022 164.584 277.782 164.584C277.566 164.584 275.334 166.168 274.074 167.104V165.736C274.074 165.52 273.138 164.584 272.922 164.584C272.598 164.584 269.646 165.124 269.646 165.124V166.456L270.906 166.996V180.136C270.906 180.388 271.914 181.324 272.13 181.324ZM293.753 187.516C295.229 187.516 298.901 184.132 298.901 181.756V165.376C298.001 165.232 293.537 164.548 292.961 164.548C292.097 164.548 288.425 167.104 287.669 168.112C287.165 169.264 286.913 171.388 286.913 172.756C286.913 177.4 289.325 179.92 291.161 179.92L286.697 183.952L286.373 186.58C287.777 186.904 291.917 187.516 293.753 187.516ZM292.997 178.264C292.241 178.264 290.333 177.076 290.333 172.792C290.333 169.192 290.765 167.032 291.773 166.672C292.313 166.492 294.581 166.96 295.625 167.32V176.68C295.625 176.68 293.357 178.264 292.997 178.264ZM294.833 185.86C293.789 185.86 289.937 184.996 289.253 184.708V184.492C290.333 183.484 293.969 179.992 295.553 178.588L295.733 178.66V180.46C295.733 182.836 295.373 185.86 294.833 185.86ZM314.882 187.516C316.358 187.516 320.03 184.132 320.03 181.756V165.376C319.13 165.232 314.666 164.548 314.09 164.548C313.226 164.548 309.554 167.104 308.798 168.112C308.294 169.264 308.042 171.388 308.042 172.756C308.042 177.4 310.454 179.92 312.29 179.92L307.826 183.952L307.502 186.58C308.906 186.904 313.046 187.516 314.882 187.516ZM314.126 178.264C313.37 178.264 311.462 177.076 311.462 172.792C311.462 169.192 311.894 167.032 312.902 166.672C313.442 166.492 315.71 166.96 316.754 167.32V176.68C316.754 176.68 314.486 178.264 314.126 178.264ZM315.962 185.86C314.918 185.86 311.066 184.996 310.382 184.708V184.492C311.462 183.484 315.098 179.992 316.682 178.588L316.862 178.66V180.46C316.862 182.836 316.502 185.86 315.962 185.86ZM328.984 181.324C329.236 181.324 331.36 179.668 332.584 178.732V180.136C332.584 180.388 333.628 181.324 333.808 181.324C334.132 181.324 336.976 180.748 336.976 180.748V179.416L335.752 178.912V165.376C334.78 165.232 330.064 164.548 329.452 164.548C328.588 164.548 324.988 167.032 324.232 168.112C323.728 169.12 323.368 171.172 323.368 173.476C323.368 178.948 326.14 181.324 328.984 181.324ZM329.2 178.66C328.48 178.66 326.824 177.256 326.824 173.224C326.824 168.148 327.364 166.78 328.192 166.636C328.876 166.528 331.324 166.96 332.476 167.32V177.22C331.468 177.724 329.524 178.66 329.2 178.66ZM341.845 181.324C342.169 181.324 345.121 180.748 345.121 180.748V179.416L343.897 178.876V168.616C343.897 168.616 346.453 167.248 346.813 167.248C347.317 167.248 348.901 167.176 348.901 170.632V180.136C348.901 180.388 349.945 181.324 350.161 181.324C350.449 181.324 353.401 180.748 353.401 180.748V179.416L352.177 178.876V168.616C352.177 168.616 354.589 167.248 354.913 167.248C355.453 167.248 357.181 167.176 357.181 170.632V180.136C357.181 180.388 358.225 181.324 358.441 181.324C358.729 181.324 361.681 180.748 361.681 180.748V179.416L360.457 178.876V170.632C360.457 165.952 358.297 164.584 354.733 164.584C354.589 164.584 352.753 166.168 351.745 167.104C350.989 165.196 349.261 164.584 346.993 164.584C346.849 164.584 344.869 166.168 343.789 167.104V165.736C343.789 165.52 342.853 164.584 342.637 164.584C342.313 164.584 339.361 165.124 339.361 165.124V166.456L340.621 166.996V180.136C340.621 180.388 341.629 181.324 341.845 181.324ZM370.301 181.324C370.985 181.324 374.045 180.604 375.773 180.064V178.588C374.369 178.624 371.525 178.768 371.129 178.768C370.121 178.768 367.781 177.796 367.781 173.044L376.277 172.324C376.277 165.628 374.117 164.404 370.589 164.404C369.653 164.404 365.945 166.96 365.189 168.112C364.685 169.048 364.325 171.244 364.325 173.692C364.325 178.984 367.349 181.324 370.301 181.324ZM367.853 171.568C367.853 169.444 368.285 167.104 368.933 166.816C369.437 166.6 369.905 166.564 370.301 166.564C372.137 166.564 372.785 168.184 372.785 170.92L367.853 171.568Z" fill="#AFAFAF"/>
</g>
<path d="M53.6152 143.314H67.2977V140.63L63.2115 139.382V109.303L69.898 109.677L70.5172 117.416H73.8604L74.6653 105.683H46L46.8049 117.416H50.0862L50.7053 109.677L57.4537 109.303V139.694L53.6152 140.942V143.314Z" fill="white"/>
<path d="M81.4456 143.875C82.0028 143.875 87.1415 142.877 87.1415 142.877V140.568L85.0365 139.632V121.846C86.1509 121.347 90.3609 119.475 90.9181 119.475C91.8468 119.475 94.509 119.35 94.509 125.341V141.816C94.509 142.253 96.2426 143.875 96.614 143.875C97.1712 143.875 102.31 142.877 102.31 142.877V140.568L100.143 139.632V125.341C100.143 117.228 96.8617 114.857 91.2277 114.857C90.98 114.857 87.2034 117.603 85.0365 119.225L84.7269 119.163L85.0365 105.059C85.0365 104.623 83.241 103 82.8696 103C82.3124 103 77.2356 103.998 77.2356 103.998V106.307L79.4025 107.181V141.816C79.4025 142.253 81.0741 143.875 81.4456 143.875Z" fill="white"/>
<path d="M117.084 143.875C118.261 143.875 123.523 142.627 126.495 141.691V139.132C124.08 139.195 119.189 139.444 118.508 139.444C116.775 139.444 112.75 137.76 112.75 129.522L127.362 128.274C127.362 116.667 123.647 114.545 117.579 114.545C115.97 114.545 109.593 118.976 108.293 120.973C107.426 122.595 106.807 126.402 106.807 130.645C106.807 139.819 112.007 143.875 117.084 143.875ZM112.874 126.963C112.874 123.282 113.617 119.225 114.732 118.726C115.598 118.352 116.403 118.289 117.084 118.289C120.242 118.289 121.356 121.097 121.356 125.84L112.874 126.963Z" fill="white"/>
<path d="M153.021 143.75C153.145 143.75 157.541 143.251 159.832 142.877L164.599 125.091H165.156L169.18 143.251C169.18 143.251 169.923 143.75 170.171 143.75C170.295 143.75 174.69 143.251 176.981 142.877C178.591 136.761 184.472 113.734 185.649 109.303L189.487 108.055V105.683H175.805V108.367L180.262 109.615C178.838 116.292 174.628 133.391 173.7 137.572H173.019C173.019 137.572 171.842 131.644 171.223 128.898L167.323 109.615L171.347 108.554V105.683H157.912V107.868L161.255 109.303L162.741 115.419C160.76 123.094 157.541 134.14 156.736 137.572H156.055C156.055 137.572 154.879 131.644 154.259 128.898L149.926 109.615L153.455 108.367V105.683H140.02V108.055L143.858 109.303L152.031 143.251C152.031 143.251 152.774 143.75 153.021 143.75Z" fill="white"/>
<path d="M202.879 143.875C204.365 143.875 210.68 139.444 211.98 137.697C212.661 135.7 213.342 132.018 213.342 127.775C213.342 119.225 209.07 114.545 200.712 114.545C199.226 114.545 192.787 118.976 191.487 120.973C190.62 122.595 190.001 126.402 190.001 130.271C190.001 139.756 194.397 143.875 202.879 143.875ZM203.188 140.318C199.845 140.318 195.945 138.446 195.945 129.397C195.945 123.094 196.811 119.35 197.926 118.726C198.731 118.289 199.535 118.227 200.402 118.227C205.108 118.227 207.398 122.283 207.398 128.586C207.398 133.89 206.779 136.823 206.346 138.758C206.346 138.758 203.622 140.193 203.188 140.318Z" fill="white"/>
<path d="M225.608 144C226.042 144 231.242 142.877 231.242 142.877L239.353 117.104C239.353 116.479 237.929 114.919 237.557 114.919C237.062 114.919 230.437 115.356 230.437 115.356V118.352L234.09 118.788L229.013 137.385H228.332L227.094 132.018L223.256 116.791C223.07 116.167 221.212 114.919 220.841 114.919C220.284 114.919 215.578 115.668 215.578 115.668V118.227L217.869 118.913L224.803 143.501C224.803 143.501 225.422 144 225.608 144Z" fill="white"/>
<path d="M252.638 143.875C253.814 143.875 259.076 142.627 262.048 141.691V139.132C259.634 139.195 254.743 139.444 254.062 139.444C252.328 139.444 248.304 137.76 248.304 129.522L262.915 128.274C262.915 116.667 259.2 114.545 253.133 114.545C251.523 114.545 245.146 118.976 243.846 120.973C242.979 122.595 242.36 126.402 242.36 130.645C242.36 139.819 247.561 143.875 252.638 143.875ZM248.428 126.963C248.428 123.282 249.171 119.225 250.285 118.726C251.152 118.352 251.957 118.289 252.638 118.289C255.795 118.289 256.91 121.097 256.91 125.84L248.428 126.963Z" fill="white"/>
<path d="M271.476 143.875C272.033 143.875 277.11 142.877 277.11 142.877V140.568L275.005 139.632V121.846C277.357 120.785 280.143 119.475 280.886 119.475C281.753 119.475 284.477 119.35 284.477 125.341V141.816C284.477 142.253 286.273 143.875 286.644 143.875C287.14 143.875 292.278 142.877 292.278 142.877V140.568L290.111 139.632V125.341C290.111 117.228 286.768 114.857 281.196 114.857C280.825 114.857 276.986 117.603 274.819 119.225V116.854C274.819 116.479 273.209 114.857 272.838 114.857C272.281 114.857 267.204 115.793 267.204 115.793V118.102L269.371 119.038V141.816C269.371 142.253 271.104 143.875 271.476 143.875Z" fill="white"/>
<path d="M306.878 143.314H322.913C329.042 143.314 334.181 140.817 334.181 132.455C334.181 127.712 330.838 124.592 326.132 123.781V123.406C327.928 122.533 331.705 120.785 331.705 115.419C331.705 107.93 328.299 105.683 322.17 105.683H306.878V108.055L310.716 109.303V139.694L306.878 140.942V143.314ZM316.474 122.72V109.365L322.975 108.616C325.018 108.367 325.637 110.925 325.637 116.355C325.637 121.721 323.966 122.72 320.746 122.72H316.474ZM324.647 140.381L316.474 139.507V126.277H322.851C326.071 126.277 328.114 126.527 328.114 131.706C328.114 138.134 327.123 140.63 324.647 140.381Z" fill="white"/>
<path d="M351.129 143.875C352.615 143.875 358.93 139.444 360.23 137.697C360.911 135.7 361.592 132.018 361.592 127.775C361.592 119.225 357.32 114.545 348.962 114.545C347.476 114.545 341.037 118.976 339.737 120.973C338.87 122.595 338.251 126.402 338.251 130.271C338.251 139.756 342.647 143.875 351.129 143.875ZM351.439 140.318C348.095 140.318 344.195 138.446 344.195 129.397C344.195 123.094 345.062 119.35 346.176 118.726C346.981 118.289 347.786 118.227 348.652 118.227C353.358 118.227 355.649 122.283 355.649 128.586C355.649 133.89 355.029 136.823 354.596 138.758C354.596 138.758 351.872 140.193 351.439 140.318Z" fill="white"/>
<path d="M379.183 143.875C380.669 143.875 386.984 139.444 388.284 137.697C388.965 135.7 389.646 132.018 389.646 127.775C389.646 119.225 385.374 114.545 377.016 114.545C375.53 114.545 369.091 118.976 367.791 120.973C366.924 122.595 366.305 126.402 366.305 130.271C366.305 139.756 370.701 143.875 379.183 143.875ZM379.492 140.318C376.149 140.318 372.249 138.446 372.249 129.397C372.249 123.094 373.115 119.35 374.23 118.726C375.035 118.289 375.84 118.227 376.706 118.227C381.412 118.227 383.702 122.283 383.702 128.586C383.702 133.89 383.083 136.823 382.65 138.758C382.65 138.758 379.926 140.193 379.492 140.318Z" fill="white"/>
<path d="M398.383 143.875C398.941 143.875 404.017 142.877 404.017 142.877V140.568L401.912 139.632V105.059C401.912 104.623 400.241 103 399.869 103C399.312 103 394.111 103.998 394.111 103.998V106.307L396.34 107.181V141.816C396.34 142.253 398.012 143.875 398.383 143.875ZM413.923 143.875C414.419 143.875 419 142.877 419 142.877V140.568L416.524 139.569L407.608 127.463L416.709 117.852C416.709 117.166 415.966 114.919 415.595 114.919C415.038 114.919 407.546 115.356 407.546 115.356V118.352L410.27 118.726L403.089 126.963V129.522L411.509 141.878C411.88 142.377 413.552 143.875 413.923 143.875Z" fill="white"/>
<defs>
<filter id="filter0_d" x="84.6691" y="155.744" width="295.608" height="35.772" filterUnits="userSpaceOnUse" color-interpolation-filters="sRGB">
<feFlood flood-opacity="0" result="BackgroundImageFix"/>
<feColorMatrix in="SourceAlpha" type="matrix" values="0 0 0 0 0 0 0 0 0 0 0 0 0 0 0 0 0 0 127 0"/>
<feOffset dx="1" dy="1"/>
<feGaussianBlur stdDeviation="1.5"/>
<feColorMatrix type="matrix" values="0 0 0 0 0 0 0 0 0 0 0 0 0 0 0 0 0 0 0.25 0"/>
<feBlend mode="normal" in2="BackgroundImageFix" result="effect1_dropShadow"/>
<feBlend mode="normal" in="SourceGraphic" in2="effect1_dropShadow" result="shape"/>
</filter>
</defs>
</svg>
