<svg width="464" height="188" viewBox="0 0 464 188" fill="none" xmlns="http://www.w3.org/2000/svg">
<path fill-rule="evenodd" clip-rule="evenodd" d="M227.757 50.1075C227.283 49.2474 226.79 48.4324 226.282 47.6901C224.011 44.3722 221.301 42.3425 218.597 40.3172C215.854 38.2628 213.117 36.2129 210.851 32.8276C207.031 27.1228 204.064 16.7938 204.064 16.7938C204.064 16.7938 202.49 28.7588 204.959 35.3213C206.329 38.9606 209.036 40.9979 211.73 43.0256C214.498 45.1087 217.253 47.1818 218.53 50.9712C218.877 51.9997 219.114 53.1685 219.269 54.4006C219.079 54.5322 218.891 54.6652 218.705 54.7995C216.966 53.6421 215.189 52.5907 213.516 51.8206C209.756 50.0901 206.314 49.7072 202.879 49.325C199.395 48.9374 195.919 48.5506 192.126 46.7592C185.736 43.7402 177.578 36.2553 177.578 36.2553C177.578 36.2553 182.694 47.4892 188.381 51.9458C191.536 54.4173 194.98 54.8085 198.407 55.1978C201.223 55.5176 204.029 55.8362 206.654 57.3065C204.557 57.3955 202.505 57.5807 200.685 57.9087C196.259 58.7061 192.973 60.4099 189.694 62.1101C186.368 63.8346 183.05 65.5554 178.556 66.3226C170.983 67.6154 159 66.3226 159 66.3226C159 66.3226 170.687 72.4336 178.556 72.7171C182.92 72.8744 186.212 71.1763 189.489 69.4861C192.856 67.7499 196.206 66.022 200.685 66.3226C203.594 66.5178 207.059 67.6037 210.152 68.8269C219.7 75.2167 230.939 85.672 232.401 100C238.661 78.2966 245.569 75.0893 250.798 72.6613C250.881 72.6225 250.964 72.584 251.047 72.5455C255.42 72.7995 261.394 72.9038 265.89 72.0577C270.128 71.2602 273.274 69.5564 276.413 67.8563C279.597 66.1317 282.775 64.4109 287.077 63.6438C294.328 62.351 305.801 63.6438 305.801 63.6438C305.801 63.6438 294.612 57.5327 287.077 57.2492C282.899 57.092 279.747 58.79 276.609 60.4802C273.386 62.2165 270.178 63.9443 265.89 63.6438C263.187 63.4543 259.982 62.4258 257.088 61.2471C259.433 58.6975 260.636 56.0103 261.837 53.3288C263.076 50.5643 264.311 47.8059 266.791 45.2106C270.97 40.837 279.307 36.3512 279.307 36.3512C279.307 36.3512 268.673 37.1889 263.49 40.5471C260.616 42.4094 259.385 45.1394 258.161 47.8566C256.902 50.648 255.65 53.4259 252.629 55.2358C252.033 55.5924 251.363 55.9124 250.645 56.1995C249.713 55.5333 248.711 54.8822 247.649 54.266C247.901 53.4353 248.112 52.6193 248.267 51.8353C248.992 48.1672 248.51 45.0005 248.029 41.8407C247.541 38.6354 247.055 35.4372 247.83 31.7298C249.135 25.4823 254.265 16.9281 254.265 16.9281C254.265 16.9281 244.812 23.3362 241.963 29.1792C240.382 32.4195 240.857 35.5888 241.329 38.7434C241.814 41.984 242.297 45.209 240.548 48.4791C240.153 49.2157 239.639 49.9602 239.046 50.6958C238.596 50.5807 238.142 50.4758 237.684 50.3818C237.584 48.4164 237.406 46.5069 237.118 44.7894C236.321 40.0338 234.617 36.5031 232.917 32.9801C231.192 29.4065 229.472 25.8408 228.704 21.0123C227.412 12.8755 228.704 0 228.704 0C228.704 0 222.593 12.5571 222.31 21.0123C222.153 25.7012 223.851 29.2389 225.541 32.76C227.277 36.3772 229.005 39.9769 228.704 44.7894C228.601 46.4439 228.248 48.2659 227.757 50.1075Z" fill="#898989"/>
<path d="M232.603 72.7272C225.906 72.7272 220.279 65.8436 220.279 64.8602C220.279 63.8768 226.441 57.239 233.675 57.239C240.373 57.239 245.195 64.8602 245.195 64.8602C245.195 64.8602 239.665 72.7272 232.603 72.7272Z" fill="white"/>
<circle cx="232.737" cy="64.9832" r="4.3771" fill="black" fill-opacity="0.38"/>
<path d="M114.214 181H122.17V179.452L119.614 178.732L120.946 173.728H127.642L129.046 178.732L126.598 179.452V181H134.842V179.632L132.61 178.912L126.742 159.328C126.742 159.328 126.31 159.04 126.166 159.04C126.094 159.04 123.538 159.328 122.206 159.544L116.446 178.912L114.214 179.632V181ZM121.486 171.82L124.078 162.172H124.51L127.102 171.82H121.486ZM146.952 181.324C147.492 181.324 150.12 180.748 151.848 180.208V178.696H147.78C146.844 178.696 145.26 177.256 145.26 173.224C145.26 170.056 145.62 167.464 146.304 166.924C146.448 166.816 146.628 166.78 146.808 166.78C147.528 166.78 148.536 167.104 149.04 167.356L149.544 169.84H151.74L151.848 165.232C150.552 164.836 149.004 164.548 147.888 164.548C147.024 164.548 143.424 166.96 142.668 168.112C142.164 169.048 141.804 171.316 141.804 173.692C141.804 178.984 144.468 181.324 146.952 181.324ZM161.667 181.324C162.531 181.324 166.203 178.768 166.959 177.76C167.355 176.608 167.751 174.484 167.751 172.036C167.751 167.104 165.267 164.404 160.407 164.404C159.543 164.404 155.799 166.96 155.043 168.112C154.539 169.048 154.179 171.244 154.179 173.476C154.179 178.948 156.735 181.324 161.667 181.324ZM161.847 179.272C159.903 179.272 157.635 178.192 157.635 172.972C157.635 169.336 158.139 167.176 158.787 166.816C159.255 166.564 159.723 166.528 160.227 166.528C162.963 166.528 164.295 168.868 164.295 172.504C164.295 175.564 163.935 177.256 163.683 178.372C163.683 178.372 162.099 179.2 161.847 179.272ZM170.563 173.476H179.491V170.956H170.563V173.476ZM186.552 181.396C186.804 181.396 189.828 180.748 189.828 180.748L191.916 173.188H192.132L194.22 181.108C194.22 181.108 194.58 181.396 194.688 181.396C194.94 181.396 197.964 180.748 197.964 180.748L202.536 165.88C202.536 165.52 201.708 164.62 201.492 164.62C201.204 164.62 197.1 164.872 197.1 164.872V166.6L199.476 166.852L196.668 177.58H196.272L195.552 174.484L193.464 165.7C193.356 165.34 192.276 164.62 192.06 164.62C191.736 164.62 189 165.052 189 165.052V166.528L190.332 166.888L191.016 169.3L188.532 177.58H188.136L187.416 174.484L185.328 165.7C185.22 165.34 184.14 164.62 183.924 164.62C183.6 164.62 180.864 165.052 180.864 165.052V166.528L182.196 166.924L186.084 181.108C186.084 181.108 186.444 181.396 186.552 181.396ZM206.968 181.324C207.292 181.324 210.856 180.748 210.856 180.748V179.272L209.02 178.732V168.652C210.136 168.004 211.144 167.5 211.468 167.5C212.116 167.5 212.836 167.752 213.376 167.968C213.556 167.86 214.348 166.42 214.348 166.096C214.348 165.88 214.24 165.268 214.132 164.98C213.556 164.8 212.224 164.404 211.72 164.404C211.504 164.404 210.208 165.772 208.912 167.14L208.984 165.88C208.984 165.664 207.76 164.584 207.544 164.584C207.22 164.584 204.484 165.124 204.484 165.124V166.456L205.744 166.888V180.136C205.744 180.388 206.752 181.324 206.968 181.324ZM216.924 161.668H219.804L219.984 158.536L219.444 157.744L216.672 157.924L216.924 161.668ZM218.328 181.324C218.652 181.324 221.388 180.748 221.388 180.748V179.416L220.128 179.056V165.916C220.128 165.592 218.976 164.584 218.688 164.584C218.364 164.584 215.628 165.124 215.628 165.124V166.456L216.888 166.852V179.992C216.888 180.244 218.076 181.324 218.328 181.324ZM227.744 181.324C228.248 181.324 230.804 180.928 232.172 180.64V178.912L229.22 178.84C228.536 178.84 228.356 178.408 228.356 176.932V166.96H231.848V164.872H228.356V162.604C228.356 162.604 227.42 162.1 227.096 162.1L225.08 164.548L222.776 165.7V166.78H225.08V178.516C225.08 179.344 226.88 181.324 227.744 181.324ZM235.206 161.668H238.086L238.266 158.536L237.726 157.744L234.954 157.924L235.206 161.668ZM236.61 181.324C236.934 181.324 239.67 180.748 239.67 180.748V179.416L238.41 179.056V165.916C238.41 165.592 237.258 164.584 236.97 164.584C236.646 164.584 233.91 165.124 233.91 165.124V166.456L235.17 166.852V179.992C235.17 180.244 236.358 181.324 236.61 181.324ZM244.585 181.324C244.909 181.324 247.861 180.748 247.861 180.748V179.416L246.637 178.876V168.616C248.005 168.004 249.625 167.248 250.057 167.248C250.561 167.248 252.145 167.176 252.145 170.632V180.136C252.145 180.388 253.189 181.324 253.405 181.324C253.693 181.324 256.681 180.748 256.681 180.748V179.416L255.421 178.876V170.632C255.421 165.952 253.477 164.584 250.237 164.584C250.021 164.584 247.789 166.168 246.529 167.104V165.736C246.529 165.52 245.593 164.584 245.377 164.584C245.053 164.584 242.101 165.124 242.101 165.124V166.456L243.361 166.996V180.136C243.361 180.388 244.369 181.324 244.585 181.324ZM266.208 187.516C267.684 187.516 271.356 184.132 271.356 181.756V165.376C270.456 165.232 265.992 164.548 265.416 164.548C264.552 164.548 260.88 167.104 260.124 168.112C259.62 169.264 259.368 171.388 259.368 172.756C259.368 177.4 261.78 179.92 263.616 179.92L259.152 183.952L258.828 186.58C260.232 186.904 264.372 187.516 266.208 187.516ZM265.452 178.264C264.696 178.264 262.788 177.076 262.788 172.792C262.788 169.192 263.22 167.032 264.228 166.672C264.768 166.492 267.036 166.96 268.08 167.32V176.68C268.08 176.68 265.812 178.264 265.452 178.264ZM267.288 185.86C266.244 185.86 262.392 184.996 261.708 184.708V184.492C262.788 183.484 266.424 179.992 268.008 178.588L268.188 178.66V180.46C268.188 182.836 267.828 185.86 267.288 185.86ZM287.337 187.516C288.813 187.516 292.485 184.132 292.485 181.756V165.376C291.585 165.232 287.121 164.548 286.545 164.548C285.681 164.548 282.009 167.104 281.253 168.112C280.749 169.264 280.497 171.388 280.497 172.756C280.497 177.4 282.909 179.92 284.745 179.92L280.281 183.952L279.957 186.58C281.361 186.904 285.501 187.516 287.337 187.516ZM286.581 178.264C285.825 178.264 283.917 177.076 283.917 172.792C283.917 169.192 284.349 167.032 285.357 166.672C285.897 166.492 288.165 166.96 289.209 167.32V176.68C289.209 176.68 286.941 178.264 286.581 178.264ZM288.417 185.86C287.373 185.86 283.521 184.996 282.837 184.708V184.492C283.917 183.484 287.553 179.992 289.137 178.588L289.317 178.66V180.46C289.317 182.836 288.957 185.86 288.417 185.86ZM301.439 181.324C301.691 181.324 303.815 179.668 305.039 178.732V180.136C305.039 180.388 306.083 181.324 306.263 181.324C306.587 181.324 309.431 180.748 309.431 180.748V179.416L308.207 178.912V165.376C307.235 165.232 302.519 164.548 301.907 164.548C301.043 164.548 297.443 167.032 296.687 168.112C296.183 169.12 295.823 171.172 295.823 173.476C295.823 178.948 298.595 181.324 301.439 181.324ZM301.655 178.66C300.935 178.66 299.279 177.256 299.279 173.224C299.279 168.148 299.819 166.78 300.647 166.636C301.331 166.528 303.779 166.96 304.931 167.32V177.22C303.923 177.724 301.979 178.66 301.655 178.66ZM314.3 181.324C314.624 181.324 317.576 180.748 317.576 180.748V179.416L316.352 178.876V168.616C316.352 168.616 318.908 167.248 319.268 167.248C319.772 167.248 321.356 167.176 321.356 170.632V180.136C321.356 180.388 322.4 181.324 322.616 181.324C322.904 181.324 325.856 180.748 325.856 180.748V179.416L324.632 178.876V168.616C324.632 168.616 327.044 167.248 327.368 167.248C327.908 167.248 329.636 167.176 329.636 170.632V180.136C329.636 180.388 330.68 181.324 330.896 181.324C331.184 181.324 334.136 180.748 334.136 180.748V179.416L332.912 178.876V170.632C332.912 165.952 330.752 164.584 327.188 164.584C327.044 164.584 325.208 166.168 324.2 167.104C323.444 165.196 321.716 164.584 319.448 164.584C319.304 164.584 317.324 166.168 316.244 167.104V165.736C316.244 165.52 315.308 164.584 315.092 164.584C314.768 164.584 311.816 165.124 311.816 165.124V166.456L313.076 166.996V180.136C313.076 180.388 314.084 181.324 314.3 181.324ZM342.756 181.324C343.44 181.324 346.5 180.604 348.228 180.064V178.588C346.824 178.624 343.98 178.768 343.584 178.768C342.576 178.768 340.236 177.796 340.236 173.044L348.732 172.324C348.732 165.628 346.572 164.404 343.044 164.404C342.108 164.404 338.4 166.96 337.644 168.112C337.14 169.048 336.78 171.244 336.78 173.692C336.78 178.984 339.804 181.324 342.756 181.324ZM340.308 171.568C340.308 169.444 340.74 167.104 341.388 166.816C341.892 166.6 342.36 166.564 342.756 166.564C344.592 166.564 345.24 168.184 345.24 170.92L340.308 171.568Z" fill="#AFAFAF"/>
<path d="M53.6152 143.314H67.2977V140.63L63.2115 139.382V109.303L69.898 109.677L70.5172 117.416H73.8604L74.6653 105.683H46L46.8049 117.416H50.0862L50.7053 109.677L57.4537 109.303V139.694L53.6152 140.942V143.314Z" fill="black" fill-opacity="0.87"/>
<path d="M81.4456 143.875C82.0028 143.875 87.1415 142.877 87.1415 142.877V140.568L85.0365 139.632V121.846C86.1509 121.347 90.3609 119.475 90.9181 119.475C91.8468 119.475 94.509 119.35 94.509 125.341V141.816C94.509 142.253 96.2426 143.875 96.614 143.875C97.1712 143.875 102.31 142.877 102.31 142.877V140.568L100.143 139.632V125.341C100.143 117.228 96.8617 114.857 91.2277 114.857C90.98 114.857 87.2034 117.603 85.0365 119.225L84.7269 119.163L85.0365 105.059C85.0365 104.623 83.241 103 82.8696 103C82.3124 103 77.2356 103.998 77.2356 103.998V106.307L79.4025 107.181V141.816C79.4025 142.253 81.0741 143.875 81.4456 143.875Z" fill="black" fill-opacity="0.87"/>
<path d="M117.084 143.875C118.261 143.875 123.523 142.627 126.495 141.691V139.132C124.08 139.195 119.189 139.444 118.508 139.444C116.775 139.444 112.75 137.76 112.75 129.522L127.362 128.274C127.362 116.667 123.647 114.545 117.579 114.545C115.97 114.545 109.593 118.976 108.293 120.973C107.426 122.595 106.807 126.402 106.807 130.645C106.807 139.819 112.007 143.875 117.084 143.875ZM112.874 126.963C112.874 123.282 113.617 119.225 114.732 118.726C115.598 118.352 116.403 118.289 117.084 118.289C120.242 118.289 121.356 121.097 121.356 125.84L112.874 126.963Z" fill="black" fill-opacity="0.87"/>
<path d="M153.021 143.75C153.145 143.75 157.541 143.251 159.832 142.877L164.599 125.091H165.156L169.18 143.251C169.18 143.251 169.923 143.75 170.171 143.75C170.295 143.75 174.69 143.251 176.981 142.877C178.591 136.761 184.472 113.734 185.649 109.303L189.487 108.055V105.683H175.805V108.367L180.262 109.615C178.838 116.292 174.628 133.391 173.7 137.572H173.019C173.019 137.572 171.842 131.644 171.223 128.898L167.323 109.615L171.347 108.554V105.683H157.912V107.868L161.255 109.303L162.741 115.419C160.76 123.094 157.541 134.14 156.736 137.572H156.055C156.055 137.572 154.879 131.644 154.259 128.898L149.926 109.615L153.455 108.367V105.683H140.02V108.055L143.858 109.303L152.031 143.251C152.031 143.251 152.774 143.75 153.021 143.75Z" fill="black" fill-opacity="0.87"/>
<path d="M202.879 143.875C204.365 143.875 210.68 139.444 211.98 137.697C212.661 135.7 213.342 132.018 213.342 127.775C213.342 119.225 209.07 114.545 200.712 114.545C199.226 114.545 192.787 118.976 191.487 120.973C190.62 122.595 190.001 126.402 190.001 130.271C190.001 139.756 194.397 143.875 202.879 143.875ZM203.188 140.318C199.845 140.318 195.945 138.446 195.945 129.397C195.945 123.094 196.811 119.35 197.926 118.726C198.731 118.289 199.535 118.227 200.402 118.227C205.108 118.227 207.398 122.283 207.398 128.586C207.398 133.89 206.779 136.823 206.346 138.758C206.346 138.758 203.622 140.193 203.188 140.318Z" fill="black" fill-opacity="0.87"/>
<path d="M225.608 144C226.042 144 231.242 142.877 231.242 142.877L239.353 117.104C239.353 116.479 237.929 114.919 237.557 114.919C237.062 114.919 230.437 115.356 230.437 115.356V118.352L234.09 118.788L229.013 137.385H228.332L227.094 132.018L223.256 116.791C223.07 116.167 221.212 114.919 220.841 114.919C220.284 114.919 215.578 115.668 215.578 115.668V118.227L217.869 118.913L224.803 143.501C224.803 143.501 225.422 144 225.608 144Z" fill="black" fill-opacity="0.87"/>
<path d="M252.638 143.875C253.814 143.875 259.076 142.627 262.048 141.691V139.132C259.634 139.195 254.743 139.444 254.062 139.444C252.328 139.444 248.304 137.76 248.304 129.522L262.915 128.274C262.915 116.667 259.2 114.545 253.133 114.545C251.523 114.545 245.146 118.976 243.846 120.973C242.979 122.595 242.36 126.402 242.36 130.645C242.36 139.819 247.561 143.875 252.638 143.875ZM248.428 126.963C248.428 123.282 249.171 119.225 250.285 118.726C251.152 118.352 251.957 118.289 252.638 118.289C255.795 118.289 256.91 121.097 256.91 125.84L248.428 126.963Z" fill="black" fill-opacity="0.87"/>
<path d="M271.476 143.875C272.033 143.875 277.11 142.877 277.11 142.877V140.568L275.005 139.632V121.846C277.357 120.785 280.143 119.475 280.886 119.475C281.753 119.475 284.477 119.35 284.477 125.341V141.816C284.477 142.253 286.273 143.875 286.644 143.875C287.14 143.875 292.278 142.877 292.278 142.877V140.568L290.111 139.632V125.341C290.111 117.228 286.768 114.857 281.196 114.857C280.825 114.857 276.986 117.603 274.819 119.225V116.854C274.819 116.479 273.209 114.857 272.838 114.857C272.281 114.857 267.204 115.793 267.204 115.793V118.102L269.371 119.038V141.816C269.371 142.253 271.104 143.875 271.476 143.875Z" fill="black" fill-opacity="0.87"/>
<path d="M306.878 143.314H322.913C329.042 143.314 334.181 140.817 334.181 132.455C334.181 127.712 330.838 124.592 326.132 123.781V123.406C327.928 122.533 331.705 120.785 331.705 115.419C331.705 107.93 328.299 105.683 322.17 105.683H306.878V108.055L310.716 109.303V139.694L306.878 140.942V143.314ZM316.474 122.72V109.365L322.975 108.616C325.018 108.367 325.637 110.925 325.637 116.355C325.637 121.721 323.966 122.72 320.746 122.72H316.474ZM324.647 140.381L316.474 139.507V126.277H322.851C326.071 126.277 328.114 126.527 328.114 131.706C328.114 138.134 327.123 140.63 324.647 140.381Z" fill="black" fill-opacity="0.87"/>
<path d="M351.129 143.875C352.615 143.875 358.93 139.444 360.23 137.697C360.911 135.7 361.592 132.018 361.592 127.775C361.592 119.225 357.32 114.545 348.962 114.545C347.476 114.545 341.037 118.976 339.737 120.973C338.87 122.595 338.251 126.402 338.251 130.271C338.251 139.756 342.647 143.875 351.129 143.875ZM351.439 140.318C348.095 140.318 344.195 138.446 344.195 129.397C344.195 123.094 345.062 119.35 346.176 118.726C346.981 118.289 347.786 118.227 348.652 118.227C353.358 118.227 355.649 122.283 355.649 128.586C355.649 133.89 355.029 136.823 354.596 138.758C354.596 138.758 351.872 140.193 351.439 140.318Z" fill="black" fill-opacity="0.87"/>
<path d="M379.183 143.875C380.669 143.875 386.984 139.444 388.284 137.697C388.965 135.7 389.646 132.018 389.646 127.775C389.646 119.225 385.374 114.545 377.016 114.545C375.53 114.545 369.091 118.976 367.791 120.973C366.924 122.595 366.305 126.402 366.305 130.271C366.305 139.756 370.701 143.875 379.183 143.875ZM379.492 140.318C376.149 140.318 372.249 138.446 372.249 129.397C372.249 123.094 373.115 119.35 374.23 118.726C375.035 118.289 375.84 118.227 376.706 118.227C381.412 118.227 383.702 122.283 383.702 128.586C383.702 133.89 383.083 136.823 382.65 138.758C382.65 138.758 379.926 140.193 379.492 140.318Z" fill="black" fill-opacity="0.87"/>
<path d="M398.383 143.875C398.941 143.875 404.017 142.877 404.017 142.877V140.568L401.912 139.632V105.059C401.912 104.623 400.241 103 399.869 103C399.312 103 394.111 103.998 394.111 103.998V106.307L396.34 107.181V141.816C396.34 142.253 398.012 143.875 398.383 143.875ZM413.923 143.875C414.419 143.875 419 142.877 419 142.877V140.568L416.524 139.569L407.608 127.463L416.709 117.852C416.709 117.166 415.966 114.919 415.595 114.919C415.038 114.919 407.546 115.356 407.546 115.356V118.352L410.27 118.726L403.089 126.963V129.522L411.509 141.878C411.88 142.377 413.552 143.875 413.923 143.875Z" fill="black" fill-opacity="0.87"/>
</svg>
