<svg width="1280" height="408" viewBox="0 0 1280 408" fill="none" xmlns="http://www.w3.org/2000/svg">
<g opacity="0.6">
<path d="M-16.3815 -66.0977C-13.2822 -77.6645 1.11475 -99.1972 2.72463 -98.7658C4.3345 -98.3345 5.9965 -72.3396 2.93699 -60.9213C-12.0745 -4.89763 -35.2388 81.5527 -35.2388 81.5527L-54.5573 76.3763C-54.5573 76.3763 -31.0048 -11.5229 -16.3815 -66.0977Z" fill="#C4C4C4"/>
<path d="M-16.3815 -66.0977C-13.2822 -77.6645 1.11475 -99.1972 2.72463 -98.7658C-3.61644 -75.1006 -40.7817 63.602 -44.8981 78.9645L-54.5573 76.3763C-54.5573 76.3763 -31.0048 -11.5229 -16.3815 -66.0977Z" fill="#DDDDDD"/>
<g opacity="0.1">
<rect x="700.279" y="280.705" width="16" height="64" transform="rotate(15 700.279 280.705)" fill="#C4C4C4"/>
<rect x="703.246" y="277.359" width="12" height="4" transform="rotate(15 703.246 277.359)" fill="#9F9F9F"/>
<rect x="685.646" y="343.042" width="12" height="8" transform="rotate(15 685.646 343.042)" fill="#9F9F9F"/>
<path d="M768.126 104.77L744.944 98.5584C738.603 122.224 701.567 260.443 697.451 275.806L720.633 282.017L768.126 104.77Z" fill="#DDDDDD"/>
<path d="M744.944 98.5584L758.596 101.699C752.255 125.364 715.09 264.067 710.974 279.429L697.451 275.806L744.944 98.5584Z" fill="#C4C4C4"/>
<rect x="682.134" y="263.42" width="60" height="6" transform="rotate(15 682.134 263.42)" fill="#9F9F9F"/>
<rect x="701.73" y="252.106" width="28" height="16" transform="rotate(15 701.73 252.106)" fill="#C4C4C4"/>
</g>
<g opacity="0.7">
<path d="M1066.89 353.647C1052.43 407.629 1053.27 450.863 1053.27 450.863C1059.54 427.455 1096.3 290.26 1100.37 275.064L1092.64 272.994C1092.64 272.994 1079.05 308.265 1066.89 353.647Z" fill="#C4C4C4"/>
<path d="M1090.07 359.859C1075.61 413.841 1053.27 450.863 1053.27 450.863C1059.54 427.455 1096.3 290.26 1100.37 275.064L1108.1 277.135C1108.1 277.135 1102.23 314.476 1090.07 359.859Z" fill="#C4C4C4"/>
<path d="M1063.36 413.191L1076.63 371.405L1100.49 282.343L1096.63 281.308L1072.76 370.37L1063.36 413.191Z" fill="#ACACAC"/>
<path d="M1082.19 288.827L1109.24 296.074L1112.75 282.965L1105.72 274.426L1096.06 271.838L1085.7 275.718L1082.19 288.827Z" fill="#C4C4C4"/>
<path d="M1094.06 275.443L1105.65 278.549C1105.65 278.549 1108.62 271.344 1109.9 266.535C1115.8 244.546 1124.28 209.002 1124.28 209.002L1112.69 205.896C1112.69 205.896 1102.55 239.9 1096.38 262.911C1095.09 267.721 1094.06 275.443 1094.06 275.443Z" fill="#C4C4C4"/>
<path d="M1111.66 209.76L1123.25 212.866L1128.08 202.565L1121.08 197.79L1112.63 198.424L1111.66 209.76Z" fill="#9F9F9F"/>
<rect width="36" height="10" transform="matrix(0.965926 0.258819 0.258819 -0.965926 1080.4 280.065)" fill="#9F9F9F"/>
</g>
<g opacity="0.4">
<path d="M349.21 68.6143L364.664 72.7554C364.664 72.7554 375.535 32.1865 380.841 12.385C385.445 -4.79765 368.492 -3.34721 368.492 -3.34721C368.492 -3.34721 364.52 11.4755 362.409 19.352C358.139 35.2898 349.21 68.6143 349.21 68.6143Z" fill="#C4C4C4"/>
<rect width="16" height="8" transform="matrix(0.965926 0.258819 0.258819 -0.965926 349.21 68.6143)" fill="#9F9F9F"/>
<path opacity="0.5" d="M341.205 83.034L356.937 70.685L349.819 97.2479C349.819 97.2479 329.22 181.853 327.811 187.114C321.081 212.228 309.314 248.415 309.314 248.415C309.314 248.415 300.727 210.915 307.716 184.835C312.887 165.535 323.745 149.757 330.972 128.95C341.297 99.2254 341.205 83.034 341.205 83.034Z" fill="#C4C4C4"/>
<path opacity="0.5" d="M364.387 89.2455L356.937 70.6849L349.819 97.2478C349.819 97.2478 325.356 180.818 323.947 186.078C317.218 211.192 309.314 248.415 309.314 248.415C309.314 248.415 335.501 220.233 342.489 194.153C347.66 174.852 346.146 155.76 350.291 134.126C356.211 103.222 364.387 89.2455 364.387 89.2455Z" fill="#C4C4C4"/>
<rect width="24" height="16" transform="matrix(0.965926 0.258819 0.258819 -0.965926 341.205 83.0339)" fill="#C4C4C4"/>
<path d="M349.69 97.7308C350.596 94.3501 360.949 93.7067 364.387 89.2455C356.66 87.175 348.449 84.975 341.205 83.0339C341.952 88.6164 350.596 94.3501 349.69 97.7308Z" fill="#9F9F9F"/>
<path d="M354.866 78.4122L378.049 84.6239L391.951 94.5605L393.503 88.765L379.602 78.8283L356.419 72.6167L354.866 78.4122Z" fill="#9F9F9F"/>
<path d="M354.866 78.4122L331.684 72.2006L314.677 73.855L316.229 68.0594L333.237 66.405L356.419 72.6167L354.866 78.4122Z" fill="#9F9F9F"/>
</g>
<g opacity="0.2">
<path d="M791.667 349.191L793.34 350.675L790.373 354.021L791.639 372.478L801.964 357.127L801.068 352.746L803.258 352.297C803.258 352.297 840.165 214.561 844.281 199.198L832.69 196.092L791.667 349.191Z" fill="#DDDDDD"/>
<rect width="16" height="42" transform="matrix(0.965926 0.258819 0.258819 -0.965926 792.582 338.049)" fill="#9C9C9C"/>
<path fill-rule="evenodd" clip-rule="evenodd" d="M848.147 279.432C848.147 279.432 869.369 308.413 862.122 335.459C854.099 365.402 818.177 373.894 818.177 373.894L814.745 368.271C820.633 366.594 825.517 361.955 827.217 355.611C829.79 346.009 824.092 336.139 814.489 333.566C814.005 333.436 813.52 333.327 813.035 333.239L813.04 333.177L793.239 327.872L798.933 306.621L818.734 311.927L818.754 311.869C819.22 312.036 819.697 312.185 820.183 312.315C829.786 314.888 839.656 309.19 842.229 299.587C843.918 293.284 842.043 286.866 837.839 282.472L848.147 279.432Z" fill="#C4C4C4"/>
<path d="M825.711 214.41L841.166 218.551C841.166 218.551 851.519 179.914 856.825 160.113C858.787 152.789 865.606 142.795 865.606 142.795L853.377 134.342C853.377 134.342 843.092 149.544 840.982 157.421C836.711 173.358 825.711 214.41 825.711 214.41Z" fill="#C4C4C4"/>
<rect width="16" height="8" transform="matrix(0.965926 0.258819 0.258819 -0.965926 823.641 222.137)" fill="#9F9F9F"/>
<rect width="24" height="12" transform="matrix(0.965926 0.258819 0.258819 -0.965926 816.671 232.693)" fill="#C4C4C4"/>
</g>
<g opacity="0.9">
<path d="M1206.84 233.192L1218.43 236.298C1212.09 259.963 1179.71 380.796 1175.59 396.159L1164 393.053L1206.84 233.192Z" fill="#DDDDDD"/>
<rect x="1167.25" y="373.217" width="16" height="92" transform="rotate(15 1167.25 373.217)" fill="#C4C4C4"/>
<rect x="1202.96" y="239.919" width="16" height="48" transform="rotate(15 1202.96 239.919)" fill="#9C9C9C"/>
<rect x="1167.76" y="371.285" width="16" height="4" transform="rotate(15 1167.76 371.285)" fill="#9F9F9F"/>
<rect x="1173.32" y="358.28" width="12" height="4" transform="rotate(15 1173.32 358.28)" fill="#9F9F9F"/>
<rect x="1172.28" y="362.144" width="12" height="10" transform="rotate(15 1172.28 362.144)" fill="#C4C4C4"/>
<path fill-rule="evenodd" clip-rule="evenodd" d="M1251.98 296.535C1256.79 284.366 1260.26 265.625 1260.26 265.625L1194.58 248.026L1188.89 269.276L1216.41 276.652L1216.41 276.731C1216.89 276.808 1217.38 276.911 1217.86 277.041C1225.33 279.042 1229.76 286.718 1227.76 294.187C1226.07 300.514 1220.3 304.662 1214.03 304.565L1214 304.992L1221.55 317.369C1221.55 317.369 1245.63 312.589 1251.98 296.535Z" fill="#C4C4C4"/>
<path fill-rule="evenodd" clip-rule="evenodd" d="M1252.54 263.555C1252.54 263.555 1248.68 283.745 1244.25 294.465C1239.68 305.539 1226.8 311.277 1219.34 313.751L1214 304.992L1214.03 304.565C1220.3 304.662 1226.07 300.514 1227.76 294.187C1229.76 286.719 1225.33 279.042 1217.86 277.041C1217.38 276.911 1216.89 276.808 1216.41 276.731L1216.41 276.652L1210.14 274.972C1210.14 274.971 1210.14 274.971 1210.14 274.97C1210.13 274.969 1210.13 274.969 1210.13 274.968L1208.69 274.582L1185.02 268.241L1190.72 246.99L1252.54 263.555Z" fill="#9C9C9C"/>
</g>
<g opacity="0.7">
<path d="M238.979 -26.144L250.57 -23.0382C244.21 0.698462 211.735 121.897 207.606 137.305L196.015 134.2L238.979 -26.144Z" fill="#DDDDDD"/>
<path d="M199.13 114.846L214.585 118.988L189.937 207.111L176.414 203.487L199.13 114.846Z" fill="#C4C4C4"/>
<rect x="236.012" y="-22.7981" width="16" height="60" transform="rotate(15 236.012 -22.7981)" fill="#9C9C9C"/>
<path d="M258.122 18.3257L262.33 27.7355L253.98 33.7805L207.616 21.3572L203.891 12.0769L211.757 5.90242L258.122 18.3257Z" fill="#9C9C9C"/>
<path d="M264.333 -4.85664L268.541 4.55309L260.192 10.5982L213.828 -1.82514L210.103 -11.1055L217.969 -17.28L264.333 -4.85664Z" fill="#9C9C9C"/>
<rect x="199.777" y="112.432" width="16" height="4" transform="rotate(15 199.777 112.432)" fill="#9F9F9F"/>
<rect x="176.483" y="199.365" width="16" height="4" transform="rotate(15 176.483 199.365)" fill="#9F9F9F"/>
<rect x="203.401" y="98.9087" width="16" height="4" transform="rotate(15 203.401 98.9087)" fill="#9F9F9F"/>
<rect x="204.297" y="103.29" width="12" height="10" transform="rotate(15 204.297 103.29)" fill="#C4C4C4"/>
</g>
<g opacity="0.8">
<path d="M107.497 89.7756L113.292 91.3285L119.157 88.7589L115.363 83.6011L109.567 82.0482L107.497 89.7756Z" fill="#DBDADA"/>
<path d="M105.426 97.5029L111.222 99.0558L117.086 96.4862L113.292 91.3284L107.497 89.7755L105.426 97.5029Z" fill="#DBDADA"/>
<path d="M103.355 105.23L109.151 106.783L115.016 104.214L111.222 99.056L105.426 97.5031L103.355 105.23Z" fill="#DBDADA"/>
<path d="M101.285 112.958L107.08 114.511L112.945 111.941L109.151 106.783L103.355 105.23L101.285 112.958Z" fill="#DBDADA"/>
<path d="M99.2143 120.685L105.01 122.238L110.875 119.669L107.08 114.511L101.285 112.958L99.2143 120.685Z" fill="#DBDADA"/>
<path d="M97.1438 128.413L102.939 129.966L108.804 127.396L105.01 122.238L99.2143 120.685L97.1438 128.413Z" fill="#DBDADA"/>
<path d="M95.0732 136.14L100.869 137.693L106.734 135.123L102.939 129.966L97.1438 128.413L95.0732 136.14Z" fill="#DBDADA"/>
<path d="M93.0027 143.867L98.7982 145.42L104.663 142.851L100.869 137.693L95.0732 136.14L93.0027 143.867Z" fill="#DBDADA"/>
<path d="M90.9321 151.595L96.7277 153.148L102.593 150.578L98.7982 145.42L93.0027 143.868L90.9321 151.595Z" fill="#DBDADA"/>
<path d="M88.8615 159.322L94.6571 160.875L100.522 158.306L96.7276 153.148L90.9321 151.595L88.8615 159.322Z" fill="#DBDADA"/>
<path d="M82.9273 166.014L92.5866 168.603L98.4515 166.033L94.6571 160.875L84.9979 158.287L82.9273 166.014Z" fill="#DBDADA"/>
<path d="M77.959 172.965L90.516 176.33L96.3809 173.76L92.5865 168.603L80.0295 165.238L77.959 172.965Z" fill="#DBDADA"/>
<path d="M74.9225 180.434L88.4454 184.057L94.3104 181.488L90.516 176.33L76.993 172.706L74.9225 180.434Z" fill="#DBDADA"/>
<rect width="12" height="152" transform="matrix(0.965926 0.258819 0.258819 -0.965926 43.6525 150.314)" fill="#DDDDDD"/>
<path d="M78.8519 18.9485L90.443 22.0543C90.443 22.0543 93.5199 14.4351 94.8802 9.35839C101.099 -13.8522 110.113 -51.356 110.113 -51.356L98.5222 -54.4618C98.5222 -54.4618 87.8658 -18.5552 81.3572 5.73493C79.9969 10.8116 78.8519 18.9485 78.8519 18.9485Z" fill="#C4C4C4"/>
<rect width="24" height="8" transform="matrix(0.965926 0.258819 0.258819 -0.965926 73.0563 17.3955)" fill="#9F9F9F"/>
<rect width="16" height="12" transform="matrix(0.965926 0.258819 0.258819 -0.965926 73.8142 30.022)" fill="#9F9F9F"/>
<path d="M71.8352 176.501L75.6989 177.536L88.8615 159.322L109.567 82.0483L97.9759 78.9424L89.6937 109.852L70.9436 114.145L48.7274 108.193L40.9628 137.17L64.6279 143.511L77.2704 156.217L71.8352 176.501Z" fill="#C4C4C4"/>
<rect width="16" height="37" transform="matrix(0.965926 0.258819 0.258819 -0.965926 45.0853 137.24)" fill="#C4C4C4"/>
</g>
<g opacity="0.2">
<path fill-rule="evenodd" clip-rule="evenodd" d="M506.799 44.5829L529.981 50.7945L504.617 145.455L481.435 139.244L488.935 111.255L488.941 111.232C490.227 106.431 487.378 101.496 482.577 100.209L482.569 100.207L460.36 94.2562L464.261 64.2432L490.341 71.2313L491.79 71.6195L491.945 71.5102C496.196 71.859 500.221 69.1339 501.364 64.8673C501.366 64.8602 501.368 64.853 501.37 64.8459L506.799 44.5829Z" fill="#C4C4C4"/>
<rect x="477.026" y="55.2402" width="12" height="152" transform="rotate(15 477.026 55.2402)" fill="#9F9F9F"/>
<rect x="421.639" y="261.948" width="12" height="8" transform="rotate(15 421.639 261.948)" fill="#9F9F9F"/>
<rect x="438.342" y="191.884" width="16" height="6" transform="rotate(15 438.342 191.884)" fill="#9F9F9F"/>
<rect x="472.765" y="63.416" width="16" height="37" transform="rotate(15 472.765 63.416)" fill="#C4C4C4"/>
<rect x="529.981" y="50.7944" width="6" height="98" transform="rotate(15 529.981 50.7944)" fill="#DBDADA"/>
<rect x="436.272" y="199.612" width="16" height="64" transform="rotate(15 436.272 199.612)" fill="#C4C4C4"/>
</g>
<g opacity="0.1">
<path d="M563.043 306.049L569.356 305.67L574.634 309.155C580.995 285.418 613.469 164.22 617.598 148.811L606.007 145.705L563.043 306.049Z" fill="#DDDDDD"/>
<path d="M602.005 152.915L617.46 157.056C617.46 157.056 625.981 125.255 630.878 106.977C632.69 100.216 640.317 87.2073 640.317 87.2073L627.988 79.1257C627.988 79.1257 618.049 93.0386 616.1 100.309C612.158 115.021 602.005 152.915 602.005 152.915Z" fill="#C4C4C4"/>
<rect width="16" height="8" transform="matrix(0.965926 0.258819 0.258819 -0.965926 598.381 166.438)" fill="#9F9F9F"/>
<rect width="20" height="6" transform="matrix(0.965926 0.258819 0.258819 -0.965926 594.897 171.716)" fill="#C4C4C4"/>
<rect width="24" height="19" transform="matrix(0.965926 0.258819 0.258819 -0.965926 562.683 284.212)" fill="#9C9C9C"/>
<rect width="4" height="56" transform="matrix(0.965926 0.258819 0.258819 -0.965926 569.236 298.391)" fill="#9C9C9C"/>
<path d="M582.759 302.014C582.759 302.014 589.595 303.846 593.459 304.881C595.529 297.154 610.6 290.839 610.6 290.839C610.6 290.839 605.882 258.517 607.953 250.789C603.494 249.595 597.253 247.923 597.253 247.923L582.759 302.014Z" fill="#9C9C9C"/>
<path d="M559.577 295.803C559.577 295.803 552.741 293.971 548.878 292.936C550.948 285.208 541.054 272.204 541.054 272.204C541.054 272.204 561.301 246.571 563.371 238.844C567.83 240.039 574.071 241.711 574.071 241.711L559.577 295.803Z" fill="#9C9C9C"/>
</g>
<g opacity="0.4">
<rect x="995.211" y="196.158" width="12" height="214" transform="rotate(15 995.211 196.158)" fill="#9F9F9F"/>
<rect x="961.962" y="312.517" width="16" height="10" transform="rotate(15 961.962 312.517)" fill="#9F9F9F"/>
<rect x="959.115" y="323.143" width="16" height="80" transform="rotate(15 959.115 323.143)" fill="#C4C4C4"/>
<rect x="1002.7" y="183.67" width="4" height="84" transform="rotate(15 1002.7 183.67)" fill="#C4C4C4"/>
<rect x="984.378" y="205.678" width="28" height="12" transform="rotate(15 984.378 205.678)" fill="#C4C4C4"/>
<rect x="978.166" y="228.861" width="28" height="12" transform="rotate(15 978.166 228.861)" fill="#C4C4C4"/>
<path d="M996.902 182.117L965.397 191.514L955.843 258.079L975.2 247.657L996.902 182.117Z" fill="#C4C4C4"/>
<path d="M1012.36 186.258L1034.94 210.149L1009.93 272.573L998.382 253.868L1012.36 186.258Z" fill="#C4C4C4"/>
</g>
</g>
<g opacity="0.6">
<g opacity="0.1">
<rect x="549.595" y="168.271" width="16" height="64" transform="rotate(165 549.595 168.271)" fill="#C4C4C4"/>
<rect x="548.698" y="172.653" width="12" height="4" transform="rotate(165 548.698 172.653)" fill="#9F9F9F"/>
<rect x="531.098" y="106.97" width="12" height="8" transform="rotate(165 531.098 106.97)" fill="#9F9F9F"/>
<path d="M578.805 354.559L601.987 348.347C595.646 324.682 558.61 186.462 554.494 171.1L531.311 177.311L578.805 354.559Z" fill="#DDDDDD"/>
<path d="M601.987 348.347L588.593 352.454C582.252 328.788 545.087 190.086 540.971 174.723L554.494 171.1L601.987 348.347Z" fill="#C4C4C4"/>
<rect x="573.951" y="174.168" width="60" height="6" transform="rotate(165 573.951 174.168)" fill="#9F9F9F"/>
<rect x="562.637" y="193.764" width="28" height="16" transform="rotate(165 562.637 193.764)" fill="#C4C4C4"/>
</g>
<g opacity="0.7">
<path d="M195.627 288.408C181.163 234.426 158.819 197.404 158.819 197.404C165.091 220.812 201.853 358.007 205.924 373.202L213.652 371.132C213.652 371.132 207.787 333.79 195.627 288.408Z" fill="#C4C4C4"/>
<path d="M172.445 294.619C157.98 240.638 158.819 197.404 158.819 197.404C165.091 220.812 201.853 358.007 205.924 373.202L198.197 375.273C198.197 375.273 184.605 340.002 172.445 294.619Z" fill="#C4C4C4"/>
<path d="M168.913 235.075L178.317 277.897L202.181 366.959L206.045 365.923L182.181 276.862L168.913 235.075Z" fill="#ACACAC"/>
<path d="M214.789 352.192L187.743 359.439L191.255 372.548L201.612 376.428L211.272 373.84L218.301 365.301L214.789 352.192Z" fill="#C4C4C4"/>
<path d="M211.202 369.718L199.611 372.823C199.611 372.823 200.645 380.546 201.934 385.355C207.826 407.344 218.246 442.37 218.246 442.37L229.837 439.264C229.837 439.264 221.623 404.743 215.457 381.732C214.168 376.922 211.202 369.718 211.202 369.718Z" fill="#C4C4C4"/>
<rect width="36" height="10" transform="matrix(-0.965926 0.258819 0.258819 0.965926 220.723 358.884)" fill="#9F9F9F"/>
</g>
<g opacity="0.4">
<path d="M959.675 176.412L944.22 180.553C944.22 180.553 955.09 221.122 960.396 240.923C965 258.106 978.957 248.373 978.957 248.373C978.957 248.373 974.985 233.551 972.874 225.674C968.604 209.736 959.675 176.412 959.675 176.412Z" fill="#C4C4C4"/>
<rect width="16" height="8" transform="matrix(-0.965926 0.258819 0.258819 0.965926 959.675 176.412)" fill="#9F9F9F"/>
<path opacity="0.5" d="M959.397 159.922L951.947 178.483L944.83 151.92C944.83 151.92 920.367 68.3499 918.957 63.0891C912.228 37.9751 904.325 0.752253 904.325 0.752253C904.325 0.752253 930.511 28.935 937.499 55.015C942.671 74.3152 941.156 93.4079 945.301 115.041C951.222 145.946 959.397 159.922 959.397 159.922Z" fill="#C4C4C4"/>
<path opacity="0.5" d="M936.215 166.134L951.947 178.482L944.83 151.92C944.83 151.92 924.23 67.3146 922.821 62.0538C916.092 36.9397 904.325 0.752141 904.325 0.752141C904.325 0.752141 895.738 38.2524 902.726 64.3324C907.897 83.6326 918.755 99.4102 925.982 120.217C936.307 149.942 936.215 166.134 936.215 166.134Z" fill="#C4C4C4"/>
<rect width="24" height="16" transform="matrix(-0.965926 0.258819 0.258819 0.965926 959.397 159.922)" fill="#C4C4C4"/>
<path d="M944.7 151.437C945.606 154.817 936.962 160.551 936.215 166.134C943.942 164.063 952.153 161.863 959.397 159.922C955.959 155.461 945.606 154.817 944.7 151.437Z" fill="#9F9F9F"/>
<path d="M949.877 170.755L926.694 176.967L909.687 175.312L911.24 181.108L928.247 182.762L951.43 176.551L949.877 170.755Z" fill="#9F9F9F"/>
<path d="M949.877 170.755L973.059 164.543L986.961 154.607L988.514 160.402L974.612 170.339L951.43 176.551L949.877 170.755Z" fill="#9F9F9F"/>
</g>
<g opacity="0.2">
<path d="M436.207 154.654L434.016 154.206L434.913 149.825L424.588 134.474L423.321 152.93L426.289 156.276L424.616 157.76C424.616 157.76 461.522 295.497 465.638 310.859L477.229 307.753L436.207 154.654Z" fill="#DDDDDD"/>
<rect width="16" height="42" transform="matrix(-0.965926 0.258819 0.258819 0.965926 440.985 164.762)" fill="#9C9C9C"/>
<path fill-rule="evenodd" clip-rule="evenodd" d="M422.173 243.307C422.173 243.307 389.304 228.82 382.057 201.775C374.034 171.831 400.897 146.516 400.897 146.516L406.681 149.669C402.42 154.065 400.51 160.526 402.21 166.869C404.783 176.472 414.653 182.17 424.255 179.597C424.739 179.467 425.214 179.319 425.678 179.153L425.704 179.209L445.505 173.903L451.2 195.154L431.398 200.459L431.41 200.52C430.923 200.608 430.436 200.717 429.949 200.848C420.347 203.421 414.648 213.291 417.221 222.893C418.91 229.196 423.743 233.817 429.58 235.521L422.173 243.307Z" fill="#C4C4C4"/>
<path d="M474.114 288.4L458.66 292.541C458.66 292.541 469.012 331.178 474.318 350.98C476.281 358.304 475.372 370.368 475.372 370.368L490.189 371.574C490.189 371.574 491.495 353.266 489.385 345.39C485.114 329.452 474.114 288.4 474.114 288.4Z" fill="#C4C4C4"/>
<rect width="16" height="8" transform="matrix(-0.965926 0.258819 0.258819 0.965926 472.044 280.673)" fill="#9F9F9F"/>
<rect width="24" height="12" transform="matrix(-0.965926 0.258819 0.258819 0.965926 472.802 268.046)" fill="#C4C4C4"/>
</g>
<g opacity="0.9">
<path d="M134.659 462.697L123.068 465.803C116.727 442.137 84.3497 321.304 80.2333 305.942L91.8244 302.836L134.659 462.697Z" fill="#DDDDDD"/>
<rect x="98.9326" y="321.637" width="16" height="92" transform="rotate(165 98.9326 321.637)" fill="#C4C4C4"/>
<rect x="99.4503" y="323.569" width="16" height="4" transform="rotate(165 99.4503 323.569)" fill="#9F9F9F"/>
<rect x="101.142" y="337.609" width="12" height="4" transform="rotate(165 101.142 337.609)" fill="#9F9F9F"/>
<rect x="100.107" y="333.746" width="12" height="10" transform="rotate(165 100.107 333.746)" fill="#C4C4C4"/>
<path fill-rule="evenodd" clip-rule="evenodd" d="M63.8918 430.413C65.8076 443.358 72.174 461.322 72.174 461.322L137.857 443.723L132.163 422.472L104.634 429.849L104.6 429.777C104.142 429.953 103.67 430.107 103.185 430.237C95.7167 432.238 88.04 427.806 86.0388 420.337C84.3434 414.01 87.2655 407.533 92.7395 404.485L92.5576 404.097L79.8271 397.155C79.8271 397.155 61.3645 413.335 63.8918 430.413Z" fill="#C4C4C4"/>
<path fill-rule="evenodd" clip-rule="evenodd" d="M79.9015 459.252C79.9015 459.252 73.1468 439.838 71.6192 428.342C70.0411 416.465 78.3289 405.055 83.5485 399.184L92.5576 404.097L92.7395 404.485C87.2655 407.533 84.3434 414.01 86.0388 420.337C88.04 427.806 95.7167 432.238 103.185 430.237C103.67 430.107 104.142 429.953 104.6 429.777L104.634 429.849L110.906 428.168C110.908 428.167 110.91 428.167 110.913 428.166C110.915 428.166 110.917 428.165 110.92 428.164L112.362 427.778L136.027 421.437L141.721 442.687L79.9015 459.252Z" fill="#9C9C9C"/>
</g>
<g opacity="0.7">
<path d="M1102.52 203.36L1090.93 206.466C1084.57 182.729 1052.09 61.5312 1047.96 46.1223L1059.55 43.0164L1102.52 203.36Z" fill="#DDDDDD"/>
<path d="M1066.53 61.3342L1051.08 65.4753L1028.36 -23.1657L1041.88 -26.7892L1066.53 61.3342Z" fill="#C4C4C4"/>
<rect x="1103.41" y="198.979" width="16" height="60" transform="rotate(165 1103.41 198.979)" fill="#9C9C9C"/>
<path d="M1063.7 174.419L1055.35 168.374L1059.56 158.965L1105.93 146.541L1113.79 152.716L1110.07 161.996L1063.7 174.419Z" fill="#9C9C9C"/>
<path d="M1069.92 197.602L1061.57 191.557L1065.77 182.147L1112.14 169.723L1120 175.898L1116.28 185.178L1069.92 197.602Z" fill="#9C9C9C"/>
<rect x="1067.18" y="63.749" width="16" height="4" transform="rotate(165 1067.18 63.749)" fill="#9F9F9F"/>
<rect x="1070.8" y="77.2722" width="16" height="4" transform="rotate(165 1070.8 77.2722)" fill="#9F9F9F"/>
<rect x="1067.83" y="73.926" width="12" height="10" transform="rotate(165 1067.83 73.926)" fill="#C4C4C4"/>
</g>
<g opacity="0.8">
<path d="M1158.42 37.2295L1152.63 38.7824L1148.83 43.9402L1154.7 46.5098L1160.49 44.9569L1158.42 37.2295Z" fill="#DBDADA"/>
<path d="M1156.35 29.502L1150.56 31.0549L1146.76 36.2127L1152.63 38.7823L1158.42 37.2294L1156.35 29.502Z" fill="#DBDADA"/>
<path d="M1154.28 21.7747L1148.49 23.3276L1144.69 28.4854L1150.56 31.055L1156.35 29.5021L1154.28 21.7747Z" fill="#DBDADA"/>
<path d="M1152.21 14.0471L1146.42 15.6L1142.62 20.7578L1148.49 23.3274L1154.28 21.7745L1152.21 14.0471Z" fill="#DBDADA"/>
<path d="M1150.14 6.31982L1144.35 7.87274L1140.55 13.0305L1146.42 15.6001L1152.21 14.0472L1150.14 6.31982Z" fill="#DBDADA"/>
<path d="M1148.07 -1.40747L1142.28 0.145444L1138.48 5.30324L1144.35 7.87285L1150.14 6.31994L1148.07 -1.40747Z" fill="#DBDADA"/>
<path d="M1146 -9.13501L1140.2 -7.5821L1136.41 -2.4243L1142.28 0.145311L1148.07 -1.4076L1146 -9.13501Z" fill="#DBDADA"/>
<rect width="12" height="152" transform="matrix(-0.965926 0.258819 0.258819 0.965926 1183.44 -47.1206)" fill="#DDDDDD"/>
<path d="M1218.64 84.2451L1207.05 87.351C1207.05 87.351 1208.2 95.4879 1209.56 100.565C1215.78 123.775 1226.72 160.761 1226.72 160.761L1238.31 157.656C1238.31 157.656 1229.59 121.231 1223.08 96.9411C1221.72 91.8644 1218.64 84.2451 1218.64 84.2451Z" fill="#C4C4C4"/>
<path d="M1238.31 157.656L1226.72 160.761L1227.69 172.097L1236.14 172.731L1243.15 167.956L1238.31 157.656Z" fill="#9F9F9F"/>
<rect width="24" height="8" transform="matrix(-0.965926 0.258819 0.258819 0.965926 1224.44 82.6924)" fill="#9F9F9F"/>
<rect width="16" height="12" transform="matrix(-0.965926 0.258819 0.258819 0.965926 1217.47 72.1365)" fill="#9F9F9F"/>
<path d="M1145.94 -55.7075L1142.08 -54.6723L1139.79 -32.3173L1160.49 44.9568L1172.09 41.851L1163.8 10.9413L1177.89 -2.15193L1200.11 -8.10475L1192.35 -37.0825L1168.68 -30.7415L1151.38 -35.4231L1145.94 -55.7075Z" fill="#C4C4C4"/>
<rect width="16" height="37" transform="matrix(-0.965926 0.258819 0.258819 0.965926 1188.74 -35.0813)" fill="#C4C4C4"/>
</g>
<g opacity="0.2">
<path fill-rule="evenodd" clip-rule="evenodd" d="M835.214 276.019L812.032 282.231L786.667 187.57L809.85 181.358L817.349 209.347L817.355 209.37C818.642 214.171 823.577 217.02 828.378 215.734L828.386 215.732L850.594 209.781L862.223 237.724L836.143 244.712L834.694 245.1L834.614 245.272C830.758 247.096 828.636 251.468 829.779 255.734C829.781 255.742 829.783 255.749 829.785 255.756L835.214 276.019Z" fill="#C4C4C4"/>
<rect x="855.669" y="251.903" width="12" height="152" transform="rotate(165 855.669 251.903)" fill="#9F9F9F"/>
<rect x="800.282" y="45.1948" width="12" height="8" transform="rotate(165 800.282 45.1948)" fill="#9F9F9F"/>
<rect x="820.849" y="114.224" width="16" height="6" transform="rotate(165 820.849 114.224)" fill="#9F9F9F"/>
<rect x="855.272" y="242.692" width="16" height="37" transform="rotate(165 855.272 242.692)" fill="#C4C4C4"/>
<rect x="812.032" y="282.23" width="6" height="98" transform="rotate(165 812.032 282.23)" fill="#DBDADA"/>
<rect x="818.778" y="106.496" width="16" height="64" transform="rotate(165 818.778 106.496)" fill="#C4C4C4"/>
</g>
<g opacity="0.1">
<path d="M655.772 77.7046L650.494 81.1894L644.181 80.8104C650.541 104.547 683.016 225.745 687.145 241.154L698.736 238.048L655.772 77.7046Z" fill="#DDDDDD"/>
<path d="M698.597 229.803L683.143 233.944C683.143 233.944 691.664 265.746 696.561 284.024C698.373 290.785 698.272 305.864 698.272 305.864L712.99 306.698C712.99 306.698 714.641 289.68 712.693 282.409C708.751 267.697 698.597 229.803 698.597 229.803Z" fill="#C4C4C4"/>
<rect width="16" height="8" transform="matrix(-0.965926 0.258819 0.258819 0.965926 694.974 216.28)" fill="#9F9F9F"/>
<rect width="20" height="6" transform="matrix(-0.965926 0.258819 0.258819 0.965926 695.353 209.967)" fill="#C4C4C4"/>
<rect width="24" height="19" transform="matrix(-0.965926 0.258819 0.258819 0.965926 667.003 96.436)" fill="#9C9C9C"/>
<rect width="4" height="56" transform="matrix(-0.965926 0.258819 0.258819 0.965926 654.238 87.4331)" fill="#9C9C9C"/>
<path d="M640.715 91.0566C640.715 91.0566 633.879 92.8883 630.015 93.9236C632.086 101.651 622.191 114.655 622.191 114.655C622.191 114.655 642.439 140.288 644.509 148.015C648.967 146.821 655.209 145.148 655.209 145.148L640.715 91.0566Z" fill="#9C9C9C"/>
<path d="M663.897 84.845C663.897 84.845 670.733 83.0133 674.596 81.9781C676.667 89.7054 691.738 96.02 691.738 96.02C691.738 96.02 687.02 128.342 689.09 136.07C684.632 137.264 678.391 138.937 678.391 138.937L663.897 84.845Z" fill="#9C9C9C"/>
</g>
<g opacity="0.4">
<rect x="336.449" y="388.957" width="12" height="214" transform="rotate(165 336.449 388.957)" fill="#9F9F9F"/>
<rect x="307.064" y="271.562" width="16" height="10" transform="rotate(165 307.064 271.562)" fill="#9F9F9F"/>
<rect x="304.217" y="260.937" width="16" height="80" transform="rotate(165 304.217 260.937)" fill="#C4C4C4"/>
<rect x="336.209" y="403.515" width="4" height="84" transform="rotate(165 336.209 403.515)" fill="#C4C4C4"/>
<rect x="341.071" y="375.295" width="28" height="12" transform="rotate(165 341.071 375.295)" fill="#C4C4C4"/>
<rect x="334.859" y="352.113" width="28" height="12" transform="rotate(165 334.859 352.113)" fill="#C4C4C4"/>
<path d="M342.005 401.962L364.591 378.072L339.583 315.648L328.03 334.352L342.005 401.962Z" fill="#C4C4C4"/>
<path d="M326.55 406.103L295.044 396.707L285.491 330.142L304.848 340.564L326.55 406.103Z" fill="#C4C4C4"/>
</g>
</g>
</svg>
